<?xml version="1.0" encoding="UTF-8"?>
<svg width="30px" height="28px" viewBox="0 0 30 28" version="1.1" xmlns="http://www.w3.org/2000/svg" xmlns:xlink="http://www.w3.org/1999/xlink">
    <title>9ACF7535-59A5-46E5-BF95-E1EA03712F66SVG</title>
    <g id="WEB-DESIGN" stroke="none" stroke-width="1" fill="none" fill-rule="evenodd">
        <g id="Atto-/-Product-/-Timesheets" transform="translate(-705.000000, -5259.000000)" fill="#00B9CB">
            <g id="Group-14" transform="translate(150.000000, 4513.000000)">
                <g id="Group-35" transform="translate(0.000000, 220.000000)">
                    <g id="Group-37" transform="translate(0.000000, 520.000000)">
                        <g id="Single-Feature" transform="translate(390.000000, 0.000000)">
                            <g id="Group" transform="translate(160.000000, 0.000000)">
                                <g id="Archived_members" transform="translate(5.000000, 6.000000)">
                                    <path d="M23.6608164,1.5217993 L6.33999384,1.5217993 C6.0947279,1.5217993 5.88569341,1.69537033 5.84461832,1.93315208 L4.12895992,11.7601495 C4.05646918,12.1738761 3.65777169,12.4532345 3.23610245,12.3819264 C2.81563948,12.311784 2.53173264,11.9182872 2.60420173,11.5045605 L4.31379784,1.66447626 C4.48656995,0.697937245 5.34197424,-0.00586068893 6.33996291,3.67875691e-05 L23.6607854,3.67875691e-05 C24.6587741,-0.00230289526 25.512969,0.705058919 25.6808882,1.67397183 L27.3965466,11.5046214 C27.4690405,11.918348 27.185112,12.3118358 26.7646459,12.3819873 C26.3429767,12.4533197 25.9442884,12.1739401 25.8717884,11.7602103 L24.1646049,1.92012611 C24.1186923,1.68473347 23.904842,1.51592544 23.6607854,1.52186017 L23.6608164,1.5217993 Z M20.5146127,19.189334 C20.3116343,19.1608016 20.1062434,19.2119224 19.9419121,19.3331857 C19.7775962,19.4544489 19.6688586,19.6339638 19.6398617,19.8348681 L19.3800988,21.6086215 C19.3559363,21.7667379 19.2181986,21.8844342 19.0550859,21.8856242 L10.9480131,21.8856242 C10.7849066,21.8856242 10.6447533,21.7679278 10.6205877,21.6086215 L10.3608248,19.8348681 C10.299206,19.4187675 9.90652441,19.1298832 9.48367983,19.1905087 C9.06080432,19.2511403 8.76842265,19.6375307 8.83003529,20.0536009 L9.09342314,21.8345064 L9.09221378,21.8333164 C9.22874207,22.7404168 10.0177024,23.4132933 10.9480162,23.4168541 L19.0526146,23.4168541 C19.9817221,23.4132872 20.7706856,22.7415733 20.908417,21.8368772 L21.1863049,20.0535978 C21.2165112,19.8503045 21.1621423,19.6446189 21.0352797,19.4817639 C20.9096264,19.3200806 20.7211542,19.214272 20.5145415,19.1893066 L20.5146127,19.189334 Z M29.1434753,14.7239833 L29.1446847,14.7239833 C29.7729356,15.4099467 30.077411,16.3253557 29.9831671,17.2443256 L29.1446847,25.3155564 C28.9839938,26.844403 27.6718889,28.0047188 26.1108807,27.9999856 L3.88950264,27.9999856 C2.32366812,28.0047264 1.01034737,26.8372816 0.855697168,25.3036565 L0.0172147079,17.2445995 C-0.0782323032,16.3256296 0.226233734,15.4102206 0.855697168,14.7242573 C1.48518535,14.0394809 2.37924909,13.6471497 3.31800519,13.6471497 L26.6822514,13.6471497 C27.62104,13.6483397 28.5151037,14.0394809 29.1445609,14.7242573 L29.1434753,14.7239833 Z M27.9908364,15.7440262 C27.6561734,15.3754948 27.1777166,15.1662576 26.6763097,15.1686115 L3.31794333,15.1686115 C2.81653645,15.1686115 2.33928717,15.3778687 2.00341786,15.7440262 C1.66634228,16.1089968 1.50442352,16.5988097 1.55517972,17.0886227 L2.39245591,25.1607665 C2.47582164,25.9121336 3.12221804,26.4803759 3.88940676,26.4780097 L26.1107879,26.4780097 C26.8828327,26.4803799 27.5304149,25.9049814 27.60774,25.1476797 L28.4462225,17.0788836 L28.4450131,17.0800736 C28.4945507,16.5914476 28.3290255,16.105226 27.9907127,15.7438162 L27.9908364,15.7440262 Z M21.2818014,4.78760432 C21.709502,4.78760432 22.0550524,4.44640309 22.0550524,4.02674169 C22.0550524,3.60589335 21.709502,3.26587906 21.2818014,3.26587906 L8.70935864,3.26587906 C8.28165805,3.26587906 7.93610764,3.60589335 7.93610764,4.02674169 C7.93610764,4.44640309 8.28165805,4.78760432 8.70935864,4.78760432 L21.2818014,4.78760432 Z M7.43225728,7.25209926 C7.43225728,7.45420263 7.51320739,7.6479913 7.65819195,7.79063783 C7.80317651,7.93328435 8.00012354,8.01295276 8.20549901,8.01295276 L21.8051284,8.01295276 C22.2316227,8.01295276 22.5783794,7.67293847 22.5783794,7.25209013 C22.5783794,6.83242873 22.2316227,6.4912275 21.8051284,6.4912275 L8.1959107,6.4912275 C7.77303519,6.49717135 7.43225728,6.83598957 7.43225728,7.25209013 L7.43225728,7.25209926 Z M6.76048155,10.4726786 C6.76048155,10.674782 6.84264411,10.8673837 6.98763177,11.0112172 C7.13261633,11.1538789 7.32835709,11.2335321 7.53373256,11.2335321 L22.4670653,11.2335321 C22.8935596,11.2335321 23.2403163,10.8923309 23.2403163,10.4726695 C23.2403163,10.0518211 22.8935596,9.71180684 22.4670653,9.71180684 L7.53373256,9.71180684 C7.10723824,9.71180684 6.76048155,10.0518211 6.76048155,10.4726695 L6.76048155,10.4726786 Z" id="Fill-1"></path>
                                </g>
                            </g>
                        </g>
                    </g>
                </g>
            </g>
        </g>
    </g>
</svg>