<?xml version="1.0" encoding="UTF-8"?>
<svg width="16px" height="16px" viewBox="0 0 16 16" version="1.1" xmlns="http://www.w3.org/2000/svg" xmlns:xlink="http://www.w3.org/1999/xlink">
    <title>DBC287BB-932E-4F57-82B0-63BB16CF5ED4Android</title>
    <g id="WEB-DESIGN" stroke="none" stroke-width="1" fill="none" fill-rule="evenodd">
        <g id="Atto-/-Home-/-Final-A" transform="translate(-182.000000, -1222.000000)" fill="#262626">
            <g id="Group-36" transform="translate(170.000000, 1105.000000)">
                <g id="Group-25" transform="translate(0.000000, 105.000000)">
                    <g id="Arrow-/--&gt;-green" transform="translate(20.000000, 20.000000) scale(-1, 1) translate(-20.000000, -20.000000) translate(8.000000, 8.000000)">
                        <g id="Arrow-2-Forward---Large-Black" transform="translate(4.000000, 4.000000)">
                            <path d="M9.39529926,8 L15.7094015,14.3079247 C16.0968662,14.6950104 16.0968662,15.3226002 15.7094015,15.7096858 C15.3219368,16.0967714 14.6937324,16.0967714 14.3062676,15.7096858 L7.29059853,8.70088053 C6.90313382,8.3137949 6.90313382,7.6862051 7.29059853,7.29911947 L14.3062676,0.290314219 C14.6937324,-0.0967714064 15.3219368,-0.0967714064 15.7094015,0.290314219 C16.0968662,0.677399845 16.0968662,1.30498964 15.7094015,1.69207527 L9.39529926,8 Z" id="Combined-Shape" transform="translate(11.500000, 8.000000) scale(-1, 1) translate(-11.500000, -8.000000) "></path>
                            <rect id="Rectangle-19" x="0" y="7" width="14" height="2" rx="1"></rect>
                        </g>
                    </g>
                </g>
            </g>
        </g>
    </g>
</svg>