<?xml version="1.0" encoding="UTF-8"?>
<svg width="32px" height="10px" viewBox="0 0 32 10" version="1.1"
    xmlns="http://www.w3.org/2000/svg"
    xmlns:xlink="http://www.w3.org/1999/xlink">
    <g id="WEB-DESIGN" stroke="none" stroke-width="1" fill="none" fill-rule="evenodd">
        <g id="Atto-/-Home-/-Final-A" transform="translate(-870.000000, -2120.000000)" fill="#000000">
            <g id="Group-9" transform="translate(150.000000, 1555.000000)">
                <g id="Group-20" transform="translate(0.000000, 94.000000)">
                    <g id="Group-6" transform="translate(590.000000, 151.000000)">
                        <g id="Group-37" transform="translate(0.000000, 310.000000)">
                            <g id="Arrow_long_black" transform="translate(130.000000, 10.000000)">
                                <path d="M27.872062,5 L31.8183759,8.94245296 C32.0605414,9.18438147 32.0605414,9.5766251 31.8183759,9.81855361 C31.5762105,10.0604821 31.1835827,10.0604821 30.9414173,9.81855361 L26.5566241,5.43805033 C26.3144586,5.19612181 26.3144586,4.80387819 26.5566241,4.56194967 L30.9414173,0.181446387 C31.1835827,-0.060482129 31.5762105,-0.060482129 31.8183759,0.181446387 C32.0605414,0.423374903 32.0605414,0.815618528 31.8183759,1.05754704 L27.872062,5 Z" id="Combined-Shape" transform="translate(29.187500, 5.000000) scale(-1, 1) translate(-29.187500, -5.000000) "></path>
                                <path d="M0.5,4.375 L30.5,4.375 C30.7761424,4.375 31,4.59885763 31,4.875 L31,5.125 C31,5.40114237 30.7761424,5.625 30.5,5.625 L0.5,5.625 C0.223857625,5.625 3.38176876e-17,5.40114237 0,5.125 L0,4.875 C-3.38176876e-17,4.59885763 0.223857625,4.375 0.5,4.375 Z" id="Rectangle-19"></path>
                            </g>
                        </g>
                    </g>
                </g>
            </g>
        </g>
    </g>
</svg>