<?xml version="1.0" encoding="UTF-8"?>
<svg width="8px" height="8px" viewBox="0 0 8 8" version="1.1" xmlns="http://www.w3.org/2000/svg" xmlns:xlink="http://www.w3.org/1999/xlink">
    <title>CAA1B5E9-B9DB-4A41-B417-FC206617C8C1Android</title>
    <g id="WEB-DESIGN" stroke="none" stroke-width="1" fill="none" fill-rule="evenodd">
        <g id="Atto-/-Menu---Product" transform="translate(-982.000000, -269.000000)" fill="#262626">
            <g id="Group-97" transform="translate(150.000000, 73.000000)">
                <g id="Group-10" transform="translate(764.000000, 12.000000)">
                    <g id="Group" transform="translate(60.000000, 78.000000)">
                        <g id="Group-7" transform="translate(0.000000, 95.000000)">
                            <g id="Arrow-/--&gt;-green" transform="translate(0.000000, 3.000000)">
                                <g id="Arrow-2-Forward---Small-x2-black" transform="translate(8.000000, 8.000000)">
                                    <path d="M4.69764963,4 L7.85470074,7.15396236 C8.04843309,7.34750518 8.04843309,7.66130008 7.85470074,7.85484289 C7.66096838,8.0483857 7.34686618,8.0483857 7.15313382,7.85484289 L3.64529926,4.35044026 C3.45156691,4.15689745 3.45156691,3.84310255 3.64529926,3.64955974 L7.15313382,0.14515711 C7.34686618,-0.0483857032 7.66096838,-0.0483857032 7.85470074,0.14515711 C8.04843309,0.338699922 8.04843309,0.652494822 7.85470074,0.846037635 L4.69764963,4 Z" id="Combined-Shape" transform="translate(5.750000, 4.000000) scale(-1, 1) translate(-5.750000, -4.000000) "></path>
                                    <rect id="Rectangle-19" x="0" y="3.5" width="7" height="1" rx="0.5"></rect>
                                </g>
                            </g>
                        </g>
                    </g>
                </g>
            </g>
        </g>
    </g>
</svg>