<?xml version="1.0" encoding="UTF-8"?>
<svg width="36px" height="40px" viewBox="0 0 36 40" version="1.1" xmlns="http://www.w3.org/2000/svg" xmlns:xlink="http://www.w3.org/1999/xlink">
    <title>6AC9CA09-3F69-443E-AD43-0D781C2B465BAndroid</title>
    <g id="WEB-DESIGN" stroke="none" stroke-width="1" fill="none" fill-rule="evenodd">
        <g id="Atto-/-Pricing" transform="translate(-151.000000, -3834.000000)">
            <g id="Group-8" transform="translate(150.000000, 3319.000000)">
                <g id="Group-24" transform="translate(-0.000000, 220.000000)">
                    <g id="Group-10" transform="translate(0.000000, 290.000000)">
                        <g id="Timesheets" transform="translate(1.000000, 5.000000)">
                            <path d="M31.6463415,1.30609756 C32.4879022,1.30609756 33.2497924,1.64720744 33.8012925,2.1987075 C34.3527926,2.75020757 34.6939024,3.51209781 34.6939024,4.35365854 L34.6939024,4.35365854 L34.6939024,35.6463415 C34.6939024,36.4879022 34.3527926,37.2497924 33.8012925,37.8012925 C33.2497924,38.3527926 32.4879022,38.6939024 31.6463415,38.6939024 L31.6463415,38.6939024 L4.35365854,38.6939024 C3.51209781,38.6939024 2.75020757,38.3527926 2.1987075,37.8012925 C1.64720744,37.2497924 1.30609756,36.4879022 1.30609756,35.6463415 L1.30609756,35.6463415 L1.30609756,4.35365854 C1.30609756,3.51209781 1.64720744,2.75020757 2.1987075,2.1987075 C2.75020757,1.64720744 3.51209781,1.30609756 4.35365854,1.30609756 L4.35365854,1.30609756 Z" id="Rectangle-10" stroke="#000000" stroke-width="2.61219512"></path>
                            <rect id="Rectangle-7" fill="#262626" x="7.2" y="27.0909091" width="21.6" height="1.6" rx="0.8"></rect>
                            <rect id="Rectangle-7" fill="#262626" x="7.2" y="31.0909091" width="21.6" height="1.6" rx="0.8"></rect>
                            <g id="Group" transform="translate(10.800000, 6.272727)">
                                <ellipse id="Oval-9" stroke="#000000" stroke-width="2.17682927" cx="7.2" cy="9.90909091" rx="6.11158537" ry="6.18431264"></ellipse>
                                <path d="M7.2,0 C7.69705627,-9.13077564e-17 8.1,0.402943725 8.1,0.9 L8.1,3.1 C8.1,3.59705627 7.69705627,4 7.2,4 C6.70294373,4 6.3,3.59705627 6.3,3.1 L6.3,0.9 C6.3,0.402943725 6.70294373,9.13077564e-17 7.2,0 Z" id="Rectangle-4" fill="#000000" transform="translate(7.200000, 2.000000) scale(-1, 1) translate(-7.200000, -2.000000) "></path>
                                <path d="M7.2,9 C7.69705627,9 8.1,9.40294373 8.1,9.9 C8.1,10.3970563 7.69705627,10.8 7.2,10.8 C6.70294373,10.8 6.3,10.3970563 6.3,9.9 C6.3,9.40294373 6.70294373,9 7.2,9 Z" id="Rectangle-4" fill="#000000" transform="translate(7.200000, 9.900000) scale(-1, 1) translate(-7.200000, -9.900000) "></path>
                                <path d="M7.2,-1.79090909 C7.70207705,-1.79090909 8.10909091,-1.38389523 8.10909091,-0.881818182 L8.10909091,2.7 C8.10909091,3.20207705 7.70207705,3.60909091 7.2,3.60909091 C6.69792295,3.60909091 6.29090909,3.20207705 6.29090909,2.7 L6.29090909,-0.881818182 C6.29090909,-1.38389523 6.69792295,-1.79090909 7.2,-1.79090909 Z" id="Rectangle-11" fill="#000000" transform="translate(7.200000, 0.909091) rotate(-270.000000) translate(-7.200000, -0.909091) "></path>
                            </g>
                        </g>
                    </g>
                </g>
            </g>
        </g>
    </g>
</svg>