<?xml version="1.0" encoding="UTF-8"?>
<svg width="20px" height="24px" viewBox="0 0 20 24" version="1.1" xmlns="http://www.w3.org/2000/svg" xmlns:xlink="http://www.w3.org/1999/xlink">
    <title>4B1103D4-E867-4CE4-A620-D238AC0EAB5FSVG</title>
    <g id="WEB-DESIGN" stroke="none" stroke-width="1" fill="none" fill-rule="evenodd">
        <g id="Atto-/-Product-/-Timesheets" transform="translate(-1100.000000, -4741.000000)" fill="#00B9CB" stroke="#00B9CB" stroke-width="0.793984962">
            <g id="Group-14" transform="translate(150.000000, 4513.000000)">
                <g id="Group-35" transform="translate(0.000000, 220.000000)">
                    <g id="Single-Feature" transform="translate(780.000000, 0.000000)">
                        <g id="Group" transform="translate(160.000000, 0.000000)">
                            <g id="Avoid-guesstimation" transform="translate(11.000000, 9.000000)">
                                <path d="M17.5,21.0222119 L16.5,21.0222119 L16.5,17.7709033 C16.5,17.0624158 16.1748,16.3777857 15.625,15.9127613 L9.7755,10.9999878 L15.625,6.08623653 C16.1748,5.6221899 16.5,4.93755979 16.5,4.22809448 L16.5,0.977763655 L17.5,0.977763655 C17.7754,0.977763655 18,0.75814816 18,0.488881827 C18,0.219615494 17.77539,0 17.5,0 L0.5,0 C0.2246,0 0,0.219615494 0,0.488881827 C0,0.75814816 0.22461,0.977763655 0.5,0.977763655 L1.5,0.977763655 L1.5,4.22907225 C1.5,4.93755979 1.8252,5.6221899 2.375,6.0872143 L8.2245,10.9999878 L2.375,15.913739 C1.8252,16.3777857 1.5,17.0624158 1.5,17.7709278 L1.5,21.0222363 L0.5,21.0222363 C0.2246,21.0222363 0,21.2418518 0,21.5111182 C0,21.7803845 0.22461,22 0.5,22 L17.5,22 C17.7754,22 18,21.7803845 18,21.5111182 C18,21.2418518 17.77539,21.0222363 17.5,21.0222363 L17.5,21.0222119 Z M3.0255,5.35306046 C2.7003,5.08378435 2.5001,4.66843034 2.5001,4.22824115 L2.5001,0.977910319 L15.5001,0.977910319 L15.5001,4.22921891 C15.5001,4.66940811 15.299905,5.05992691 14.9747,5.35403822 L9.0002,10.3640992 L3.0255,5.35306046 Z M2.5001,17.7709033 C2.5001,17.3307141 2.700295,16.9401953 3.0255,16.646084 L9,11.636023 L14.9745,16.6470618 C15.2997,16.9163379 15.4999,17.3316919 15.4999,17.7718811 L15.4999,21.0222119 L2.4999,21.0222119 L2.5001,17.7709033 Z" id="Fill-1"></path>
                            </g>
                        </g>
                    </g>
                </g>
            </g>
        </g>
    </g>
</svg>