<?xml version="1.0" encoding="UTF-8"?>
<svg width="29px" height="29px" viewBox="0 0 29 29" version="1.1" xmlns="http://www.w3.org/2000/svg" xmlns:xlink="http://www.w3.org/1999/xlink">
    <title>FBA7AEB5-ACD8-4450-9B66-326219C92DB2Android</title>
    <g id="WEB-DESIGN" stroke="none" stroke-width="1" fill="none" fill-rule="evenodd" stroke-linecap="round">
        <g id="Atto-/-Product-/-Location-Tracking" transform="translate(-316.000000, -5585.000000)" fill="#FFFFFF" stroke-width="1.5">
            <g id="Group-14" transform="translate(150.000000, 4839.000000)">
                <g id="Group-37" transform="translate(0.000000, 740.000000)">
                    <g id="OVAL-/-Grey-Normal" transform="translate(160.000000, 0.000000)">
                        <g id="All_featres_battery" transform="translate(7.000000, 10.000000)">
                            <g id="Group-10" transform="translate(0.000000, 2.000000)" stroke="#00B9CB">
                                <path d="M15.9818182,-5.06164384 C16.2428982,-5.06164384 16.4545455,-4.84999663 16.4545455,-4.58891656 L16.4540909,-2.90964384 L20.1181818,-2.90919945 C20.3792619,-2.90919945 20.5909091,-2.69755224 20.5909091,-2.43647217 L20.5909091,20.5889166 C20.5909091,20.8499966 20.3792619,21.0616438 20.1181818,21.0616438 L6.88181818,21.0616438 C6.62073812,21.0616438 6.40909091,20.8499966 6.40909091,20.5889166 L6.40909091,-2.43647217 C6.40909091,-2.69755224 6.62073812,-2.90919945 6.88181818,-2.90919945 L10.5450909,-2.90964384 L10.5454545,-4.58891656 C10.5454545,-4.84999663 10.7571018,-5.06164384 11.0181818,-5.06164384 L15.9818182,-5.06164384 Z" id="Combined-Shape" transform="translate(13.500000, 8.000000) rotate(-270.000000) translate(-13.500000, -8.000000) "></path>
                            </g>
                            <path d="M21,9.05172414 L12.75,21 L14.437,14.21 L9.75,21 L10.312,18.737 L8.75,21 L11,11.9482759 L5,11.9482759 L13.25,2.44310379e-16 L12.687,2.263 L14.25,2.44310379e-16 L12.563,6.787 L17.25,2.44310379e-16 L15,9.05172414 L21,9.05172414 Z" id="Combined-Shape" stroke="#FFFFFF"></path>
                            <polygon id="Path-3" stroke="#00B9CB" stroke-linejoin="round" transform="translate(13.000000, 10.500000) rotate(-360.000000) translate(-13.000000, -10.500000) " points="15.25 0 13 9.05172414 19 9.05172414 10.75 21 13 11.9482759 7 11.9482759"></polygon>
                        </g>
                    </g>
                </g>
            </g>
        </g>
    </g>
</svg>