<?xml version="1.0" encoding="UTF-8"?>
<svg width="26px" height="28px" viewBox="0 0 26 28" version="1.1" xmlns="http://www.w3.org/2000/svg" xmlns:xlink="http://www.w3.org/1999/xlink">
    <title>96D73359-CEE1-498B-8287-518B19E75C24SVG</title>
    <g id="WEB-DESIGN" stroke="none" stroke-width="1" fill="none" fill-rule="evenodd">
        <g id="Atto-/-Menu---Resources" transform="translate(-453.000000, -277.000000)">
            <g id="Group-97" transform="translate(360.000000, 73.000000)">
                <g id="Group-8" transform="translate(76.000000, 88.000000)">
                    <g id="menu-/-industries" transform="translate(0.000000, 100.000000)">
                        <g id="Blog_resources" transform="translate(17.090000, 16.500000)">
                            <path d="M23.7005195,0.6 L23.7005195,22.0256019 L25.0134701,26.4 L6.57324675,26.4 C5.57339618,26.4 4.66820137,25.9947305 4.01296921,25.3394983 C3.35773705,24.6842662 2.95246753,23.7790714 2.95246753,22.7792208 L2.95246753,22.7792208 L2.95246753,0.6 L23.7005195,0.6 Z" id="Rectangle-10" stroke="#000000" stroke-width="1.2" fill="#FFFFFF" transform="translate(14.086234, 13.500000) scale(-1, 1) translate(-14.086234, -13.500000) "></path>
                            <rect id="Rectangle-7" fill="#000000" x="8.09272727" y="14.34375" width="13.6753247" height="1.0125" rx="0.50625"></rect>
                            <rect id="Rectangle-7" fill="#000000" x="8.09272727" y="16.875" width="13.6753247" height="1.0125" rx="0.50625"></rect>
                            <rect id="Rectangle-7" fill="#000000" x="8.09272727" y="11.8125" width="13.6753247" height="1.0125" rx="0.50625"></rect>
                            <rect id="Rectangle-7" fill="#000000" x="8.09272727" y="19.40625" width="8.44155844" height="1.0125" rx="0.50625"></rect>
                            <rect id="Rectangle-7" fill="#000000" x="8.26155844" y="5.0625" width="2.53246753" height="1.0125" rx="0.50625"></rect>
                            <rect id="Rectangle-7" fill="#000000" x="8.26155844" y="7.59375" width="2.53246753" height="1.0125" rx="0.50625"></rect>
                            <rect id="Rectangle-7" fill="#000000" x="11.9195671" y="5.0625" width="2.53246753" height="1.0125" rx="0.50625"></rect>
                            <rect id="Rectangle-7" fill="#000000" x="11.9195671" y="7.59375" width="2.53246753" height="1.0125" rx="0.50625"></rect>
                            <rect id="Rectangle-7" fill="#000000" x="15.5775758" y="5.0625" width="2.53246753" height="1.0125" rx="0.50625"></rect>
                            <rect id="Rectangle-7" fill="#000000" x="15.5775758" y="7.59375" width="2.53246753" height="1.0125" rx="0.50625"></rect>
                            <rect id="Rectangle-7" fill="#000000" x="19.2355844" y="5.0625" width="2.53246753" height="1.0125" rx="0.50625"></rect>
                            <rect id="Rectangle-7" fill="#000000" x="19.2355844" y="7.59375" width="2.53246753" height="1.0125" rx="0.50625"></rect>
                            <path d="M4.22077922,12.4125 L4.46493506,24.4675325 C4.46493506,25.0011686 4.24863627,25.4842855 3.89892843,25.8339934 C3.54922059,26.1837012 3.06610371,26.4 2.53246753,26.4 C1.99883136,26.4 1.51571448,26.1837012 1.16600664,25.8339934 C0.816298796,25.4842855 0.6,25.0011686 0.6,24.4675325 L0.6,24.4675325 L0.6,12.6566558 L4.22077922,12.4125 Z" id="Rectangle-10" stroke="#000000" stroke-width="1.2" fill="#FFFFFF" transform="translate(2.532468, 19.406250) scale(-1, 1) translate(-2.532468, -19.406250) "></path>
                        </g>
                    </g>
                </g>
            </g>
        </g>
    </g>
</svg>