<?xml version="1.0" encoding="UTF-8"?>
<svg width="20px" height="30px" viewBox="0 0 20 30" version="1.1"
    xmlns="http://www.w3.org/2000/svg"
    xmlns:xlink="http://www.w3.org/1999/xlink">
    <title>Job Codes</title>
    <g id="WEB-DESIGN" stroke="none" stroke-width="1" fill="none" fill-rule="evenodd">
        <g id="Atto-/-Product-/-Time-Tracking" transform="translate(-1100.000000, -7244.000000)">
            <g id="Group-14" transform="translate(150.000000, 6499.000000)">
                <g id="Group-27" transform="translate(0.000000, 220.000000)">
                    <g id="Group-37" transform="translate(0.000000, 520.000000)">
                        <g id="Single-Feature" transform="translate(780.000000, 0.000000)">
                            <g id="OVAL-/-Grey-Normal" transform="translate(160.000000, 0.000000)">
                                <g id="All_featres_Jobs" transform="translate(10.000000, 5.000000)">
                                    <path d="M15.334128,1.41871447 C15.8630531,1.05074406 16.4910544,0.931998648 17.078817,1.03747711 C17.6665796,1.14295557 18.2141035,1.47265792 18.5820739,2.00158303 C18.8541574,2.39267905 19,2.8576918 19,3.33412174 L19,3.33412174 L19,26.6666667 C19,27.3109989 18.7388328,27.8943322 18.3165825,28.3165825 C17.8943322,28.7388328 17.3109989,29 16.6666667,29 L16.6666667,29 L3.33333333,29 C2.68900113,29 2.10566779,28.7388328 1.68341751,28.3165825 C1.26116723,27.8943322 1,27.3109989 1,26.6666667 L1,26.6666667 L1,3.33412174 C1,2.68978953 1.26116723,2.1064562 1.68341751,1.68420592 C2.10566779,1.26195564 2.68900113,1.00078841 3.33333333,1.00078841 C3.80976327,1.00078841 4.27477603,1.14663104 4.66587205,1.41871447 L4.66587205,1.41871447 L10,5.12963909 Z" id="Rectangle-20" stroke="#00B9CB" stroke-width="2" transform="translate(10.000000, 15.000000) rotate(-180.000000) translate(-10.000000, -15.000000) "></path>
                                    <rect id="Rectangle-25" fill="#00B9CB" x="1.66666667" y="8.75" width="16.6666667" height="2"></rect>
                                </g>
                            </g>
                        </g>
                    </g>
                </g>
            </g>
        </g>
    </g>
</svg>