<?xml version="1.0" encoding="UTF-8"?>
<svg width="28px" height="32px" viewBox="0 0 28 32" version="1.1" xmlns="http://www.w3.org/2000/svg" xmlns:xlink="http://www.w3.org/1999/xlink">
    <title>EC73CA8B-66D8-4B3E-BCEF-F01CA0D8E2FDSVG</title>
    <g id="WEB-DESIGN" stroke="none" stroke-width="1" fill="none" fill-rule="evenodd">
        <g id="Atto-/-Product-/-Time-Tracking" transform="translate(-706.000000, -6983.000000)" fill="#00B9CB" fill-rule="nonzero" stroke="#00B9CB" stroke-width="0.3">
            <g id="Group-14" transform="translate(150.000000, 6499.000000)">
                <g id="Group-27" transform="translate(0.000000, 220.000000)">
                    <g id="Group-38" transform="translate(0.000000, 260.000000)">
                        <g id="Single-Feature" transform="translate(390.000000, 0.000000)">
                            <g id="OVAL-/-Grey-Normal" transform="translate(160.000000, 0.000000)">
                                <g id="All_featres_time_off" transform="translate(7.000000, 5.000000)">
                                    <path d="M13.0000571,23.5308511 C13.2741864,23.5308511 13.5226399,23.6444129 13.7024443,23.8284969 C13.8809864,24.0112885 13.9917264,24.2637003 13.9917264,24.5425532 L13.9917264,24.5425532 L13.9917264,29.1382979 C13.9917264,29.4171507 13.8809864,29.6695626 13.7024443,29.8523542 C13.5226399,30.0364382 13.2741864,30.15 13.0000571,30.15 C12.7259277,30.15 12.4774742,30.0364382 12.2976698,29.8523542 C12.1191277,29.6695626 12.0083877,29.4171507 12.0083877,29.1382979 L12.0083877,29.1382979 L12.0083877,24.5425532 C12.0083877,24.2637003 12.1191277,24.0112885 12.2976698,23.8284969 C12.4774742,23.6444129 12.7259277,23.5308511 13.0000571,23.5308511 Z M4.79784803,19.5095894 C5.11748076,19.530358 5.41671388,19.7104125 5.58972715,20.0167313 C5.72576276,20.2578403 5.75372346,20.5324675 5.68869797,20.781633 C5.62346124,21.031608 5.46476303,21.2557454 5.2285912,21.3954173 L5.2285912,21.3954173 L1.34454511,23.693303 C1.10700442,23.8337811 0.833820326,23.8626079 0.585788289,23.7952735 C0.338858324,23.7282382 0.116886052,23.5658893 -0.0197460758,23.323723 C-0.155536988,23.0830476 -0.181505829,22.8090298 -0.114683185,22.5600791 C-0.0474587044,22.3096313 0.113678601,22.084882 0.350143243,21.945037 L0.350143243,21.945037 L4.23370588,19.6474384 Z M21.2427396,19.5077986 L25.6498433,21.9450135 C25.8863274,22.0848846 26.0474625,22.309632 26.1146856,22.5600747 C26.1815063,22.8090185 26.1555386,23.083027 26.0197489,23.3237071 C25.883117,23.5658796 25.6611453,23.7282298 25.4142162,23.7952649 C25.1661831,23.8625996 24.8929974,23.83377 24.6554342,23.6932753 L24.6554342,23.6932753 L20.7714281,21.3954132 C20.53523,21.2557162 20.3765329,21.0315793 20.3112976,20.7816098 C20.2462728,20.5324469 20.2742361,20.2578255 20.4103068,20.01666 C20.5905788,19.6974715 20.9079969,19.5153675 21.2427396,19.5077986 L21.2427396,19.5077986 Z M13.0000571,9.39255319 C14.5086172,9.39255319 15.8793693,10.0230204 16.8728164,11.0401128 C17.8649985,12.0559101 18.4806296,13.4573273 18.4806296,15 C18.4806296,16.5426727 17.8649985,17.9440899 16.8728164,18.9598872 C15.8793693,19.9769796 14.5086172,20.6074468 13.0000571,20.6074468 C11.4914969,20.6074468 10.1207449,19.9769796 9.12729775,18.9598872 C8.13511563,17.9440899 7.51948454,16.5426727 7.51948454,15 C7.51948454,13.4573273 8.13511563,12.0559101 9.12729775,11.0401128 C10.1207449,10.0230204 11.4914969,9.39255319 13.0000571,9.39255319 Z M13.0000571,11.4159574 C12.0300014,11.4159574 11.1561037,11.8142185 10.5246866,12.460664 C9.89201175,13.1083974 9.50282323,14.0050408 9.50282323,15 C9.50282323,15.9949592 9.89201175,16.8916026 10.5246866,17.539336 C11.1561037,18.1857815 12.0300014,18.5840426 13.0000571,18.5840426 C13.9701127,18.5840426 14.8440104,18.1857815 15.4754275,17.539336 C16.1081024,16.8916026 16.4972909,15.9949592 16.4972909,15 C16.4972909,14.0050408 16.1081024,13.1083974 15.4754275,12.460664 C14.8440104,11.8142185 13.9701127,11.4159574 13.0000571,11.4159574 Z M0.821480814,6.16737784 L5.22857383,8.6045868 C5.46477574,8.74428608 5.62347976,8.96842521 5.68871587,9.2183978 C5.75373969,9.46755695 5.72577515,9.74217448 5.58972422,9.98328827 C5.45287939,10.2258091 5.2329039,10.3879994 4.98824078,10.4549255 C4.74264616,10.5221064 4.47189882,10.4934444 4.23416671,10.3528497 L4.23416671,10.3528497 L0.350158632,8.0549865 C0.113674367,7.91511534 -0.0474624648,7.69036444 -0.114686086,7.43991985 C-0.18150759,7.19097336 -0.155538772,6.91696406 -0.0197139733,6.67623452 C0.160238565,6.35761149 0.48802713,6.17481692 0.821480814,6.16737784 L0.821480814,6.16737784 Z M25.200405,6.16813229 C25.5262361,6.18289518 25.8436891,6.36459474 26.019748,6.67630575 C26.1555389,6.91698107 26.1815077,7.19099891 26.1146851,7.43994964 C26.0474606,7.69039744 25.8863233,7.91514669 25.6498587,8.05499176 L25.6498587,8.05499176 L21.7658126,10.3528775 C21.5281025,10.4934557 21.2573478,10.522115 21.0117497,10.4549331 C20.7670801,10.3880053 20.5471041,10.2258133 20.4102747,9.98329744 C20.2742391,9.74218842 20.2462784,9.46756127 20.3113039,9.21839572 C20.3765407,8.96842072 20.5352389,8.74428333 20.7714107,8.60461143 L20.7714107,8.60461143 L24.6747373,6.29531893 Z M12.9997765,-0.15 C13.2739059,-0.15 13.5223593,-0.0364382045 13.7021638,0.147645819 C13.8807059,0.330437434 13.9914458,0.582849258 13.9914458,0.861702128 L13.9914458,0.861702128 L13.9914458,5.45744681 C13.9914458,5.73629968 13.8807059,5.9887115 13.7021638,6.17150312 C13.5223593,6.35558714 13.2739059,6.46914894 12.9997765,6.46914894 C12.7256471,6.46914894 12.4771937,6.35558714 12.2973892,6.17150312 C12.1188471,5.9887115 12.0081072,5.73629968 12.0081072,5.45744681 L12.0081072,5.45744681 L12.0081072,0.861702128 C12.0081072,0.582849258 12.1188471,0.330437434 12.2973892,0.147645819 C12.4771937,-0.0364382045 12.7256471,-0.15 12.9997765,-0.15 L12.9997765,-0.15 Z" id="Paid-Time-Off"></path>
                                </g>
                            </g>
                        </g>
                    </g>
                </g>
            </g>
        </g>
    </g>
</svg>