<?xml version="1.0" encoding="UTF-8"?>
<svg width="28px" height="24px" viewBox="0 0 28 24" version="1.1" xmlns="http://www.w3.org/2000/svg" xmlns:xlink="http://www.w3.org/1999/xlink">
    <title>E931A536-833F-42F6-8375-E9919959F565SVG</title>
    <g id="WEB-DESIGN" stroke="none" stroke-width="1" fill="none" fill-rule="evenodd">
        <g id="Atto-/-Product-/-Timesheets" transform="translate(-316.000000, -5261.000000)" fill="#00B9CB">
            <g id="Group-14" transform="translate(150.000000, 4513.000000)">
                <g id="Group-35" transform="translate(0.000000, 220.000000)">
                    <g id="Group-37" transform="translate(0.000000, 520.000000)">
                        <g id="Group" transform="translate(160.000000, 0.000000)">
                            <g id="Change_history" transform="translate(6.000000, 8.000000)">
                                <path d="M16.6851075,22.9090271 C16.6851075,23.1980913 16.5682501,23.476251 16.35975,23.6807657 C16.1512499,23.8852944 15.8676963,23.9998283 15.5730263,23.9998283 C12.2064723,24.0175536 8.98431769,22.6622271 6.67705982,20.2582449 C6.25311364,19.8219188 6.27119024,19.1306038 6.71598145,18.7147327 C7.16077266,18.2988616 7.86551824,18.3165939 8.28946442,18.752913 C10.1784695,20.7218257 12.8167997,21.8317345 15.573126,21.8180862 C15.8678031,21.8180862 16.1513638,21.9326201 16.3598497,22.1371488 C16.5683498,22.3416775 16.6851075,22.6198301 16.6851075,22.9088874 L16.6851075,22.9090271 Z M15.5730121,0.0019079928 C12.7513183,0.0019079928 10.0173031,0.959102689 7.83209788,2.70985235 C5.647035,4.46196335 4.14738855,6.89997894 3.5855193,9.61183277 L1.90638783,7.95379368 C1.46991613,7.52563563 0.763825477,7.52563563 0.327353776,7.95379368 C-0.109117925,8.38195173 -0.109117925,9.0745932 0.327353776,9.50275125 L3.66334122,12.7751968 C3.76759127,12.8760964 3.89268991,12.9538183 4.03028204,13.004268 C4.16372154,13.0601736 4.30688967,13.0901684 4.45284045,13.0915332 C4.58627995,13.0888071 4.71832812,13.0628998 4.84205678,13.0151762 L4.97549628,12.9497273 L5.12005573,12.8733702 L9.56803899,9.60092462 C10.0587049,9.23957682 10.1588023,8.55510337 9.79043815,8.07378335 C9.42207397,7.59246333 8.72430994,7.49427251 8.23364401,7.85562031 L5.88731505,9.57910832 C6.76580954,6.18665561 9.4206862,3.50859087 12.8539243,2.55286223 C16.2858103,1.59702887 19.9788818,2.50513862 22.5434111,4.93900737 C25.1093281,7.37290405 26.1601552,10.9630997 25.2997729,14.3608582 C24.4407428,17.7587562 21.802555,20.4502249 18.3747967,21.4251519 C18.0898483,21.5042351 17.8479776,21.6910385 17.7048237,21.9446592 C17.5602643,22.1982728 17.5255131,22.4982348 17.6075232,22.7777627 C17.7506913,23.2590827 18.2093887,23.5836046 18.719519,23.5631497 C18.8223777,23.5795136 18.9280191,23.5795136 19.0308778,23.5631497 C22.8881689,22.5159671 25.977916,19.6840363 27.3069734,15.9805006 C28.6344295,12.2773139 28.032564,8.17026377 25.6931739,4.98508341 C23.3538194,1.79990304 19.5745281,-0.0612894763 15.5727666,0.0015414789 L15.5730121,0.0019079928 Z M15.5730121,4.36507801 C14.9586211,4.36507801 14.4610038,4.85329548 14.4610038,5.45598396 L14.4610038,12.0008751 C14.459625,12.2913042 14.574995,12.5694604 14.7834951,12.7753714 L18.1194825,16.0478169 C18.3279826,16.253707 18.612924,16.3709705 18.9090173,16.3709705 C19.2051107,16.3709705 19.4900307,16.253707 19.6985521,16.0478169 C19.90844,15.8432882 20.0279805,15.5637742 20.0279805,15.2733207 C20.0279805,14.9828672 19.90844,14.7033741 19.6985521,14.4988245 L16.6850257,11.5536234 L16.6850257,5.45587924 C16.6850257,5.16681496 16.5682679,4.88865534 16.3597678,4.68414058 C16.1512677,4.47961186 15.8677141,4.36507801 15.5730441,4.36507801 L15.5730121,4.36507801 Z" id="Fill-1"></path>
                            </g>
                        </g>
                    </g>
                </g>
            </g>
        </g>
    </g>
</svg>