<?xml version="1.0" encoding="UTF-8"?>
<svg width="35px" height="35px" viewBox="0 0 35 35" version="1.1" xmlns="http://www.w3.org/2000/svg" xmlns:xlink="http://www.w3.org/1999/xlink">
    <title>F8DC741D-3AD9-4054-8C6D-498605E3B6B2SVG</title>
    <g id="WEB-DESIGN" stroke="none" stroke-width="1" fill="none" fill-rule="evenodd">
        <g id="Atto-/-Menu---Industries" transform="translate(-577.000000, -371.000000)">
            <g id="Group-97" transform="translate(150.000000, 73.000000)">
                <g id="Group-8" transform="translate(412.000000, 88.000000)">
                    <g id="menu-/-industries" transform="translate(0.000000, 200.000000)">
                        <g id="Cleaning_industry" transform="translate(16.000000, 10.800000)">
                            <g id="Group-2" transform="translate(0.000000, 5.200000)">
                                <polygon id="Path-16" fill="#FFFFFF" points="3.73333333 14.1091471 8.81289063 11.5404297 12.7111979 7.10914714 14.6344425 1.86666667 16.1271159 7.10914714 19.7421875 11.1457682 24.2024089 13.5959961 26.1337891 14.1091471 21.8920898 15.5137044 17.3584961 19.3119792 14.4365885 25.3786458 11.2462565 18.7910807"></polygon>
                                <g id="Group" stroke="#000000" stroke-linecap="round" stroke-linejoin="round" stroke-width="1.2">
                                    <path d="M28,14 C20.2680135,14 14,20.2680135 14,28" id="Oval"></path>
                                    <path d="M14,14 C6.2680135,14 0,20.2680135 0,28" id="Oval" transform="translate(7.000000, 21.000000) scale(-1, 1) translate(-7.000000, -21.000000) "></path>
                                    <path d="M28,0 C20.2680135,0 14,6.2680135 14,14" id="Oval" transform="translate(21.000000, 7.000000) scale(1, -1) translate(-21.000000, -7.000000) "></path>
                                    <path d="M14,0 C6.2680135,0 0,6.2680135 0,14" id="Oval" transform="translate(7.000000, 7.000000) scale(-1, -1) translate(-7.000000, -7.000000) "></path>
                                </g>
                            </g>
                            <g id="Group-2" transform="translate(23.000000, 0.000000)">
                                <polygon id="Path-16" fill="#FFFFFF" points="0.766576193 5.21644878 2.88873222 4.28164976 4.50123877 2.68569285 5.28118534 0.80488475 5.88284377 2.69819311 7.37061515 4.153448 9.22833233 5.02882409 10.0336191 5.21032629 8.29173148 5.71154738 6.41994072 7.07833063 5.18710937 9.27298452 3.85188067 6.90929767"></polygon>
                                <g id="Group" transform="translate(0.000000, 0.200000)" stroke="#000000" stroke-linecap="round" stroke-linejoin="round" stroke-width="0.833333333">
                                    <path d="M10,5 C7.23857625,5 5,7.23857625 5,10" id="Oval"></path>
                                    <path d="M5,5 C2.23857625,5 0,7.23857625 0,10" id="Oval" transform="translate(2.500000, 7.500000) scale(-1, 1) translate(-2.500000, -7.500000) "></path>
                                    <path d="M10,0 C7.23857625,0 5,2.23857625 5,5" id="Oval" transform="translate(7.500000, 2.500000) scale(1, -1) translate(-7.500000, -2.500000) "></path>
                                    <path d="M5,0 C2.23857625,0 0,2.23857625 0,5" id="Oval" transform="translate(2.500000, 2.500000) scale(-1, -1) translate(-2.500000, -2.500000) "></path>
                                </g>
                            </g>
                        </g>
                    </g>
                </g>
            </g>
        </g>
    </g>
</svg>