<?xml version="1.0" encoding="UTF-8"?>
<svg width="40px" height="40px" viewBox="0 0 40 40" version="1.1" xmlns="http://www.w3.org/2000/svg" xmlns:xlink="http://www.w3.org/1999/xlink">
    <title>07401640-F701-4BC9-B64B-928B14EEAEEBSVG</title>
    <g id="WEB-DESIGN" stroke="none" stroke-width="1" fill="none" fill-rule="evenodd" stroke-linecap="round">
        <g id="Atto-/-All-features" transform="translate(-761.000000, -2360.000000)" stroke="#00B9CB" stroke-width="2">
            <g id="Group-10" transform="translate(150.000000, 2182.000000)">
                <g id="Group-9" transform="translate(0.000000, 98.000000)">
                    <g id="Group" transform="translate(81.000000, 80.000000)">
                        <g id="Group" transform="translate(530.000000, 0.000000)">
                            <g id="All_featres_Location-Tracking" transform="translate(21.669417, 20.411765) scale(-1, 1) translate(-21.669417, -20.411765) translate(11.000000, 6.000000)" stroke-linejoin="round">
                                <path d="M21.3388348,21.0877896 C18.0844657,24.3038721 15.1381874,26.882452 12.5,28.8235294 C9.86181259,26.882452 6.91553433,24.3038721 3.66116523,21.0877896 C-1.22038841,16.263666 -1.22038841,8.44221631 3.66116523,3.6180927 C8.54271888,-1.2060309 16.4572811,-1.2060309 21.3388348,3.6180927" id="Oval-11"></path>
                            </g>
                            <g id="Group-2" transform="translate(19.300000, 12.200000)">
                                <line x1="3.75" y1="3.25" x2="-2.75" y2="3.25" id="Line" transform="translate(0.500000, 3.250000) rotate(-90.000000) translate(-0.500000, -3.250000) "></line>
                                <line x1="6.2513456" y1="9.0486544" x2="-0.251345597" y2="9.0513456" id="Line" transform="translate(3.000000, 9.050000) rotate(225.000000) translate(-3.000000, -9.050000) "></line>
                            </g>
                            <g transform="translate(12.650000, 8.565291) rotate(-90.000000) translate(-12.650000, -8.565291) translate(9.884709, 5.315291)" id="Line">
                                <line x1="5.53058262" y1="0.5" x2="0.530582618" y2="0.5"></line>
                                <line x1="3.33883476" y1="3.5" x2="-1.66116524" y2="3.5" transform="translate(0.500000, 3.500000) rotate(-90.000000) translate(-0.500000, -3.500000) "></line>
                            </g>
                        </g>
                    </g>
                </g>
            </g>
        </g>
    </g>
</svg>