<?xml version="1.0" encoding="UTF-8"?>
<svg width="30px" height="30px" viewBox="0 0 30 30" version="1.1"
    xmlns="http://www.w3.org/2000/svg"
    xmlns:xlink="http://www.w3.org/1999/xlink">
    <title>Rounded Clock</title>
    <g id="WEB-DESIGN" stroke="none" stroke-width="1" fill="none" fill-rule="evenodd">
        <g id="Atto-/-Product-/-Time-Tracking" transform="translate(-315.000000, -7504.000000)" fill="#00B9CB">
            <g id="Group-14" transform="translate(150.000000, 6499.000000)">
                <g id="Group-27" transform="translate(0.000000, 220.000000)">
                    <g id="Group-13" transform="translate(0.000000, 780.000000)">
                        <g id="OVAL-/-Grey-Normal" transform="translate(160.000000, 0.000000)">
                            <g id="All_featres_rounding" transform="translate(5.000000, 5.000000)">
                                <path d="M18.1320207,20.3571429 C17.8366144,20.3571429 17.541208,20.2478461 17.315597,20.0292685 L14.6354072,17.4324443 C14.1799501,16.9911539 13.9285714,16.4030776 13.9285714,15.7786045 L13.9285714,8.6178273 C13.9285714,8.00062825 14.4452713,7.5 15.0822842,7.5 C15.7192972,7.5 16.235997,8.00062825 16.235997,8.6178273 L16.235997,15.7786045 C16.235997,15.8056649 16.2467386,15.8316862 16.2671492,15.8514619 L18.947339,18.4482861 C19.3985061,18.88542 19.3985061,19.5931845 18.947339,20.0292792 C18.7217527,20.2478487 18.4263491,20.3571429 18.1320152,20.3571429 L18.1320207,20.3571429 Z" id="Fill-1"></path>
                                <path d="M16.5873333,1.57943333 C16.5873333,3.65236667 13.4792667,3.65236667 13.4792667,1.57943333 C13.4792667,-0.492166667 16.5873333,-0.492166667 16.5873333,1.57943333" id="Fill-2"></path>
                                <path d="M29.974,15.034 C29.974,17.1056 26.8659333,17.1056 26.8659333,15.034 C26.8659333,12.9610667 29.974,12.9610667 29.974,15.034" id="Fill-3"></path>
                                <path d="M3.134,14.966 C3.134,17.0389333 0.0259336667,17.0389333 0.0259336667,14.966 C0.0259336667,12.8944 3.134,12.8944 3.134,14.966" id="Fill-4"></path>
                                <path d="M16.5206667,28.420667 C16.5206667,30.492267 13.4126,30.492267 13.4126,28.420667 C13.4126,26.3477333 16.5206667,26.3477333 16.5206667,28.420667" id="Fill-5"></path>
                                <path d="M4.39466667,8.241 C4.39466667,9.56 2.4168,9.56 2.4168,8.241 C2.4168,6.9233 4.39466667,6.9233 4.39466667,8.241" id="Fill-6"></path>
                                <path d="M9.254,3.341 C9.254,4.54023333 7.45323333,4.54023333 7.45323333,3.341 C7.45323333,2.14046667 9.254,2.14046667 9.254,3.341" id="Fill-7"></path>
                                <path d="M22.7473333,3.405 C22.7473333,4.724 20.7694667,4.724 20.7694667,3.405 C20.7694667,2.0873 22.7473333,2.0873 22.7473333,3.405" id="Fill-8"></path>
                                <path d="M27.6483333,8.354 C27.6483333,9.6717 25.6704667,9.6717 25.6704667,8.354 C25.6704667,7.035 27.6483333,7.035 27.6483333,8.354" id="Fill-9"></path>
                                <path d="M27.5833333,21.759 C27.5833333,23.0767 25.6054667,23.0767 25.6054667,21.759 C25.6054667,20.44 27.5833333,20.44 27.5833333,21.759" id="Fill-10"></path>
                                <path d="M22.6353333,26.659 C22.6353333,27.978 20.6574667,27.978 20.6574667,26.659 C20.6574667,25.34 22.6353333,25.34 22.6353333,26.659" id="Fill-11"></path>
                                <path d="M9.23033333,26.595 C9.23033333,27.9127 7.25246667,27.9127 7.25246667,26.595 C7.25246667,25.276 9.23033333,25.276 9.23033333,26.595" id="Fill-12"></path>
                                <path d="M4.32933333,21.646 C4.32933333,22.965 2.35146667,22.965 2.35146667,21.646 C2.35146667,20.3283 4.32933333,20.3283 4.32933333,21.646" id="Fill-13"></path>
                            </g>
                        </g>
                    </g>
                </g>
            </g>
        </g>
    </g>
</svg>