<?xml version="1.0" encoding="UTF-8"?>
<svg width="28px" height="30px" viewBox="0 0 28 30" version="1.1"
    xmlns="http://www.w3.org/2000/svg"
    xmlns:xlink="http://www.w3.org/1999/xlink">
    <title>Break Preferences</title>
    <g id="WEB-DESIGN" stroke="none" stroke-width="1" fill="none" fill-rule="evenodd">
        <g id="Atto-/-Product-/-Time-Tracking" transform="translate(-707.000000, -7245.000000)">
            <g id="Group-14" transform="translate(150.000000, 6499.000000)">
                <g id="Group-27" transform="translate(0.000000, 220.000000)">
                    <g id="Group-37" transform="translate(0.000000, 520.000000)">
                        <g id="Single-Feature" transform="translate(390.000000, 0.000000)">
                            <g id="OVAL-/-Grey-Normal" transform="translate(160.000000, 0.000000)">
                                <g id="All_featres_Break" transform="translate(7.000000, 6.000000)">
                                    <path d="M20.4604143,10.9782609 L20.7608696,13.9285714 C20.7608696,16.9225634 19.6468541,19.6360479 17.8363885,21.5991099 C16.0534229,23.532354 13.5925384,24.7360248 10.8695652,24.7360248 C8.14659202,24.7360248 5.68570749,23.532354 3.90274193,21.5991099 C2.09227633,19.6360479 0.97826087,16.9225634 0.97826087,13.9285714 L0.97826087,13.9285714 L0.97826087,11.2651173 L20.4604143,10.9782609 Z" id="Oval-5" stroke="#00B9CB" stroke-width="1.95652174"></path>
                                    <g id="Group-11" transform="translate(6.521739, 0.000000)" fill="#00B9CB">
                                        <rect id="Rectangle" x="0.724637681" y="2.85714286" width="1.95652174" height="5.71428571" rx="0.97826087"></rect>
                                        <rect id="Rectangle" x="6.52173913" y="2.85714286" width="1.95652174" height="5.71428571" rx="0.97826087"></rect>
                                        <rect id="Rectangle" x="3.62318841" y="-5.61869392e-14" width="1.95652174" height="5.71428571" rx="0.97826087"></rect>
                                    </g>
                                    <path d="M5.32608696,27.1428571 L16.4130435,27.1428571 C16.953322,27.1428571 17.3913043,27.5808395 17.3913043,28.121118 C17.3913043,28.6613966 16.953322,29.0993789 16.4130435,29.0993789 L5.32608696,29.0993789 C4.7858084,29.0993789 4.34782609,28.6613966 4.34782609,28.121118 C4.34782609,27.5808395 4.7858084,27.1428571 5.32608696,27.1428571 Z" id="Rectangle-22" fill="#00B9CB"></path>
                                    <path d="M20,11.3043478 L22.6112119,11.3043478 C24.5308126,11.3043478 26.0869565,12.9033309 26.0869565,14.8757764 C26.0869565,16.8482219 24.5308126,18.447205 22.6112119,18.447205 L20.0869565,18.447205" id="Oval-5" stroke="#00B9CB" stroke-width="1.95652174"></path>
                                </g>
                            </g>
                        </g>
                    </g>
                </g>
            </g>
        </g>
    </g>
</svg>