<?xml version="1.0" encoding="UTF-8"?>
<svg width="101px" height="78px" viewBox="0 0 101 78" version="1.1"
    xmlns="http://www.w3.org/2000/svg"
    xmlns:xlink="http://www.w3.org/1999/xlink">
    <title>Common Questions</title>
    <g id="WEB-DESIGN" stroke="none" stroke-width="1" fill="none" fill-rule="evenodd">
        <g id="Atto-/-Time-Clock" transform="translate(-150.000000, -8960.000000)" fill="#00B9CB">
            <g id="Common-Questions" transform="translate(150.000000, 8960.000000)">
                <path d="M91.852,28.777 L48.879,28.777 C45.8438,28.777 43.4493,31.3317 43.4493,34.2067 L43.4493,64.0777 C43.4493,66.9527 45.8438,69.5074 48.879,69.5074 L65.332,69.5074 L83.543,74.4605 L83.543,69.5074 L91.8516,69.5074 C94.8868,69.5074 97.2813,66.9527 97.2813,64.0777 L97.2813,34.2067 C97.2813,31.3317 94.8868,28.777 91.8516,28.777 L91.852,28.777 Z M40.735,46.031 L34.985,46.031 L13.739,51.9412 L13.739,46.031 L8.149197,46.031 C3.676497,46.031 0.0007963181,42.3552 0.0007963181,37.8826 L0.0007963181,8.1716 C0.0007963181,3.6989 3.676596,0.0232 8.149197,0.0232 L51.1222,0.0232 C55.5949,0.0232 59.2706,3.699 59.2706,8.1716 L59.2706,26.0626 L91.8566,26.0626 C96.3293,26.0626 100.005,29.7384 100.005,34.211 L100.005,64.082 C100.005,68.5547 96.3292,72.2304 91.8566,72.2304 L86.2668,72.2304 L86.2668,77.9804 L65.02079,72.2304 L48.8878,72.2304 C44.4151,72.2304 40.7394,68.5546 40.7394,64.082 L40.7394,46.031 L40.735,46.031 Z M56.551,26.062 L56.551,8.171 C56.551,5.1358 54.1565,2.7413 51.1213,2.7413 L8.148297,2.7413 C5.113097,2.7413 2.718597,5.1358 2.718597,8.171 L2.718597,37.882 C2.718597,40.9172 5.113097,43.3117 8.148297,43.3117 L16.4569,43.3117 L16.4569,48.425 L34.6679,43.3117 L40.7382,43.3117 L40.7382,34.2062 C40.7382,29.7335 44.414,26.0578 48.8866,26.0578 L56.5546,26.0578 L56.551,26.062 Z" id="Fill-1"></path>
                <path d="M21.246,18.074 C21.246,18.87088 20.76553,19.3513 19.9687,19.3513 C19.17187,19.3513 18.5312,18.87083 18.5312,18.074 C18.5312,12.0037 23.4843,7.051 29.5542,7.051 C35.6245,7.051 40.5772,12.0041 40.5772,18.074 C40.5772,23.6638 36.4249,28.297 30.9913,28.937 L30.9913,31.6518 C30.9913,32.44868 30.35067,33.0893 29.5538,33.0893 C28.91317,33.0893 28.2765,32.44868 28.2765,31.6518 L28.2765,27.8198 C28.2765,27.02293 28.75697,26.3823 29.5538,26.3823 C34.1866,26.3823 37.8624,22.7065 37.8624,18.0737 C37.8624,13.4409 34.1866,9.7651 29.5538,9.7651 C25.0811,9.7651 21.2452,13.4409 21.2452,18.0737 L21.246,18.074 Z" id="Fill-2"></path>
                <path d="M29.711,35.484 C30.66803,35.484 31.4688,36.28088 31.4688,37.2418 C31.4688,38.19883 30.67192,38.9996 29.711,38.9996 C28.75397,38.9996 27.9532,38.20272 27.9532,37.2418 C27.9532,36.28477 28.75008,35.484 29.711,35.484 Z" id="Fill-3"></path>
                <path d="M70.289,57.531 C71.24603,57.531 72.0468,58.17162 72.0468,59.1287 C72.0468,60.2459 71.24992,60.8865 70.289,60.8865 C69.33197,60.8865 68.5312,60.24588 68.5312,59.1287 C68.5312,58.17167 69.32808,57.531 70.289,57.531 Z" id="Fill-4"></path>
                <path d="M69.008,37.402 C69.008,36.60512 69.64863,35.9645 70.2853,35.9645 C71.08218,35.9645 71.7228,36.60512 71.7228,37.402 L71.7228,53.218 C71.7228,54.01488 71.08218,54.6555 70.2853,54.6555 C69.64468,54.6555 69.008,54.01488 69.008,53.218 L69.008,37.402 Z" id="Fill-5"></path>
            </g>
        </g>
    </g>
</svg>