<?xml version="1.0" encoding="UTF-8"?>
<svg width="30px" height="26px" viewBox="0 0 30 26" version="1.1" xmlns="http://www.w3.org/2000/svg" xmlns:xlink="http://www.w3.org/1999/xlink">
    <title>E06DB411-835E-41E8-BA5C-D74F88DA3EFASVG</title>
    <g id="WEB-DESIGN" stroke="none" stroke-width="1" fill="none" fill-rule="evenodd">
        <g id="Atto-/-Menu---Industries" transform="translate(-241.000000, -178.000000)" fill="#FFFFFF" stroke="#000000" stroke-width="1.2">
            <g id="Group-97" transform="translate(150.000000, 73.000000)">
                <g id="Group-8" transform="translate(76.000000, 88.000000)">
                    <g id="Construction_industry" transform="translate(15.000000, 17.700000)">
                        <rect id="Rectangle" x="0.6" y="19.4" width="28.8" height="4.8" rx="1.25"></rect>
                        <path d="M15,3.05 C18.6312722,3.05 21.9187722,4.52186389 24.2984542,6.90154583 C26.6781361,9.28122777 28.15,12.5687278 28.15,16.2 C28.15,17.2985221 28.0153961,18.365602 27.7616509,19.3856049 L27.7616509,19.3856049 L2.23312158,19.3645168 C1.98275528,18.3508976 1.85,17.290954 1.85,16.2 C1.85,12.5687278 3.32186389,9.28122777 5.70154583,6.90154583 C8.08122777,4.52186389 11.3687278,3.05 15,3.05 Z" id="Oval"></path>
                        <path d="M17.135849,0.6 L16.200068,19.4 L13.7997925,19.4 L12.2166251,1.30665852 L17.135849,0.6 Z" id="Rectangle"></path>
                        <circle id="Oval" cx="15" cy="12.3" r="3.15"></circle>
                    </g>
                </g>
            </g>
        </g>
    </g>
</svg>