<?xml version="1.0" encoding="UTF-8"?>
<svg width="37px" height="37px" viewBox="0 0 37 37" version="1.1" xmlns="http://www.w3.org/2000/svg" xmlns:xlink="http://www.w3.org/1999/xlink">
    <title>8BBF4D2F-F1AF-4CD1-8B3E-8D93099D3BE8SVG</title>
    <g id="WEB-DESIGN" stroke="none" stroke-width="1" fill="none" fill-rule="evenodd">
        <g id="Atto-/-Menu---Resources" transform="translate(-451.000000, -369.000000)" stroke="#000000" stroke-width="1.2">
            <g id="Group-97" transform="translate(360.000000, 73.000000)">
                <g id="Group-8" transform="translate(76.000000, 88.000000)">
                    <g id="menu-/-industries" transform="translate(0.000000, 200.000000)">
                        <g id="Contact_resources" transform="translate(33.500000, 26.500000) rotate(45.000000) translate(-33.500000, -26.500000) translate(21.000000, 14.000000)">
                            <path d="M12.3735089,1.85659466 C12.7562964,1.91700258 12.8190654,1.97977158 12.8577709,2.05718254 L12.8577709,2.05718254 L23.2668223,22.8752855 C23.3162202,22.9740812 23.3208967,23.0835463 23.2885248,23.180662 C23.2561529,23.2777777 23.1867326,23.3625439 23.0879369,23.4119418 C22.984337,23.4637417 22.8633698,23.4680904 22.7563178,23.4238633 L22.7563178,23.4238633 L12.5,19.186598 L2.24368216,23.4238633 C2.14159443,23.4660395 2.03207605,23.4628437 1.93753554,23.4235819 C1.84299503,23.3843201 1.7634324,23.3089923 1.72125617,23.2069045 C1.67702902,23.0998525 1.68137771,22.9788854 1.73317766,22.8752855 L1.73317766,22.8752855 L12.1422291,2.05718254 C12.191627,1.95838684 12.2763932,1.88896656 12.3735089,1.85659466 Z" id="Rectangle-10" fill="#FFFFFF"></path>
                            <line x1="12.5" y1="19.7146022" x2="12.5" y2="2.15929909" id="Path-20"></line>
                        </g>
                    </g>
                </g>
            </g>
        </g>
    </g>
</svg>