<?xml version="1.0" encoding="UTF-8"?>
<svg width="44px" height="40px" viewBox="0 0 44 40" version="1.1" xmlns="http://www.w3.org/2000/svg" xmlns:xlink="http://www.w3.org/1999/xlink">
    <title>02E3E434-774C-45D6-A197-8598D5E17F9FSVG</title>
    <g id="WEB-DESIGN" stroke="none" stroke-width="1" fill="none" fill-rule="evenodd">
        <g id="Atto-/-Time-card-app" transform="translate(-735.000000, -2620.000000)" fill="#000000">
            <g id="Tracker-for-every-device-Copy" transform="translate(150.000000, 2046.000000)">
                <g id="4-minifeatures" transform="translate(-0.000000, 570.000000)">
                    <g id="Group-3" transform="translate(-0.000000, 0.000000)">
                        <g id="txt-box-4" transform="translate(585.000000, 0.000000)">
                            <g id="Crew-tracking" transform="translate(0.700000, 4.000000)">
                                <g id="Crew-time-tracking" transform="translate(15.776744, 20.284165)" stroke="#000000" stroke-width="0.919105691">
                                    <path d="M1.01512797,9.36140567 L5.83211628,6.28358289 L5.83211628,6.28358289 L10.2418633,9.33121805 C10.4939922,9.50546766 10.8385963,9.45048043 11.0239767,9.20641904 C11.1996365,8.97515536 11.1545606,8.64527872 10.923297,8.46961895 C10.9175656,8.46526561 10.9117455,8.4610304 10.9058403,8.456916 L6.40697674,5.32237852 L6.40697674,5.32237852 L6.40697674,0.552325581 C6.40697674,0.247284586 6.15969216,-5.60351218e-17 5.85465116,0 C5.54961017,-4.85826537e-16 5.30232558,0.247284586 5.30232558,0.552325581 L5.30232558,5.32237852 L5.30232558,5.32237852 L0.43801165,8.48531335 C0.19755045,8.64166903 0.129369453,8.96335266 0.285725132,9.20381386 C0.286290894,9.20468396 0.286859264,9.20555235 0.287430233,9.20641904 C0.446818722,9.44835812 0.770986732,9.51740013 1.01512797,9.36140567 Z" id="Fill-7"></path>
                                </g>
                                <g id="Group-32" transform="translate(16.300000, 0.000000)">
                                    <path d="M5.82858564,8.18923976 C8.08354109,8.18923976 9.91105716,6.35589753 9.91105716,4.09375321 C9.91105716,1.83160889 8.08354109,4.08562073e-14 5.82858564,4.08562073e-14 C3.57363019,4.08562073e-14 1.74611413,1.83334224 1.74611413,4.09375321 C1.74784639,6.35767531 3.57535802,8.18923976 5.82858564,8.18923976 Z M5.83,1.9 C7.04258858,1.9 8.03,2.88605723 8.03,4.1 C8.03,5.31258858 7.04394277,6.3 5.83,6.3 C4.61741142,6.3 3.63,5.31394277 3.63,4.1 C3.63135766,2.88741142 4.61744614,1.9 5.83,1.9 Z" id="Fill-1"></path>
                                    <path d="M10.713968,10.7568078 C10.5097558,9.8835591 9.73096376,9.26546721 8.83625619,9.26546721 L2.82073787,9.26546721 C1.92603031,9.26546721 1.14899264,9.88351466 0.943026037,10.7568078 L0.0361788971,15.0346077 C-0.162840925,15.8905229 0.484396594,16.7099491 1.36009843,16.7099491 L10.2987564,16.7099491 C11.1744578,16.7099491 11.8216864,15.8904785 11.6209476,15.0346077 L10.713968,10.7568078 Z M2.1034139,14.9038564 L2.1090835,14.8811129 L2.84874413,11.3928489 C2.90825505,11.1540427 3.12079821,10.9877244 3.36735175,10.9877244 L8.29261878,10.9877244 C8.53916869,10.9877244 8.75170097,11.1540354 8.8112264,11.3928489 L9.55088703,14.8811129 L9.55655301,14.9038564 C9.559386,14.9138067 9.5636373,14.9365502 9.54379911,14.9621378 C9.52396456,14.9877244 9.49987507,14.9877244 9.48995417,14.9877244 L2.16988578,14.9877244 C2.1599685,14.9877244 2.13729733,14.9877244 2.11604083,14.9621378 C2.0949113,14.9365516 2.10052494,14.9138089 2.1034139,14.9038564 Z" id="Fill-2"></path>
                                </g>
                                <g id="Group-32" transform="translate(31.300000, 23.000000)">
                                    <path d="M5.82858564,8.18923976 C8.08354109,8.18923976 9.91105716,6.35589753 9.91105716,4.09375321 C9.91105716,1.83160889 8.08354109,4.08562073e-14 5.82858564,4.08562073e-14 C3.57363019,4.08562073e-14 1.74611413,1.83334224 1.74611413,4.09375321 C1.74784639,6.35767531 3.57535802,8.18923976 5.82858564,8.18923976 Z M5.83,1.9 C7.04258858,1.9 8.03,2.88605723 8.03,4.1 C8.03,5.31258858 7.04394277,6.3 5.83,6.3 C4.61741142,6.3 3.63,5.31394277 3.63,4.1 C3.63135766,2.88741142 4.61744614,1.9 5.83,1.9 Z" id="Fill-1"></path>
                                    <path d="M10.713968,10.7568078 C10.5097558,9.8835591 9.73096376,9.26546721 8.83625619,9.26546721 L2.82073787,9.26546721 C1.92603031,9.26546721 1.14899264,9.88351466 0.943026037,10.7568078 L0.0361788971,15.0346077 C-0.162840925,15.8905229 0.484396594,16.7099491 1.36009843,16.7099491 L10.2987564,16.7099491 C11.1744578,16.7099491 11.8216864,15.8904785 11.6209476,15.0346077 L10.713968,10.7568078 Z M2.1034139,14.9038564 L2.1090835,14.8811129 L2.84874413,11.3928489 C2.90825505,11.1540427 3.12079821,10.9877244 3.36735175,10.9877244 L8.29261878,10.9877244 C8.53916869,10.9877244 8.75170097,11.1540354 8.8112264,11.3928489 L9.55088703,14.8811129 L9.55655301,14.9038564 C9.559386,14.9138067 9.5636373,14.9365502 9.54379911,14.9621378 C9.52396456,14.9877244 9.49987507,14.9877244 9.48995417,14.9877244 L2.16988578,14.9877244 C2.1599685,14.9877244 2.13729733,14.9877244 2.11604083,14.9621378 C2.0949113,14.9365516 2.10052494,14.9138089 2.1034139,14.9038564 Z" id="Fill-2"></path>
                                </g>
                                <g id="Group-32" transform="translate(0.000000, 23.000000)">
                                    <path d="M5.82858564,8.18923976 C8.08354109,8.18923976 9.91105716,6.35589753 9.91105716,4.09375321 C9.91105716,1.83160889 8.08354109,4.08562073e-14 5.82858564,4.08562073e-14 C3.57363019,4.08562073e-14 1.74611413,1.83334224 1.74611413,4.09375321 C1.74784639,6.35767531 3.57535802,8.18923976 5.82858564,8.18923976 Z M5.83,1.9 C7.04258858,1.9 8.03,2.88605723 8.03,4.1 C8.03,5.31258858 7.04394277,6.3 5.83,6.3 C4.61741142,6.3 3.63,5.31394277 3.63,4.1 C3.63135766,2.88741142 4.61744614,1.9 5.83,1.9 Z" id="Fill-1"></path>
                                    <path d="M10.713968,10.7568078 C10.5097558,9.8835591 9.73096376,9.26546721 8.83625619,9.26546721 L2.82073787,9.26546721 C1.92603031,9.26546721 1.14899264,9.88351466 0.943026037,10.7568078 L0.0361788971,15.0346077 C-0.162840925,15.8905229 0.484396594,16.7099491 1.36009843,16.7099491 L10.2987564,16.7099491 C11.1744578,16.7099491 11.8216864,15.8904785 11.6209476,15.0346077 L10.713968,10.7568078 Z M2.1034139,14.9038564 L2.1090835,14.8811129 L2.84874413,11.3928489 C2.90825505,11.1540427 3.12079821,10.9877244 3.36735175,10.9877244 L8.29261878,10.9877244 C8.53916869,10.9877244 8.75170097,11.1540354 8.8112264,11.3928489 L9.55088703,14.8811129 L9.55655301,14.9038564 C9.559386,14.9138067 9.5636373,14.9365502 9.54379911,14.9621378 C9.52396456,14.9877244 9.49987507,14.9877244 9.48995417,14.9877244 L2.16988578,14.9877244 C2.1599685,14.9877244 2.13729733,14.9877244 2.11604083,14.9621378 C2.0949113,14.9365516 2.10052494,14.9138089 2.1034139,14.9038564 Z" id="Fill-2"></path>
                                </g>
                            </g>
                        </g>
                    </g>
                </g>
            </g>
        </g>
    </g>
</svg>