<?xml version="1.0" encoding="UTF-8"?>
<svg width="40px" height="40px" viewBox="0 0 40 40" version="1.1" xmlns="http://www.w3.org/2000/svg" xmlns:xlink="http://www.w3.org/1999/xlink">
    <title>E20E6B8A-0558-43BA-9E5E-206E98DBFF68Android</title>
    <g id="WEB-DESIGN" stroke="none" stroke-width="1" fill="none" fill-rule="evenodd">
        <g id="Atto-/-Product-/-Time-Tracking" transform="translate(-1090.000000, -7499.000000)" stroke="#00B9CB" stroke-width="2">
            <g id="Group-14" transform="translate(150.000000, 6499.000000)">
                <g id="Group-27" transform="translate(0.000000, 220.000000)">
                    <g id="Group-13" transform="translate(0.000000, 780.000000)">
                        <g id="Single-Feature-Copy-5" transform="translate(780.000000, 0.000000)">
                            <g id="OVAL-/-Grey-Normal" transform="translate(160.000000, 0.000000)">
                                <g id="All_featres_night_shift" transform="translate(5.000000, 5.000000)">
                                    <circle id="Oval" cx="15" cy="15" r="15"></circle>
                                    <path d="M16.905866,7.5107948 C15.1476562,8.75607878 14,10.8065147 14,13.125 C14,16.9219577 17.0780423,20 20.875,20 C21.3290473,20 21.7728143,19.9559845 22.2022668,19.8719877 C20.826681,21.4804727 18.7824022,22.5 16.5,22.5 C12.3578644,22.5 9,19.1421356 9,15 C9,10.8578644 12.3578644,7.5 16.5,7.5 C16.6361667,7.5 16.7714858,7.50362874 16.905866,7.5107948 Z" id="Path" stroke-linejoin="round"></path>
                                </g>
                            </g>
                        </g>
                    </g>
                </g>
            </g>
        </g>
    </g>
</svg>