<?xml version="1.0" encoding="UTF-8"?>
<svg width="24px" height="23px" viewBox="0 0 24 23" version="1.1" xmlns="http://www.w3.org/2000/svg" xmlns:xlink="http://www.w3.org/1999/xlink">
    <title>E1D289A0-3636-464E-B63C-52F8470440CBAndroid</title>
    <g id="WEB-DESIGN" stroke="none" stroke-width="1" fill="none" fill-rule="evenodd">
        <g id="Atto-/-Product-/-Team-Activity" transform="translate(-318.000000, -5161.000000)" fill="#00B9CB">
            <g id="Group-14" transform="translate(150.000000, 4672.000000)">
                <g id="Group-38" transform="translate(0.000000, 480.000000)">
                    <g id="Group" transform="translate(160.000000, 0.000000)">
                        <g id="Filter-and-Search" transform="translate(8.000000, 9.000000)">
                            <path d="M13.3333333,17.5882353 C14.4522528,17.5882353 15.410216,18.2875053 15.8059421,19.2788632 L23.1,19.2794118 C23.5970563,19.2794118 24,19.7337111 24,20.2941176 C24,20.8545242 23.5970563,21.3088235 23.1,21.3088235 L15.8062458,21.3086109 C15.4107064,22.300372 14.4525392,23 13.3333333,23 C12.2141275,23 11.2559603,22.300372 10.8604209,21.3086109 L0.9,21.3088235 C0.402943725,21.3088235 0,20.8545242 0,20.2941176 C0,19.7337111 0.402943725,19.2794118 0.9,19.2794118 L10.8607246,19.2788632 C11.2564507,18.2875053 12.2144139,17.5882353 13.3333333,17.5882353 Z M6.66666667,8.79411765 C7.78558613,8.79411765 8.74354934,9.49338763 9.1392754,10.4847455 L23.1,10.4852941 C23.5970563,10.4852941 24,10.9395934 24,11.5 C24,12.0604066 23.5970563,12.5147059 23.1,12.5147059 L9.1392754,12.5152545 C8.74354934,13.5066124 7.78558613,14.2058824 6.66666667,14.2058824 C5.5477472,14.2058824 4.58978399,13.5066124 4.19405794,12.5152545 L0.9,12.5147059 C0.402943725,12.5147059 0,12.0604066 0,11.5 C0,10.9395934 0.402943725,10.4852941 0.9,10.4852941 L4.19405794,10.4847455 C4.58978399,9.49338763 5.5477472,8.79411765 6.66666667,8.79411765 Z M18.6666667,0 C19.7858725,0 20.7440397,0.699627991 21.1395791,1.69138914 L23.1,1.69117647 C23.5970563,1.69117647 24,2.14547577 24,2.70588235 C24,3.26628894 23.5970563,3.72058824 23.1,3.72058824 L21.1392754,3.72113684 C20.7435493,4.71249472 19.7855861,5.41176471 18.6666667,5.41176471 C17.5477472,5.41176471 16.589784,4.71249472 16.1940579,3.72113684 L0.9,3.72058824 C0.402943725,3.72058824 0,3.26628894 0,2.70588235 C0,2.14547577 0.402943725,1.69117647 0.9,1.69117647 L16.1937542,1.69138914 C16.5892936,0.699627991 17.5474608,0 18.6666667,0 Z" id="Filter---Black"></path>
                        </g>
                    </g>
                </g>
            </g>
        </g>
    </g>
</svg>