<?xml version="1.0" encoding="UTF-8"?>
<svg width="28px" height="28px" viewBox="0 0 28 28" version="1.1"
    xmlns="http://www.w3.org/2000/svg"
    xmlns:xlink="http://www.w3.org/1999/xlink">

    <g id="WEB-DESIGN" stroke="none" stroke-width="1" fill="none" fill-rule="evenodd">
        <g id="Atto-/-Product-/-Time-Tracking" transform="translate(-703.000000, -6725.000000)">
            <g id="Group-14" transform="translate(150.000000, 6499.000000)">
                <g id="Group-27" transform="translate(0.000000, 220.000000)">
                    <g id="Single-Feature" transform="translate(390.000000, 0.000000)">
                        <g id="OVAL-/-Grey-Normal" transform="translate(160.000000, 0.000000)">
                            <g id="All_featres_Named-Locations" transform="translate(3.000000, 6.000000)">
                                <path d="M23.7748603,-0.869220266 L23.8806209,-0.85840874 C24.055042,-0.826982331 24.2174743,-0.729016514 24.3265756,-0.571960156 L24.3265756,-0.571960156 L24.4503376,16.4396424 C24.4503376,16.6308747 24.3728254,16.804003 24.2475051,16.9293233 C24.1221848,17.0546435 23.9490565,17.1321557 23.7578242,17.1321557 L23.7578242,17.1321557 L10.7893156,17.1321557 C10.5980833,17.1321557 10.4249549,17.0546435 10.2996347,16.9293233 C10.1743144,16.804003 10.0968022,16.6308747 10.0968022,16.4396424 L10.0968022,16.4396424 L10.0968022,-0.176869495 C10.0968022,-0.368101781 10.1743144,-0.541230123 10.2996347,-0.666550394 C10.4249549,-0.791870665 10.5980833,-0.869382864 10.7893156,-0.869382864 L10.7893156,-0.869382864 L17.2735699,3.48429708 L23.3627335,-0.745620878 C23.5197899,-0.854722152 23.7061998,-0.88983515 23.8806209,-0.85840874 Z" id="Rectangle-20" stroke="#00B9CB" stroke-width="1.90909091" transform="translate(17.273570, 8.131313) rotate(-270.000000) translate(-17.273570, -8.131313) "></path>
                                <path d="M8.96524064,0 L9.22727273,0 L9.22727273,0 L9.22727273,26.6919192 C9.22727273,27.2191001 8.79990817,27.6464646 8.27272727,27.6464646 C7.74554638,27.6464646 7.31818182,27.2191001 7.31818182,26.6919192 L7.31818182,1.64705882 C7.31818182,0.737413353 8.05559517,1.27732219e-15 8.96524064,0 Z" id="Rectangle" fill="#00B9CB"></path>
                                <path d="M8.27272727,27.997686 C7.21836548,27.997686 6.36363636,27.1434749 6.36363636,26.0897521 C6.36363636,25.0360293 7.21836548,24.1818182 8.27272727,24.1818182 C9.32708907,24.1818182 10.1818182,25.0360293 10.1818182,26.0897521 C10.1818182,27.1434749 9.32708907,27.997686 8.27272727,27.997686 Z" id="Combined-Shape" fill="#00B9CB"></path>
                                <path d="M14.9545455,27.0442975 C14.4273646,27.0442975 14,26.617192 14,26.0903306 C14,25.5634692 14.4273646,25.1363636 14.9545455,25.1363636 C15.4817264,25.1363636 15.9090909,25.5634692 15.9090909,26.0903306 C15.9090909,26.617192 15.4817264,27.0442975 14.9545455,27.0442975 Z" id="Combined-Shape" fill="#00B9CB"></path>
                                <path d="M1.59090909,27.0442975 C1.06372819,27.0442975 0.636363636,26.617192 0.636363636,26.0903306 C0.636363636,25.5634692 1.06372819,25.1363636 1.59090909,25.1363636 C2.11808999,25.1363636 2.54545455,25.5634692 2.54545455,26.0903306 C2.54545455,26.617192 2.11808999,27.0442975 1.59090909,27.0442975 Z" id="Combined-Shape" fill="#00B9CB"></path>
                            </g>
                        </g>
                    </g>
                </g>
            </g>
        </g>
    </g>
</svg>