<?xml version="1.0" encoding="UTF-8"?>
<svg width="32px" height="28px" viewBox="0 0 32 28" version="1.1" xmlns="http://www.w3.org/2000/svg" xmlns:xlink="http://www.w3.org/1999/xlink">
    <title>7B29A0A9-DD54-463B-B182-71B7F91B84E1SVG</title>
    <g id="WEB-DESIGN" stroke="none" stroke-width="1" fill="none" fill-rule="evenodd">
        <g id="Atto-/-Menu---Resources" transform="translate(-450.000000, -177.000000)">
            <g id="Group-97" transform="translate(360.000000, 73.000000)">
                <g id="Group-8" transform="translate(76.000000, 88.000000)">
                    <g id="Help_center_resources" transform="translate(14.000000, 16.500000)">
                        <g id="Group-4" transform="translate(12.972973, 7.838710)">
                            <path d="M17.2972973,0.6 C17.6092635,0.6 17.891696,0.726449307 18.0961369,0.930890177 C18.3005777,1.13533105 18.427027,1.41776348 18.427027,1.72972973 L18.427027,1.72972973 L18.427027,12.2057541 C18.427027,12.5177204 18.3005777,12.8001528 18.0961369,13.0045937 C17.891696,13.2090346 17.6092635,13.3354839 17.2972973,13.3354839 L17.2972973,13.3354839 L14.1027027,13.3354839 L14.1027027,17.062896 L9.76327826,13.3354839 L1.72972973,13.3354839 C1.41776348,13.3354839 1.13533105,13.2090346 0.930890177,13.0045937 C0.726449307,12.8001528 0.6,12.5177204 0.6,12.2057541 L0.6,12.2057541 L0.6,1.72972973 C0.6,1.41776348 0.726449307,1.13533105 0.930890177,0.930890177 C1.13533105,0.726449307 1.41776348,0.6 1.72972973,0.6 L1.72972973,0.6 Z" id="Rectangle-10" stroke="#000000" stroke-width="1.2" fill="#FFFFFF"></path>
                            <g id="Group" transform="translate(6.054054, 3.483871)" fill="#000000" fill-rule="nonzero">
                                <polygon id="!" transform="translate(3.459459, 3.483871) rotate(-45.000000) translate(-3.459459, -3.483871) " points="6.52485893 5.32377822 6.52476804 3.81841693 1.59501705 3.96942998 1.66699788 1.66540004 0.394059987 1.64396371 0.572775795 4.97264551"></polygon>
                            </g>
                        </g>
                        <g id="Group-3">
                            <path d="M17.2972973,0.6 C17.6092635,0.6 17.891696,0.726449307 18.0961369,0.930890177 C18.3005777,1.13533105 18.427027,1.41776348 18.427027,1.72972973 L18.427027,1.72972973 L18.427027,12.2057541 C18.427027,12.5177204 18.3005777,12.8001528 18.0961369,13.0045937 C17.891696,13.2090346 17.6092635,13.3354839 17.2972973,13.3354839 L17.2972973,13.3354839 L14.1027027,13.3354839 L14.1027027,17.062896 L9.76327826,13.3354839 L1.72972973,13.3354839 C1.41776348,13.3354839 1.13533105,13.2090346 0.930890177,13.0045937 C0.726449307,12.8001528 0.6,12.5177204 0.6,12.2057541 L0.6,12.2057541 L0.6,1.72972973 C0.6,1.41776348 0.726449307,1.13533105 0.930890177,0.930890177 C1.13533105,0.726449307 1.41776348,0.6 1.72972973,0.6 L1.72972973,0.6 Z" id="Rectangle-10" stroke="#000000" stroke-width="1.2" fill="#FFFFFF" transform="translate(9.513514, 9.580645) scale(-1, 1) translate(-9.513514, -9.580645) "></path>
                            <path d="M9.76007587,8.30463393 L9.8074917,7.54921541 C10.9454718,7.4299388 11.6756757,6.72421886 11.6756757,5.62091022 C11.6756757,4.34862639 10.7273589,3.48387097 9.48506401,3.48387097 C8.21431958,3.48387097 7.44618303,4.25916893 7.35135135,5.42211587 L8.45139877,5.42211587 C8.52726411,4.86549169 8.96348981,4.50766187 9.53247985,4.50766187 C10.1773352,4.50766187 10.6135609,4.96488887 10.6135609,5.63084994 C10.6135609,6.31669044 10.1014699,6.76397773 9.43764817,6.76397773 L8.82124229,6.76397773 L8.9065908,8.30463393 L9.76007587,8.30463393 Z M9.30488383,10.4516129 C9.68421053,10.4516129 9.98767188,10.1534214 9.98767188,9.7657724 C9.98767188,9.37812342 9.68421053,9.07993189 9.30488383,9.07993189 C8.94452347,9.07993189 8.63157895,9.37812342 8.63157895,9.7657724 C8.63157895,10.1534214 8.94452347,10.4516129 9.30488383,10.4516129 Z" id="?" fill="#000000" fill-rule="nonzero"></path>
                        </g>
                    </g>
                </g>
            </g>
        </g>
    </g>
</svg>