<?xml version="1.0" encoding="UTF-8"?>
<svg width="40px" height="40px" viewBox="0 0 40 40" version="1.1" xmlns="http://www.w3.org/2000/svg" xmlns:xlink="http://www.w3.org/1999/xlink">
    <title>3429C9F3-56F3-429F-AA75-277EC13B2DC3SVG</title>
    <g id="WEB-DESIGN" stroke="none" stroke-width="1" fill="none" fill-rule="evenodd">
        <g id="Atto-/-All-features" transform="translate(-231.000000, -2580.000000)" stroke="#00B9CB" stroke-width="1.7">
            <g id="Group-10" transform="translate(150.000000, 2182.000000)">
                <g id="Group-9" transform="translate(0.000000, 98.000000)">
                    <g id="Group" transform="translate(81.000000, 300.000000)">
                        <g id="Group" transform="translate(9.000000, 5.000000)">
                            <path d="M11,1.0982518 L21.15,9.40279726 L21.15,24 C21.15,25.4221332 20.5735666,26.7096332 19.6415999,27.6415999 C18.7096332,28.5735666 17.4221332,29.15 16,29.15 L16,29.15 L6,29.15 C4.57786677,29.15 3.29036677,28.5735666 2.35840008,27.6415999 C1.42643338,26.7096332 0.85,25.4221332 0.85,24 L0.85,24 L0.85,9.40279726 L11,1.0982518 Z" id="Rectangle"></path>
                            <circle id="Oval" cx="11" cy="10" r="2.15"></circle>
                            <line x1="4.5" y1="18.5" x2="17.5" y2="18.5" id="Line-2" stroke-linecap="round" stroke-linejoin="round"></line>
                            <line x1="4.5" y1="22.5" x2="17.5" y2="22.5" id="Line-2" stroke-linecap="round" stroke-linejoin="round"></line>
                        </g>
                    </g>
                </g>
            </g>
        </g>
    </g>
</svg>