<?xml version="1.0" encoding="UTF-8"?>
<svg width="26px" height="38px" viewBox="0 0 26 38" version="1.1" xmlns="http://www.w3.org/2000/svg" xmlns:xlink="http://www.w3.org/1999/xlink">
    <title>DBE57D9C-8C52-4B61-A4F9-F5F6C196EA82SVG</title>
    <g id="WEB-DESIGN" stroke="none" stroke-width="1" fill="none" fill-rule="evenodd">
        <g id="Atto-/-Pricing" transform="translate(-546.000000, -4125.000000)">
            <g id="Group-8" transform="translate(150.000000, 3319.000000)">
                <g id="Group-24" transform="translate(-0.000000, 220.000000)">
                    <g id="Group-12" transform="translate(-0.000000, 580.000000)">
                        <g id="Featureset" transform="translate(395.000000, 0.000000)">
                            <g id="Tender-profitable-bids" transform="translate(1.000000, 6.000000)">
                                <path d="M20.0177943,1.95065176 C20.6812252,1.50094088 21.4641305,1.3627126 22.1936058,1.50276976 C22.9230811,1.64282693 23.5991265,2.06116955 24.0488373,2.72460046 C24.3746298,3.20522213 24.5487805,3.77251185 24.5487805,4.35314763 L24.5487805,4.35314763 L24.5487805,31.8081301 C24.5487805,33.1172245 24.0181651,34.3023871 23.1602761,35.1602761 C22.3023871,36.0181651 21.1172245,36.5487805 19.8081301,36.5487805 L19.8081301,36.5487805 L6.19186992,36.5487805 C4.88277546,36.5487805 3.69761286,36.0181651 2.83972387,35.1602761 C1.98183488,34.3023871 1.45121951,33.1172245 1.45121951,31.8081301 L1.45121951,31.8081301 L1.45121951,4.35314763 C1.45121951,3.55166123 1.77608607,2.82605147 2.30132422,2.30081332 C2.82656238,1.77557516 3.55217213,1.45070861 4.35365854,1.45070861 C4.93429432,1.45070861 5.50158404,1.6248593 5.98220571,1.95065176 L5.98220571,1.95065176 L13,6.70770845 Z" id="Rectangle-20" stroke="#262626" stroke-width="2.90243902" transform="translate(13.000000, 19.000000) rotate(-180.000000) translate(-13.000000, -19.000000) "></path>
                                <rect id="Rectangle-25" fill="#262626" x="0.166666667" y="11.0833333" width="24" height="2.5"></rect>
                            </g>
                        </g>
                    </g>
                </g>
            </g>
        </g>
    </g>
</svg>