<?xml version="1.0" encoding="UTF-8"?>
<svg width="41px" height="33px" viewBox="0 0 41 33" version="1.1" xmlns="http://www.w3.org/2000/svg" xmlns:xlink="http://www.w3.org/1999/xlink">
    <title>0001171D-2822-452B-BDD6-7DB6D04C5531SVG</title>
    <g id="WEB-DESIGN" stroke="none" stroke-width="1" fill="none" fill-rule="evenodd">
        <g id="Atto-/-Product-/-Time-Tracking" transform="translate(-936.000000, -4564.000000)">
            <g id="Group-15" transform="translate(150.000000, 3829.000000)">
                <g id="Group-3" transform="translate(20.000000, 726.000000)">
                    <g id="Group-53" transform="translate(762.000000, 0.000000)">
                        <g id="Kiosk-time-tracking" transform="translate(4.000000, 9.000000)">
                            <rect id="Rectangle" stroke="#000000" stroke-width="2.17682927" x="1.08841463" y="1.08841463" width="38.8231707" height="27.8231707" rx="2.90243902"></rect>
                            <rect id="Rectangle" stroke="#FFFFFF" stroke-width="1.45121951" x="6.72560976" y="4.72560976" width="29.5487805" height="20.5487805" rx="1.45121951"></rect>
                            <g id="Group-32" transform="translate(24.000000, 8.000000)" fill="#000000">
                                <path d="M4.99977813,6.86114337 C6.93408564,6.86114337 8.50173437,5.32512485 8.50173437,3.42984557 C8.50173437,1.53456628 6.93408564,3.42303198e-14 4.99977813,3.42303198e-14 C3.06547062,3.42303198e-14 1.4978219,1.53601852 1.4978219,3.42984557 C1.49930784,5.32661432 3.06695277,6.86114337 4.99977813,6.86114337 Z M5.00099138,1.59186601 C6.04115348,1.59186601 6.88815793,2.41800863 6.88815793,3.43507928 C6.88815793,4.45101535 6.0423151,5.27829255 5.00099138,5.27829255 C3.96082928,5.27829255 3.11382482,4.45214992 3.11382482,3.43507928 C3.11498942,2.4191432 3.96085906,1.59186601 5.00099138,1.59186601 Z" id="Fill-1"></path>
                                <path d="M9.19047371,9.01231403 C9.01529989,8.28068514 8.34724971,7.76283278 7.5797669,7.76283278 L2.41963735,7.76283278 C1.65215454,7.76283278 0.985609307,8.2806479 0.808930545,9.01231403 L0.0310343657,12.5963584 C-0.139685431,13.3134649 0.415516842,14 1.16669649,14 L8.83430392,14 C9.58548318,14 10.1406779,13.3134277 9.96848352,12.5963584 L9.19047371,9.01231403 Z M1.80431471,12.4868118 L1.80917812,12.4677567 L2.44366121,9.54520469 C2.49470985,9.34512705 2.67703,9.20578156 2.88852437,9.20578156 L7.1134331,9.20578156 C7.32492436,9.20578156 7.50723517,9.34512095 7.55829627,9.54520469 L8.19277936,12.4677567 L8.19763965,12.4868118 C8.2000698,12.4951484 8.20371657,12.5142034 8.18669932,12.5356414 C8.16968518,12.5570784 8.14902115,12.5570784 8.14051097,12.5570784 L1.86133449,12.5570784 C1.85282742,12.5570784 1.83338002,12.5570784 1.81514613,12.5356414 C1.79702116,12.5142046 1.80183656,12.4951502 1.80431471,12.4868118 Z" id="Fill-2"></path>
                            </g>
                            <g id="Group-2" transform="translate(8.000000, 10.000000)" fill="#000000">
                                <circle id="Oval" cx="1" cy="1" r="1"></circle>
                                <circle id="Oval" cx="5" cy="1" r="1"></circle>
                                <circle id="Oval" cx="9" cy="1" r="1"></circle>
                                <circle id="Oval" cx="1" cy="5" r="1"></circle>
                                <circle id="Oval" cx="5" cy="5" r="1"></circle>
                                <circle id="Oval" cx="9" cy="5" r="1"></circle>
                                <circle id="Oval" cx="1" cy="9" r="1"></circle>
                                <circle id="Oval" cx="5" cy="9" r="1"></circle>
                                <circle id="Oval" cx="9" cy="9" r="1"></circle>
                            </g>
                            <g id="Group-4" transform="translate(20.500000, 31.000000) rotate(-90.000000) translate(-20.500000, -31.000000) translate(19.000000, 29.500000)" fill="#000000">
                                <path d="M0,0 L1.5,0 C2.32842712,-1.52179594e-16 3,0.671572875 3,1.5 C3,2.32842712 2.32842712,3 1.5,3 L0,3 L0,3 L0,0 Z" id="Rectangle" transform="translate(1.500000, 1.500000) scale(-1, 1) translate(-1.500000, -1.500000) "></path>
                            </g>
                        </g>
                    </g>
                </g>
            </g>
        </g>
    </g>
</svg>