<?xml version="1.0" encoding="UTF-8"?>
<svg width="26px" height="30px" viewBox="0 0 26 30" version="1.1" xmlns="http://www.w3.org/2000/svg" xmlns:xlink="http://www.w3.org/1999/xlink">
    <title>986155D4-D3F3-428B-B9AB-83097442BFF8SVG</title>
    <g id="WEB-DESIGN" stroke="none" stroke-width="1" fill="none" fill-rule="evenodd">
        <g id="Atto-/-Menu---Product" transform="translate(-579.000000, -318.000000)" stroke="#000000" stroke-width="1.2">
            <g id="Group-97" transform="translate(150.000000, 73.000000)">
                <g id="Group-4" transform="translate(76.000000, 230.000000)">
                    <g id="Group-8" transform="translate(336.000000, 0.000000)">
                        <g id="Location-Pin---Grey" transform="translate(17.000000, 15.000000)">
                            <path d="M13,0.6 C16.1741457,0.6 19.3485749,1.79708613 21.7704745,4.19237151 C24.1897707,6.58508205 25.4,9.72096305 25.4,12.8571429 C25.4,15.9933227 24.1897707,19.1292037 21.7704745,21.5219142 C18.5556809,24.7013804 15.632645,27.2786661 12.9998154,29.2523542 C10.367355,27.2786661 7.44431907,24.7013804 4.22952547,21.5219142 C1.81022926,19.1292037 0.6,15.9933227 0.6,12.8571429 C0.6,9.72096305 1.81022926,6.58508205 4.22952547,4.19237151 C6.65142514,1.79708613 9.82585435,0.6 13,0.6 Z" id="Oval-11" fill="#FFFFFF"></path>
                            <ellipse id="Oval-12" fill="#E5F8F9" cx="13" cy="12.8571429" rx="4.31428571" ry="4.27346939"></ellipse>
                        </g>
                    </g>
                </g>
            </g>
        </g>
    </g>
</svg>