<?xml version="1.0" encoding="UTF-8"?>
<svg width="33px" height="38px" viewBox="0 0 33 38" version="1.1" xmlns="http://www.w3.org/2000/svg" xmlns:xlink="http://www.w3.org/1999/xlink">
    <title>6C38CD7E-A274-48DE-8CE7-E6D23CCBEAF6SVG</title>
    <g id="WEB-DESIGN" stroke="none" stroke-width="1" fill="none" fill-rule="evenodd">
        <g id="Atto-/-Pricing" transform="translate(-546.000000, -3545.000000)" stroke="#000000" stroke-width="2.90243902">
            <g id="Group-8" transform="translate(150.000000, 3319.000000)">
                <g id="Group-24" transform="translate(-0.000000, 220.000000)">
                    <g id="Featureset" transform="translate(395.000000, 0.000000)">
                        <g id="Location-Pin---Grey" transform="translate(1.000000, 6.000000)">
                            <path d="M16.5,1.45121951 C20.3533504,1.45121951 24.2075082,2.900698 27.1478235,5.80282735 C30.0806818,8.69759664 31.5487805,12.4912259 31.5487805,16.2857143 C31.5487805,20.0802026 30.0806818,23.8738319 27.1478235,26.7686012 C23.2603694,30.6055688 19.7118845,33.7464408 16.4995053,36.187709 C13.2876434,33.7460229 9.73937192,30.6053136 5.85217652,26.7686012 C2.91931816,23.8738319 1.45121951,20.0802026 1.45121951,16.2857143 C1.45121951,12.4912259 2.91931816,8.69759664 5.85217652,5.80282735 C8.79249178,2.900698 12.6466496,1.45121951 16.5,1.45121951 Z" id="Oval-11"></path>
                            <ellipse id="Oval-12" cx="16.5" cy="16.2857143" rx="6.16550523" ry="6.10428074"></ellipse>
                        </g>
                    </g>
                </g>
            </g>
        </g>
    </g>
</svg>