<?xml version="1.0" encoding="UTF-8"?>
<svg width="40px" height="40px" viewBox="0 0 40 40" version="1.1" xmlns="http://www.w3.org/2000/svg" xmlns:xlink="http://www.w3.org/1999/xlink">
    <title>338D34A2-E24E-4092-A0C5-534A6F566246SVG</title>
    <g id="WEB-DESIGN" stroke="none" stroke-width="1" fill="none" fill-rule="evenodd">
        <g id="Atto-/-All-features" transform="translate(-761.000000, -2800.000000)">
            <g id="Group-10" transform="translate(150.000000, 2182.000000)">
                <g id="Group-9" transform="translate(0.000000, 98.000000)">
                    <g id="Group" transform="translate(81.000000, 520.000000)">
                        <g id="all-features-/-bulletpoint" transform="translate(530.000000, 0.000000)">
                            <g id="View-Map---Black" transform="translate(10.000000, 8.000000)">
                                <rect id="Rectangle-26" fill="#00B9CB" x="2" y="25.6470588" width="16" height="1.5" rx="0.75"></rect>
                                <g id="Location-Tracking-2" stroke="#00B9CB" stroke-width="1.7">
                                    <g id="Location-Tracking">
                                        <path d="M10,0.85 C12.3427655,0.85 14.6859604,1.73245817 16.473594,3.4990608 C18.2572759,5.26175825 19.15,7.57182849 19.15,9.88235294 C19.15,12.1928774 18.2572759,14.5029476 16.473594,16.2656451 C14.1095606,18.6018663 11.9522376,20.5129783 9.99986331,21.9971955 C8.04776236,20.5129783 5.8904394,18.6018663 3.52640604,16.2656451 C1.74272409,14.5029476 0.85,12.1928774 0.85,9.88235294 C0.85,7.57182849 1.74272409,5.26175825 3.52640604,3.4990608 C5.31403965,1.73245817 7.65723454,0.85 10,0.85 Z" id="Oval-11"></path>
                                        <ellipse id="Oval-12" cx="10" cy="9.88235294" rx="3.70714286" ry="3.67352941"></ellipse>
                                    </g>
                                </g>
                            </g>
                        </g>
                    </g>
                </g>
            </g>
        </g>
    </g>
</svg>