<?xml version="1.0" encoding="UTF-8"?>
<svg width="30px" height="30px" viewBox="0 0 30 30" version="1.1" xmlns="http://www.w3.org/2000/svg" xmlns:xlink="http://www.w3.org/1999/xlink">
    <title>3F1C59EA-2A43-4E71-8DB8-4D725ABC7A1ESVG</title>
    <g id="WEB-DESIGN" stroke="none" stroke-width="1" fill="none" fill-rule="evenodd">
        <g id="Atto-/-Product-/-Team-Activity" transform="translate(-1095.000000, -5159.000000)">
            <g id="Group-14" transform="translate(150.000000, 4672.000000)">
                <g id="Group-38" transform="translate(0.000000, 480.000000)">
                    <g id="Single-Feature" transform="translate(780.000000, 0.000000)">
                        <g id="Group" transform="translate(160.000000, 0.000000)">
                            <g id="Help-Support" transform="translate(20.000000, 22.000000) scale(-1, 1) translate(-20.000000, -22.000000) translate(5.000000, 7.000000)">
                                <g id="Group" transform="translate(15.000000, 15.000000) scale(-1, 1) translate(-15.000000, -15.000000) ">
                                    <path d="M26.4177146,1.07142857 C27.1110686,1.07142857 27.7387828,1.35246579 28.1931585,1.80684151 C28.6475342,2.26121723 28.9285714,2.88893143 28.9285714,3.5822854 L28.9285714,3.5822854 L28.9285714,25.0301623 C28.9285714,25.393776 28.7811879,25.7229664 28.5429009,25.9612534 C28.3046139,26.1995404 27.9754234,26.346924 27.6118097,26.346924 C27.3127461,26.346924 27.022591,26.2451198 26.7890883,26.0582628 L26.7890883,26.0582628 L18.3794385,19.3285714 L3.5822854,19.3285714 C2.88893143,19.3285714 2.26121723,19.0475342 1.80684151,18.5931585 C1.35246579,18.1387828 1.07142857,17.5110686 1.07142857,16.8177146 L1.07142857,16.8177146 L1.07142857,3.5822854 C1.07142857,2.88893143 1.35246579,2.26121723 1.80684151,1.80684151 C2.26121723,1.35246579 2.88893143,1.07142857 3.5822854,1.07142857 L3.5822854,1.07142857 Z" id="Rectangle" stroke="#00B9CB" stroke-width="2.14285714"></path>
                                    <path d="M10.232002,9.92032738 C10.232002,11.9474306 7.2,11.9474306 7.2,9.92032738 C7.2,7.89322421 10.232002,7.89322421 10.232002,9.92032738" id="Fill-5" fill="#00B9CB"></path>
                                    <path d="M16.1300276,9.92032738 C16.1300276,11.9474306 13.1000991,11.9474306 13.1000991,9.92032738 C13.1000991,7.89322421 16.1300276,7.89322421 16.1300276,9.92032738" id="Fill-6" fill="#00B9CB"></path>
                                    <path d="M22.0296482,9.92032738 C22.0296482,11.9474306 18.9976462,11.9474306 18.9976462,9.92032738 C18.9976462,7.89322421 22.0296482,7.89322421 22.0296482,9.92032738" id="Fill-7" fill="#00B9CB"></path>
                                </g>
                            </g>
                        </g>
                    </g>
                </g>
            </g>
        </g>
    </g>
</svg>