<?xml version="1.0" encoding="UTF-8"?>
<svg width="38px" height="41px" viewBox="0 0 38 41" version="1.1" xmlns="http://www.w3.org/2000/svg" xmlns:xlink="http://www.w3.org/1999/xlink">
    <title>8553596B-B47A-4386-A2A0-969FCD4FE2F6SVG</title>
    <g id="WEB-DESIGN" stroke="none" stroke-width="1" fill="none" fill-rule="evenodd">
        <g id="Atto-/-Pricing" transform="translate(-150.000000, -4123.000000)">
            <g id="Group-8" transform="translate(150.000000, 3319.000000)">
                <g id="Group-24" transform="translate(-0.000000, 220.000000)">
                    <g id="Group-12" transform="translate(-0.000000, 580.000000)">
                        <g id="Featureset" transform="translate(-0.000000, 0.000000)">
                            <g id="Group-31" transform="translate(-0.000000, 0.000000)">
                                <g id="Group-30" transform="translate(-0.000000, 0.000000)">
                                    <g id="Activity-Hoover" transform="translate(-0.000000, 0.000000)">
                                        <g id="Mobile-time-tracking" transform="translate(-0.000000, 5.000000)">
                                            <g id="Group" transform="translate(7.600000, 0.000000)">
                                                <path d="M19.4228984,0 L1.76130143,0 C0.787319849,0 0,0.765748911 0,1.71645925 L0,37.413584 C0,38.3627683 0.785753962,39.1285172 1.76130143,39.1285172 L19.4228984,39.1285172 C20.3984459,39.1285172 21.1888975,38.3627683 21.1888975,37.413584 L21.1888975,1.71645925 C21.1888975,0.765748911 20.3968398,0 19.4228984,0 Z M19.9530113,37.4137014 C19.9530113,37.6980106 19.714595,37.9242137 19.4228984,37.9242137 L1.76130143,37.9242137 C1.46956468,37.9242137 1.23745208,37.6980106 1.23745208,37.4137014 L1.23745208,33.349402 L19.9530113,33.349402 L19.9530113,37.4137014 Z M1.23745208,1.71657663 C1.23745208,1.43226741 1.46956468,1.2045383 1.76130143,1.2045383 L19.4228984,1.2045383 C19.7146352,1.2045383 19.9530113,1.43074139 19.9530113,1.71657663 L19.9530113,5.73196515 L1.23745208,5.73196515 L1.23588619,1.71657663 L1.23745208,1.71657663 Z M19.9530113,6.93634693 L19.9530113,32.1454115 L1.23745208,32.1454115 L1.23745208,6.93634693 L19.9530113,6.93634693 Z" id="Fill-46" stroke="#000000" stroke-width="0.725609756" fill="#000000"></path>
                                                <ellipse id="Oval" stroke="#000000" stroke-width="2.17682927" cx="10.4992054" cy="19.4483943" rx="3.9509836" ry="3.91158537"></ellipse>
                                                <path d="M10.5896909,37.1879287 C11.3409552,37.1879287 11.9510488,36.5948939 11.9510488,35.8627566 C11.9510488,35.1351973 11.3425211,34.5421625 10.5896909,34.5421625 C9.84312423,34.5421625 9.23459653,35.1351973 9.23459653,35.8627566 C9.23459653,36.5948939 9.84312423,37.1879287 10.5896909,37.1879287 Z" id="Fill-47" fill="#000000"></path>
                                                <path d="M12.4205739,3.13029703 L8.76619562,3.13029703 C8.42427019,3.13029703 8.14823245,3.40083295 8.14823245,3.73252705 C8.14823245,4.06574717 8.42583608,4.33475707 8.76619562,4.33475707 L12.4205739,4.33475707 C12.7624592,4.33475707 13.0385371,4.06574717 13.0385371,3.73252705 C13.0385371,3.40083295 12.7609334,3.13029703 12.4205739,3.13029703 Z" id="Fill-48" fill="#000000"></path>
                                            </g>
                                            <path d="M37.208175,12.087119 L36.614425,12.087119 L36.614425,11.494319 C36.614425,11.296719 36.4567092,11.099119 36.2185917,11.099119 C36.020675,11.099119 35.8227583,11.2565825 35.8227583,11.494319 L35.8227583,12.087119 L35.2290083,12.087119 C35.0310917,12.087119 34.833175,12.2445825 34.833175,12.482319 C34.833175,12.679919 34.9908908,12.877519 35.2290083,12.877519 L35.8227583,12.877519 L35.8227583,13.470319 C35.8227583,13.667919 35.9804742,13.865519 36.2185917,13.865519 C36.4165083,13.865519 36.614425,13.7080556 36.614425,13.470319 L36.614425,12.877519 L37.208175,12.877519 C37.4060917,12.877519 37.6040083,12.7200556 37.6040083,12.482319 C37.5653552,12.2445825 37.4060917,12.087119 37.208175,12.087119 Z" id="Fill-5" fill="#000000"></path>
                                            <path d="M4.98813333,27.3809638 L4.39438333,27.3809638 L4.39438333,26.7881638 C4.39438333,26.5905638 4.2366675,26.3929638 3.99855,26.3929638 C3.80063333,26.3929638 3.60271667,26.5504273 3.60271667,26.7881638 L3.60271667,27.3809638 L3.04918333,27.3809638 C2.85126667,27.3809638 2.65335,27.5384273 2.65335,27.7761638 C2.65335,28.0139004 2.81106583,28.1713638 3.04918333,28.1713638 L3.64293333,28.1713638 L3.64293333,28.7641638 C3.64293333,28.9617638 3.80064917,29.1593638 4.03876667,29.1593638 C4.23668333,29.1593638 4.4346,29.0019004 4.4346,28.7641638 L4.4346,28.1713638 L5.02835,28.1713638 C5.22626667,28.1713638 5.42418333,28.0139004 5.42418333,27.7761638 C5.42418333,27.5399686 5.22626667,27.3809638 4.98813333,27.3809638 Z" id="Fill-6" fill="#000000"></path>
                                            <path d="M4.19646667,8.09480864 L3.20688333,8.09480864 L3.20688333,7.10680864 C3.20688333,6.8304769 2.96876583,6.55416096 2.65335,6.55416096 C2.37657542,6.55416096 2.09981667,6.79189747 2.09981667,7.10680864 L2.09981667,8.09480864 L1.14890625,8.09480864 C0.872131667,8.09480864 0.595372917,8.33254515 0.595372917,8.64745632 C0.595372917,8.92378806 0.833490417,9.200104 1.14890625,9.200104 L2.13848958,9.200104 L2.13848958,10.188104 C2.13848958,10.4644357 2.37660708,10.7407517 2.69202292,10.7407517 C2.9687975,10.7407517 3.24555625,10.5030152 3.24555625,10.188104 L3.24555625,9.200104 L4.23513958,9.200104 C4.51191417,9.200104 4.78867292,8.96236749 4.78867292,8.64745632 C4.75001583,8.33252934 4.51344604,8.09480864 4.19646667,8.09480864 Z" id="Fill-7" fill="#000000"></path>
                                            <path d="M1.42563333,19.003119 C1.42563333,19.9509667 0,19.9509667 0,19.003119 C0,18.0552714 1.42563333,18.0552714 1.42563333,19.003119" id="Fill-8" fill="#000000"></path>
                                            <path d="M34.320175,33.6658294 C34.320175,34.6136771 32.8945417,34.6136771 32.8945417,33.6658294 C32.8945417,32.7164405 34.320175,32.7164405 34.320175,33.6658294" id="Fill-9" fill="#000000"></path>
                                            <path d="M33.8839667,6.94951904 C33.8839667,8.10887776 32.1429333,8.10887776 32.1429333,6.94951904 C32.1429333,5.79016032 33.8839667,5.79016032 33.8839667,6.94951904" id="Fill-10" fill="#000000"></path>
                                        </g>
                                    </g>
                                </g>
                            </g>
                        </g>
                    </g>
                </g>
            </g>
        </g>
    </g>
</svg>