<?xml version="1.0" encoding="UTF-8"?>
<svg width="40px" height="40px" viewBox="0 0 40 40" version="1.1"
    xmlns="http://www.w3.org/2000/svg"
    xmlns:xlink="http://www.w3.org/1999/xlink">
    <title>Notes</title>
    <g id="WEB-DESIGN" stroke="none" stroke-width="1" fill="none" fill-rule="evenodd">
        <g id="Atto-/-Product-/-Time-Tracking" transform="translate(-1090.000000, -6979.000000)">
            <g id="Group-14" transform="translate(150.000000, 6499.000000)">
                <g id="Group-27" transform="translate(0.000000, 220.000000)">
                    <g id="Group-38" transform="translate(0.000000, 260.000000)">
                        <g id="Single-Feature" transform="translate(780.000000, 0.000000)">
                            <g id="OVAL-/-Grey-Normal" transform="translate(160.000000, 0.000000)">
                                <g id="All_featres_Notes" transform="translate(6.000000, 6.000000)">
                                    <polyline id="Path-2" stroke="#00B9CB" stroke-width="1.90909091" stroke-linejoin="round" points="17.7901476 27.1234809 17.7901476 17.7901476 27.1234809 17.7901476"></polyline>
                                    <path d="M7.17676768,6.22222222 L20.8232323,6.22222222 C21.3504132,6.22222222 21.7777778,6.64958678 21.7777778,7.17676768 C21.7777778,7.70394857 21.3504132,8.13131313 20.8232323,8.13131313 L7.17676768,8.13131313 C6.64958678,8.13131313 6.22222222,7.70394857 6.22222222,7.17676768 C6.22222222,6.64958678 6.64958678,6.22222222 7.17676768,6.22222222 Z" id="Rectangle-23" fill="#00B9CB"></path>
                                    <path d="M7.17676768,10.8888889 L20.8232323,10.8888889 C21.3504132,10.8888889 21.7777778,11.3162534 21.7777778,11.8434343 C21.7777778,12.3706152 21.3504132,12.7979798 20.8232323,12.7979798 L7.17676768,12.7979798 C6.64958678,12.7979798 6.22222222,12.3706152 6.22222222,11.8434343 C6.22222222,11.3162534 6.64958678,10.8888889 7.17676768,10.8888889 Z" id="Rectangle-23" fill="#00B9CB"></path>
                                    <path d="M24.8888889,0.954545452 C25.484408,0.954545452 26.0235495,1.19592728 26.4138111,1.58618891 C26.8040727,1.97645053 27.0454545,2.51559195 27.0454545,3.11111111 L27.0454545,3.11111111 L27.0454545,24.8888889 C27.0454545,25.484408 26.8040727,26.0235495 26.4138111,26.4138111 C26.0235495,26.8040727 25.484408,27.0454545 24.8888889,27.0454545 L24.8888889,27.0454545 L3.1111111,27.0454545 C2.51559194,27.0454545 1.97645053,26.8040727 1.5861889,26.4138111 C1.19592728,26.0235495 0.954545445,25.484408 0.954545445,24.8888889 L0.954545445,24.8888889 L0.954545445,10.6219978 C0.954545445,10.050041 1.18175439,9.50151006 1.5861889,9.09707555 L1.5861889,9.09707555 L9.09707554,1.58618891 C9.50151005,1.1817544 10.050041,0.954545452 10.6219977,0.954545452 L10.6219977,0.954545452 Z" id="Rectangle-20" stroke="#00B9CB" stroke-width="1.90909091" transform="translate(14.000000, 14.000000) rotate(-180.000000) translate(-14.000000, -14.000000) "></path>
                                </g>
                            </g>
                        </g>
                    </g>
                </g>
            </g>
        </g>
    </g>
</svg>