<?xml version="1.0" encoding="UTF-8"?>
<svg width="40px" height="40px" viewBox="0 0 40 40" version="1.1"
    xmlns="http://www.w3.org/2000/svg"
    xmlns:xlink="http://www.w3.org/1999/xlink">
    <title>Overtime Rules</title>
    <g id="WEB-DESIGN" stroke="none" stroke-width="1" fill="none" fill-rule="evenodd">
        <g id="Atto-/-Product-/-Time-Tracking" transform="translate(-310.000000, -7239.000000)" stroke="#00B9CB">
            <g id="Group-14" transform="translate(150.000000, 6499.000000)">
                <g id="Group-27" transform="translate(0.000000, 220.000000)">
                    <g id="Group-37" transform="translate(0.000000, 520.000000)">
                        <g id="OVAL-/-Grey-Normal" transform="translate(160.000000, 0.000000)">
                            <g id="All_featres_overtime" transform="translate(20.000000, 20.000000) scale(1, -1) translate(-20.000000, -20.000000) translate(5.000000, 5.000000)">
                                <line x1="19.7368421" y1="17.3684211" x2="19.7368421" y2="23.6842105" id="Path-14" stroke-width="2.04545455" stroke-linecap="round" stroke-linejoin="round" transform="translate(19.736842, 20.526316) rotate(-45.000000) translate(-19.736842, -20.526316) "></line>
                                <path d="M14.2105263,1 C17.8585124,1 21.161144,2.47863852 23.5517791,4.86927358 C25.7219489,7.03944341 27.1405753,9.96115666 27.3837714,13.2105263 L27.3837714,13.2105263 L13.2105263,13.2105263 L13.2105263,27.3837714 C9.96115666,27.1405753 7.03944341,25.7219489 4.86927358,23.5517791 C2.47863852,21.161144 1,17.8585124 1,14.2105263 C1,10.5625402 2.47863852,7.25990863 4.86927358,4.86927358 C7.25990863,2.47863852 10.5625402,1 14.2105263,1 Z" id="Oval" stroke-width="2"></path>
                                <path d="M30,22.9824561 L30,17.3684211 C23.0237716,17.3684211 17.3684211,23.0237716 17.3684211,30 L23.6095121,30" id="Oval" stroke-width="2" stroke-linecap="round" stroke-linejoin="round" transform="translate(23.684211, 23.684211) scale(-1, -1) translate(-23.684211, -23.684211) "></path>
                            </g>
                        </g>
                    </g>
                </g>
            </g>
        </g>
    </g>
</svg>