<?xml version="1.0" encoding="UTF-8"?>
<svg width="24px" height="30px" viewBox="0 0 24 30" version="1.1" xmlns="http://www.w3.org/2000/svg" xmlns:xlink="http://www.w3.org/1999/xlink">
    <title>9992C97B-458C-4E1F-B436-9DD69EEA33A4SVG</title>
    <g id="WEB-DESIGN" stroke="none" stroke-width="1" fill="none" fill-rule="evenodd">
        <g id="Atto-/-Menu---Industries" transform="translate(-580.000000, -176.000000)">
            <g id="Group-97" transform="translate(150.000000, 73.000000)">
                <g id="Group-8" transform="translate(412.000000, 88.000000)">
                    <g id="Painting_industry" transform="translate(18.500000, 15.000000)">
                        <polygon id="Path-15" fill="#FFFFFF" points="1.23529664 1.25436367 21.7641087 1.25436367 21.7641087 15.7222656 17.4582031 17.5101562 13.7132812 18.3921875 13.7132812 20.2569418 14.2710938 27.2070313 12.1035156 29.4933594 9.53359375 28.7269956 8.4640625 26.4394531 9.53359375 19.0019531 1.23529664 16.3765625 0.520703125 12.6207031 0.520703125 1.25436367"></polygon>
                        <path d="M22.0670464,0.000273308609 L22.060869,0.000273308609 L0.914310563,0.000273308609 C0.420084363,-0.0119786882 0.00616794298,0.389251531 0,0.890805355 L0,0.922153673 L0,13.9940106 C0,15.5989828 1.05639466,17.0033335 2.58234376,17.4235152 L8.22901648,18.9657973 L8.26608423,18.9720663 C8.55644252,19.0222217 8.77267795,19.2729986 8.77267795,19.5739309 L8.76650052,19.5801999 L8.73561336,19.7808214 C8.6985456,20.006519 7.86454166,25.3292104 7.86454166,26.3512568 C7.86454166,28.3700226 9.47696847,30 11.459978,30 C13.4492503,30 15.0554143,28.3636666 15.0554143,26.3512568 C15.0554143,25.3669594 14.3264267,20.7088164 14.1843426,19.7808214 L14.178162,19.7369351 C14.1349168,19.5676618 14.1596297,19.3921228 14.2461169,19.2416406 C14.3202524,19.1099815 14.4499848,19.0096708 14.592091,18.9720566 C14.6476911,18.9595186 14.6971137,18.9469773 14.7465363,18.9219013 L20.3558851,17.3921701 C21.8756346,16.9721168 22.9382288,15.580317 22.9443968,13.9751842 L22.9567548,11.1664828 L23,0.934784805 C22.9938194,0.420680098 22.5799156,0.000626763775 22.067154,0.000626763775 L22.0670464,0.000273308609 Z M21.7087364,13.9625338 C21.702559,14.9970026 21.0168197,15.8997995 20.0345353,16.1756301 L14.4375224,17.6991018 C14.3880998,17.7116398 14.3386771,17.7241779 14.2892545,17.7429882 C13.8197317,17.862106 13.4181828,18.1693009 13.1710539,18.5956136 C12.9301182,19.0156669 12.8498148,19.5172208 12.9610086,19.9937049 C13.3872925,22.6958362 13.8135448,25.6987392 13.8135448,26.3445801 C13.8073674,27.6674303 12.7447826,28.7332275 11.441259,28.7269956 C10.1439034,28.7206985 9.09987626,27.6549115 9.09367668,26.3445801 C9.09367668,25.6737659 9.58790288,22.2756545 9.93384541,20.0813364 C9.96473573,19.9998327 9.98326803,19.9120632 9.98944546,19.8305595 C10.1130004,18.8211925 9.43961288,17.8932938 8.47586388,17.7365843 L2.90352278,16.2131126 C1.91507038,15.9435286 1.22932164,15.0281937 1.23547952,13.9937249 L1.23547952,11.786888 L21.7213158,11.786888 L21.7087364,13.9625338 Z M21.7210913,10.5330292 L1.23529664,10.5330292 L1.23529664,1.25436367 L3.21220144,1.25436367 L3.21220144,6.21982677 C3.21220144,6.56463901 3.49020487,6.84676103 3.82997629,6.84676103 C4.1697477,6.84676103 4.44775113,6.5646358 4.44775113,6.21982677 L4.44775113,1.25436367 L7.04243077,1.25436367 L7.04243077,6.21982677 C7.04243077,6.56463901 7.3204342,6.84676103 7.66020561,6.84676103 C7.9999802,6.84676103 8.27798046,6.5646358 8.27798046,6.21982677 L8.27798046,1.25436367 L10.8726601,1.25436367 L10.8726601,6.21982677 C10.8726601,6.56463901 11.1506635,6.84676103 11.4904349,6.84676103 C11.8302064,6.84676103 12.1082098,6.5646358 12.1082098,6.21982677 L12.1082098,1.25436367 L14.7028894,1.25436367 L14.7028894,6.21982677 C14.7028894,6.56463901 14.9808929,6.84676103 15.3206643,6.84676103 C15.6604389,6.84676103 15.9384391,6.5646358 15.9384391,6.21982677 L15.9384391,1.25436367 L18.5331188,1.25436367 L18.5331188,6.21982677 C18.5331188,6.56463901 18.8111222,6.84676103 19.1508936,6.84676103 C19.490665,6.84676103 19.7686684,6.5646358 19.7686684,6.21982677 L19.7686684,1.25436367 L21.7641087,1.25436367 L21.7210913,10.5330292 Z" id="Fill-1" fill="#000000"></path>
                    </g>
                </g>
            </g>
        </g>
    </g>
</svg>