<?xml version="1.0" encoding="UTF-8"?>
<svg width="120px" height="120px" viewBox="0 0 120 120" version="1.1" xmlns="http://www.w3.org/2000/svg" xmlns:xlink="http://www.w3.org/1999/xlink">
    <title>68E81C53-93B1-4891-B581-04EDA078128ASVG</title>
    <g id="WEB-DESIGN" stroke="none" stroke-width="1" fill="none" fill-rule="evenodd" opacity="0.5">
        <g id="Atto-/-Product-/-Time-Tracking-Copy" transform="translate(-660.000000, -636.000000)" fill="#00B9CB">
            <g id="AD" transform="translate(155.000000, 451.000000)">
                <g id="Group-49" transform="translate(0.000000, 2.000000)">
                    <g id="Play-button" transform="translate(505.526316, 183.000000)">
                        <path d="M59.4736842,0 C26.5357201,0 0,26.7705495 0,60 C0,93.2294505 26.5357201,120 59.4736842,120 C92.4116484,120 118.947368,93.2294505 118.947368,60 C118.947368,26.7705495 92.4116484,0 59.4736842,0 Z M86.6629612,64.352967 L47.0561018,87.6923077 C46.2697943,88.2177231 45.355808,88.3516484 44.5746767,88.3516484 C43.7883692,88.3516484 42.8743829,88.2177231 42.0932516,87.6923077 C40.6533349,86.8990418 39.6118265,85.1889231 39.6118265,83.3396044 L39.6067157,36.6609231 C39.6067157,34.8168791 40.6534264,33.1015385 42.0881408,32.3082198 C43.5280575,31.5149538 45.6163027,31.5149538 47.0562194,32.3082198 L86.7898689,55.6475604 C88.2297857,56.4408264 89.1437197,58.1509451 89.1437197,60.0002637 C89.1437197,61.8443077 88.097009,63.5596484 86.6622946,64.352967 L86.6629612,64.352967 Z" id="Fill-1"></path>
                    </g>
                </g>
            </g>
        </g>
    </g>
</svg>