<?xml version="1.0" encoding="UTF-8"?>
<svg width="24px" height="24px" viewBox="0 0 24 24" version="1.1"
    xmlns="http://www.w3.org/2000/svg"
    xmlns:xlink="http://www.w3.org/1999/xlink">
    <g id="WEB-DESIGN" stroke="none" stroke-width="1" fill="none" fill-rule="evenodd">
        <g id="Atto-/-Home-/-Final-A" transform="translate(-272.000000, -1137.000000)">
            <g id="Group-36" transform="translate(170.000000, 1105.000000)">
                <g id="Group-14" transform="translate(70.000000, 0.000000)">
                    <g id="Review_star_green" transform="translate(32.000000, 32.000000)">
                        <rect id="Review_star" fill="#00B9CB" x="0" y="0" width="24" height="24" rx="4"></rect>
                        <path d="M5.36819935,11.3660024 L8.09757766,13.2892034 C8.40939983,13.5088278 8.53997333,13.8983652 8.42097909,14.2537176 L7.37806942,17.3663512 C7.11197196,18.161472 8.05020281,18.8225339 8.74768082,18.3313987 L11.4770591,16.4081979 C11.7888813,16.18804 12.2108969,16.18804 12.5227332,16.4081979 L15.2521115,18.3313987 C15.9495895,18.8224654 16.8878767,18.161472 16.6217229,17.3663512 L15.5793632,14.2537176 C15.4598105,13.8983652 15.5903812,13.5088278 15.9027647,13.2892034 L18.6315788,11.3660024 C19.3285068,10.8743885 18.9709458,9.8046242 18.1087489,9.8046242 L14.7348243,9.8046242 C14.3497185,9.8046242 14.0070371,9.56363244 13.8885929,9.20828005 L12.8462333,6.09674085 C12.5795858,5.30108638 11.4204745,5.30108638 11.1532064,6.09674085 L10.1102967,9.20828005 C9.99184688,9.56363244 9.65027122,9.8046242 9.26461537,9.8046242 L5.89125469,9.8046242 C5.02904371,9.8046242 4.67149677,10.8744022 5.36842473,11.3660024 L5.36819935,11.3660024 Z" id="Fill-1" fill="#FFFFFF"></path>
                    </g>
                </g>
            </g>
        </g>
    </g>
</svg>