<?xml version="1.0" encoding="UTF-8"?>
<svg width="26px" height="30px" viewBox="0 0 26 30" version="1.1" xmlns="http://www.w3.org/2000/svg" xmlns:xlink="http://www.w3.org/1999/xlink">
    <title>78F981E5-79D8-4248-81F5-75A5627EFDBDSVG</title>
    <g id="WEB-DESIGN" stroke="none" stroke-width="1" fill="none" fill-rule="evenodd">
        <g id="Atto-/-Product-/-Time-Tracking" transform="translate(-1097.000000, -6724.000000)" fill="#00B9CB" fill-rule="nonzero">
            <g id="Group-14" transform="translate(150.000000, 6499.000000)">
                <g id="Group-27" transform="translate(0.000000, 220.000000)">
                    <g id="Single-Feature" transform="translate(780.000000, 0.000000)">
                        <g id="OVAL-/-Grey-Normal" transform="translate(160.000000, 0.000000)">
                            <g id="All_featres_notifications" transform="translate(7.500000, 5.500000)">
                                <path d="M13.1026565,0.150248842 C13.9957731,0.321395328 14.7628661,0.800273217 15.3037977,1.46335851 C15.8450292,2.12681131 16.1598508,2.97467455 16.147952,3.88321405 C17.6920281,5.05558012 18.9485206,6.2417494 19.8236759,7.69782927 C20.6336874,9.04330343 21.0874253,10.5720495 21.1442427,12.1392598 L21.15029,12.5015406 L21.150296,14.4386838 C21.1411156,15.2748882 21.4078706,16.0901 21.9024674,16.7607194 L22.0429702,16.9399378 L24.124361,19.4400242 C24.5391811,19.9327696 24.7916469,20.5238087 24.8719927,21.1373605 C24.9523623,21.7510942 24.860511,22.3873565 24.5863581,22.9709301 C24.3135101,23.562319 23.8799533,24.0470253 23.3518381,24.3826579 C22.8900389,24.6761448 22.3559319,24.8556471 21.7932598,24.8927907 L21.5504933,24.8999109 L3.45406835,24.8999111 C2.80396849,24.8986833 2.18293436,24.710099 1.65536045,24.3747805 C1.12809087,24.0396555 0.694170727,23.5579605 0.417945951,22.9703024 C0.141668026,22.3813739 0.0479509926,21.739719 0.127025736,21.1202626 C0.196244366,20.578017 0.397863609,20.0527845 0.725296978,19.5948404 L0.873309268,19.4028449 L2.94934767,16.9033268 C3.47804678,16.2692655 3.78760496,15.4835484 3.83552646,14.6639962 L3.84207718,14.4397316 L3.84207708,12.5016331 C3.84448986,10.8085682 4.30356432,9.14937211 5.17604475,7.70015405 C6.04851062,6.24854881 7.29794582,5.06270077 8.79150536,4.26563881 C8.84442369,2.68647601 9.31459705,1.65945394 10.1377511,0.963213212 C10.9580261,0.269413659 12.0445292,-0.0275531889 13.1026565,0.150248842 Z M12.4962423,2.40297076 C12.1771509,2.40297076 11.8686147,2.51627282 11.6260169,2.71919632 C11.3197013,2.97781154 11.1456307,3.35474054 11.1456307,3.75277246 L11.1456307,3.75277246 L11.1456307,5.00260541 L11.1365709,5.14616786 C11.1126244,5.33493761 11.0420622,5.51195067 10.9351047,5.66317522 C10.8011274,5.8526025 10.6100322,6.00159567 10.3817689,6.08250712 C9.17341283,6.51191907 8.11190104,7.41634383 7.35354492,8.56604582 C6.59765949,9.71200213 6.1432842,11.1009711 6.1432842,12.5015406 L6.1432842,12.5015406 L6.1432842,14.4397816 L6.13613243,14.7263121 C6.07174168,16.0598189 5.57480403,17.337818 4.71565373,18.3668456 L4.71565373,18.3668456 L2.63932837,20.8667084 L2.56586705,20.9638308 C2.47628309,21.0981222 2.42032808,21.2504858 2.4000541,21.4076299 C2.37471223,21.6040554 2.40512763,21.8079461 2.49440688,21.9943178 C2.57878076,22.1804127 2.71618938,22.3345645 2.88407004,22.4406419 C3.05158858,22.5464905 3.24943079,22.6044712 3.45603709,22.6005217 L3.45603709,22.6005217 L21.5507396,22.60054 L21.6720808,22.5942206 C21.8320169,22.5765137 21.9836588,22.5222541 22.116375,22.4382978 C22.2827935,22.3330214 22.4194466,22.1810441 22.505987,21.995904 C22.5934811,21.8102502 22.6225444,21.6081833 22.5967875,21.4134814 C22.5709518,21.2181841 22.4899454,21.0302751 22.3574265,20.8735112 L22.3574265,20.8735112 L20.2768712,18.3744215 L20.0978737,18.1496568 C19.2888174,17.0835003 18.8491505,15.780522 18.8491505,14.4399378 L18.8491505,14.4399378 L18.8491505,12.5016969 L18.8458196,12.2019727 C18.8032966,10.9079757 18.3976633,9.67960213 17.70881,8.63870307 C16.9670856,7.51791275 15.8969971,6.61447798 14.5982759,6.07945643 C14.370395,5.99399037 14.1831858,5.84451655 14.0522319,5.65626305 C13.9214738,5.46829102 13.846804,5.24164197 13.846804,5.00263666 L13.846804,5.00263666 L13.8466509,3.73247492 C13.8298309,3.43071003 13.7142332,3.14590067 13.5053629,2.9151395 C13.2817608,2.66810259 12.9498962,2.48217431 12.4962423,2.40297076 Z" id="Combined-Shape" stroke="#FFFFFF" stroke-width="0.2"></path>
                                <rect id="Rectangle" x="7.5" y="27" width="10" height="2" rx="1"></rect>
                            </g>
                        </g>
                    </g>
                </g>
            </g>
        </g>
    </g>
</svg>