<?xml version="1.0" encoding="UTF-8"?>
<svg width="32px" height="29px" viewBox="0 0 32 29" version="1.1" xmlns="http://www.w3.org/2000/svg" xmlns:xlink="http://www.w3.org/1999/xlink">
    <title>931356E0-C22E-423B-AF7B-372E748F786DSVG</title>
    <g id="WEB-DESIGN" stroke="none" stroke-width="1" fill="none" fill-rule="evenodd">
        <g id="Atto-/-Menu---Industries" transform="translate(-240.000000, -372.000000)" stroke="#000000">
            <g id="Group-97" transform="translate(150.000000, 73.000000)">
                <g id="Group-8" transform="translate(76.000000, 88.000000)">
                    <g id="menu-/-industries" transform="translate(0.000000, 200.000000)">
                        <g id="Roofing_industry" transform="translate(15.000000, 12.000000)">
                            <polygon id="Rectangle" stroke-width="1.2" fill="#FFFFFF" points="23.4153226 17.7857143 23.4153226 12.1190476 27.5282258 12.1190476 27.5282258 21.8333333 30 24.0714286 30 26.5 20.9516129 26.5 20.9516129 24.8809524 15.0120968 18.8095238 9.0483871 24.8809524 9.0483871 26.5 2.72848411e-11 26.5 3.41060513e-11 24.0714286 15.0120968 9.5"></polygon>
                            <path d="M26.8661344,4.06342439 C25.0317148,4.1031974 23.5123815,5.58223617 23.4726084,7.36694993" id="Oval" stroke-width="1.00842881" stroke-linecap="round" stroke-linejoin="round" transform="translate(25.169371, 5.715187) rotate(-61.000000) translate(-25.169371, -5.715187) "></path>
                            <path d="M28.4325336,0.662984476 C26.6358941,0.708067149 25.1428833,2.22203714 25.0978007,4.04453109" id="Oval" stroke-width="1.00842881" stroke-linecap="round" stroke-linejoin="round" transform="translate(26.765167, 2.353758) scale(-1, 1) rotate(-37.000000) translate(-26.765167, -2.353758) "></path>
                        </g>
                    </g>
                </g>
            </g>
        </g>
    </g>
</svg>