<?xml version="1.0" encoding="UTF-8"?>
<svg width="40px" height="40px" viewBox="0 0 40 40" version="1.1" xmlns="http://www.w3.org/2000/svg" xmlns:xlink="http://www.w3.org/1999/xlink">
    <title>64FFD604-54CA-4140-8DFA-48E176BE48A5SVG</title>
    <g id="WEB-DESIGN" stroke="none" stroke-width="1" fill="none" fill-rule="evenodd">
        <g id="Atto-/-All-features" transform="translate(-231.000000, -3020.000000)">
            <g id="Group-10" transform="translate(150.000000, 2182.000000)">
                <g id="Group-9" transform="translate(0.000000, 98.000000)">
                    <g id="Group" transform="translate(81.000000, 740.000000)">
                        <g id="Privacy" transform="translate(6.000000, 5.000000)">
                            <path d="M13.2990723,1.01006812 C15.8080367,2.10603654 17.8713556,3.00916444 19.904,3.75773486 C21.730163,4.3964684 23.6697344,4.84032445 25.73607,5.09398801 C26.2281913,12.5103231 24.5287433,18.4377896 20.9982307,22.9907158 C19.0639208,25.4425087 16.6362087,27.460027 13.8292225,28.98538 C10.3732847,27.4594842 7.92415278,25.4330003 6.00957553,22.9680309 C2.47884807,18.3865684 0.778060339,12.472001 0.94925069,5.35962609 C3.22457642,4.81152162 5.19327822,4.33835763 7.09839736,3.70556958 C9.17568276,3.0159203 11.2523119,2.10760361 13.2990723,1.01006812 Z" id="Shape" stroke="#00B9CB" stroke-width="1.87501062" fill-rule="nonzero"></path>
                            <path d="M11.0596851,13.6421301 C11.0596851,14.5028085 11.5308849,15.2523399 12.2324767,15.6725678 L12.2324767,18.7495151 C12.2324767,19.4404473 12.8074475,20.0001133 13.517393,20.0001133 C14.2273384,20.0001133 14.8023092,19.440499 14.8023092,18.7495151 L14.8023092,15.6725678 C15.5039117,15.2503176 15.9751008,14.5028085 15.9751008,13.6421301 C15.9751008,12.3208302 14.874951,11.2500637 13.517393,11.2500637 C12.1598349,11.2500637 11.0596851,12.3208302 11.0596851,13.6421301 Z" id="Path" fill="#00B9CB"></path>
                        </g>
                    </g>
                </g>
            </g>
        </g>
    </g>
</svg>