<?xml version="1.0" encoding="UTF-8"?>
<svg width="40px" height="40px" viewBox="0 0 40 40" version="1.1" xmlns="http://www.w3.org/2000/svg" xmlns:xlink="http://www.w3.org/1999/xlink">
    <title>3D121B99-CABC-448D-9D4A-9087EC409144SVG</title>
    <g id="WEB-DESIGN" stroke="none" stroke-width="1" fill="none" fill-rule="evenodd">
        <g id="Atto-/-All-features" transform="translate(-761.000000, -2580.000000)" fill="#00B9CB">
            <g id="Group-10" transform="translate(150.000000, 2182.000000)">
                <g id="Group-9" transform="translate(0.000000, 98.000000)">
                    <g id="Group" transform="translate(81.000000, 300.000000)">
                        <g id="all-features-/-bulletpoint" transform="translate(530.000000, 0.000000)">
                            <g id="Group-7" transform="translate(7.000000, 6.000000)">
                                <path d="M13.0047181,8.47158468 C10.786455,8.47158468 8.78745109,9.81692313 7.93875236,11.8820006 C7.09005363,13.947078 7.55891606,16.3249832 9.12817524,17.9044664 C10.6952729,19.4860777 13.0546154,19.9586234 15.1036277,19.1032474 C17.1525845,18.2479273 18.4874208,16.2331397 18.4874208,13.9974239 C18.4852482,10.9457575 16.0325622,8.47376877 13.0047181,8.47158468 Z M13.0047181,17.7729735 C11.4896847,17.7729735 10.1244544,16.852019 9.54274518,15.4431741 C8.96320297,14.0322012 9.28445716,12.4067963 10.3566603,11.3283078 C11.4267297,10.2476353 13.0393906,9.92388715 14.4394046,10.507989 C15.8371959,11.094275 16.7510168,12.4702466 16.7510168,13.9971999 C16.7488442,16.0819901 15.0732337,17.7707894 13.0047181,17.7729735 Z" id="Fill-1"></path>
                                <path d="M25.9452345,8.90952111 C25.4308255,7.58820756 24.7189165,6.35224121 23.8354897,5.24748778 C23.6271212,4.98716762 23.2906922,4.86684711 22.9672877,4.9412235 L20.1282532,5.57561529 C19.10158,4.69403023 17.9252148,4.00929255 16.6554451,3.55427549 L15.7872431,0.758538645 C15.6873984,0.44133715 15.416086,0.209454855 15.0883474,0.159148168 C13.6992241,-0.0530493894 12.284041,-0.0530493894 10.8949177,0.159148168 C10.5671736,0.209466055 10.2958722,0.443532432 10.1960221,0.762906809 L9.32782003,3.55864365 C8.05805027,4.01366071 6.88168515,4.69839839 5.85501195,5.57998345 L3.02903521,4.9412235 C2.70563065,4.86684711 2.36920168,4.98716202 2.16083319,5.24748778 C1.27962898,6.35442529 0.572009604,7.58820756 0.0598120863,8.90952111 C-0.0617361965,9.22015916 0.00554737637,9.57454605 0.229112869,9.81955523 L2.19561128,11.9852684 C1.9481751,13.3175024 1.9481751,14.6869218 2.19561128,16.0191557 L0.229112869,18.1848689 C0.00555293287,18.4298781 -0.0617361965,18.7842594 0.0598120863,19.0949031 C0.574221089,20.4140325 1.28396304,21.6456307 2.16522282,22.7481441 C2.37359131,23.0084642 2.71002028,23.1287847 3.03342484,23.0544083 L5.87245934,22.4200166 C6.89913254,23.3016016 8.07549766,23.9863393 9.34526742,24.4413564 L10.2134694,27.2370932 C10.3133141,27.5564788 10.5846265,27.7905507 10.9123651,27.8408518 C12.3014884,28.0530494 13.7166715,28.0530494 15.1057948,27.8408518 C15.4335389,27.7905395 15.7048403,27.5586516 15.8046904,27.2414614 L16.6728925,24.4457245 C17.9426622,23.9907075 19.1190274,23.3059698 20.1457006,22.4243847 L22.9673432,23.0544083 C23.2907478,23.1287847 23.6271768,23.0084698 23.8355452,22.7481441 C24.7167495,21.6412065 25.4243688,20.4074243 25.9365664,19.0861107 C26.0581146,18.7754727 25.9908311,18.4210858 25.7672656,18.1760766 L23.8007672,16.0103634 C24.0482033,14.6781294 24.0482033,13.3087101 23.8007672,11.9764761 L25.7672656,9.8107629 C25.9908255,9.5679434 26.0602817,9.22010875 25.9452456,8.9094651 L25.9452345,8.90952111 Z M22.2293298,11.1321325 C22.0383254,11.34433 21.962357,11.6352777 22.025301,11.9152658 C22.3378537,13.2846852 22.3378537,14.7110027 22.025301,16.080422 C21.962357,16.3604325 22.0383254,16.6513634 22.2293298,16.8635554 L24.1219825,18.9461615 C23.770362,19.7511917 23.3340718,20.5146683 22.8196516,21.225615 L20.0848014,20.6174882 C19.8069767,20.5562387 19.5161499,20.6371785 19.3077814,20.8318698 C18.2854978,21.7900097 17.0634584,22.5031965 15.7307891,22.9188441 C15.4573041,23.0019736 15.2424234,23.2141655 15.1534139,23.4876014 L14.3112718,26.1783343 C13.4452369,26.2702113 12.5727008,26.2702113 11.7066658,26.1783343 L10.8645237,23.4876014 C10.7777035,23.2141543 10.5649954,22.9997727 10.2915382,22.9144759 C8.9588689,22.4988339 7.73682941,21.7856976 6.71454584,20.8275016 C6.50617736,20.6328047 6.21532829,20.5518649 5.93752587,20.61312 L3.20267562,21.2212468 C2.68826661,20.5103001 2.25201524,19.7468235 1.9003448,18.9417933 L3.79299743,16.8591872 C3.98400187,16.6469897 4.05997024,16.356042 3.99702629,16.0760539 C3.68447356,14.7066345 3.68447356,13.280317 3.99702629,11.9108977 C4.05997024,11.6308872 3.98400187,11.3399562 3.79299743,11.1277643 L1.9003448,9.04515819 C2.25196523,8.240128 2.6882555,7.47665137 3.20267562,6.76570471 L5.93752587,7.37383152 C6.21535052,7.43508662 6.50617736,7.35414678 6.71454584,7.15944988 C7.73682941,6.20130995 8.9588689,5.4881232 10.2915382,5.07247562 C10.5650232,4.98716202 10.7777313,4.77277478 10.8645237,4.49935013 L11.6806614,1.81735355 C12.5466964,1.72547651 13.4192325,1.72547651 14.2852675,1.81735355 L15.1534695,4.50808645 C15.2402897,4.78153351 15.4529978,4.99591515 15.726455,5.08121195 C17.0591243,5.49685393 18.2811638,6.20999027 19.3034474,7.16818621 C19.5118158,7.36288311 19.8026649,7.44382294 20.0804673,7.38256785 L22.8153176,6.77444104 C23.3297266,7.4853877 23.765978,8.24886433 24.1176484,9.05389452 L22.2293298,11.1321325 Z" id="Fill-2"></path>
                            </g>
                        </g>
                    </g>
                </g>
            </g>
        </g>
    </g>
</svg>