<?xml version="1.0" encoding="UTF-8"?>
<svg width="24px" height="28px" viewBox="0 0 24 28" version="1.1" xmlns="http://www.w3.org/2000/svg" xmlns:xlink="http://www.w3.org/1999/xlink">
    <title>D8B2D11B-A179-4BFC-9429-67408605D1CDAndroid</title>
    <g id="WEB-DESIGN" stroke="none" stroke-width="1" fill="none" fill-rule="evenodd" stroke-linecap="round">
        <g id="Atto-/-Product-/-Timesheets" transform="translate(-708.000000, -4999.000000)" stroke="#00B9CB" stroke-width="2">
            <g id="Group-14" transform="translate(150.000000, 4513.000000)">
                <g id="Group-35" transform="translate(0.000000, 220.000000)">
                    <g id="Group-38" transform="translate(0.000000, 260.000000)">
                        <g id="Single-Feature" transform="translate(390.000000, 0.000000)">
                            <g id="Group" transform="translate(160.000000, 0.000000)">
                                <g id="Share" transform="translate(20.000000, 20.000000) scale(1, -1) translate(-20.000000, -20.000000) translate(9.000000, 7.000000)">
                                    <polyline id="Path-12-Copy-2" stroke-linejoin="round" points="5.5 5.625 11 0 16.5 5.625"></polyline>
                                    <line x1="5.69669914" y1="14.6783009" x2="16.3033009" y2="4.07169914" id="Path-13-Copy-2" transform="translate(11.000000, 9.375000) rotate(-45.000000) translate(-11.000000, -9.375000) "></line>
                                    <path d="M16.5,10.25 L20.1666667,10.25 C21.1791887,10.25 22,11.0894661 22,12.125 L22,24.125 C22,25.1605339 21.1791887,26 20.1666667,26 L1.83333333,26 C0.820811292,26 0,25.1605339 0,24.125 L0,12.125 C0,11.0894661 0.820811292,10.25 1.83333333,10.25 L5.5,10.25" id="Path"></path>
                                </g>
                            </g>
                        </g>
                    </g>
                </g>
            </g>
        </g>
    </g>
</svg>