<?xml version="1.0" encoding="UTF-8"?>
<svg width="37px" height="35px" viewBox="0 0 37 35" version="1.1" xmlns="http://www.w3.org/2000/svg" xmlns:xlink="http://www.w3.org/1999/xlink">
    <title>D29EE6AE-4886-44F6-B523-3DE36E315FD5SVG</title>
    <g id="WEB-DESIGN" stroke="none" stroke-width="1" fill="none" fill-rule="evenodd">
        <g id="Atto-/-Pricing" transform="translate(-546.000000, -3837.000000)">
            <g id="Group-8" transform="translate(150.000000, 3319.000000)">
                <g id="Group-24" transform="translate(-0.000000, 220.000000)">
                    <g id="Group-10" transform="translate(0.000000, 290.000000)">
                        <g id="Featureset" transform="translate(395.000000, 0.000000)">
                            <g id="Wage-estimates" transform="translate(1.201270, 8.000000)">
                                <g id="S" transform="translate(10.473730, 5.833333)" stroke="#000000" stroke-linecap="round" stroke-width="2.90243902">
                                    <path d="M6.825,12.6583333 C10.046661,12.6583333 12.6583333,9.60267675 12.6583333,5.83333333 C12.6583333,2.06398992 10.046661,-0.991666667 6.825,-0.991666667 C3.60333896,-0.991666667 0.991666667,2.06398992 0.991666667,5.83333333" id="Oval-Copy-2" transform="translate(6.825000, 5.833333) rotate(-90.000000) translate(-6.825000, -5.833333) "></path>
                                    <path d="M6.825,24.325 C10.046661,24.325 12.6583333,21.2693434 12.6583333,17.5 C12.6583333,13.7306566 10.046661,10.675 6.825,10.675 C3.60333896,10.675 0.991666667,13.7306566 0.991666667,17.5" id="Oval-Copy-5" transform="translate(6.825000, 17.500000) rotate(-270.000000) translate(-6.825000, -17.500000) "></path>
                                </g>
                                <rect id="Rectangle" fill="#000000" fill-rule="nonzero" x="15.8362302" y="0" width="2" height="35" rx="1"></rect>
                                <g id="Group" transform="translate(28.000000, 0.943175)" fill="#000000" fill-rule="nonzero">
                                    <ellipse id="Oval" transform="translate(1.504286, 1.500000) rotate(-270.000000) translate(-1.504286, -1.500000) " cx="1.50428571" cy="1.5" rx="1.5" ry="1.50428571"></ellipse>
                                    <ellipse id="Oval" transform="translate(6.504286, 15.500000) rotate(-270.000000) translate(-6.504286, -15.500000) " cx="6.50428571" cy="15.5" rx="1.5" ry="1.50428571"></ellipse>
                                    <ellipse id="Oval" transform="translate(1.504286, 31.500000) rotate(-270.000000) translate(-1.504286, -31.500000) " cx="1.50428571" cy="31.5" rx="1.5" ry="1.50428571"></ellipse>
                                </g>
                                <g id="Group" transform="translate(4.004286, 17.443175) scale(-1, 1) translate(-4.004286, -17.443175) translate(0.000000, 0.943175)" fill="#000000" fill-rule="nonzero">
                                    <ellipse id="Oval" transform="translate(1.504286, 1.500000) rotate(-270.000000) translate(-1.504286, -1.500000) " cx="1.50428571" cy="1.5" rx="1.5" ry="1.50428571"></ellipse>
                                    <ellipse id="Oval" transform="translate(6.504286, 15.500000) rotate(-270.000000) translate(-6.504286, -15.500000) " cx="6.50428571" cy="15.5" rx="1.5" ry="1.50428571"></ellipse>
                                    <ellipse id="Oval" transform="translate(1.504286, 31.500000) rotate(-270.000000) translate(-1.504286, -31.500000) " cx="1.50428571" cy="31.5" rx="1.5" ry="1.50428571"></ellipse>
                                </g>
                            </g>
                        </g>
                    </g>
                </g>
            </g>
        </g>
    </g>
</svg>