<?xml version="1.0" encoding="UTF-8"?>
<svg width="149px" height="10px" viewBox="0 0 149 10" version="1.1"
    xmlns="http://www.w3.org/2000/svg"
    xmlns:xlink="http://www.w3.org/1999/xlink">
    <g id="WEB-DESIGN" stroke="none" stroke-width="1" fill="none" fill-rule="evenodd">
        <g id="Atto-/-Time-tracking-for-electricians" transform="translate(-450.000000, -10309.000000)" fill="#C7C7C7">
            <g id="Group-42" transform="translate(150.000000, 10036.000000)">
                <g id="Group-2" transform="translate(0.000000, 194.000000)">
                    <g id="Step-arrow-forward" transform="translate(300.000000, 79.000000)">
                        <path d="M143.193732,0.181446387 C143.452042,-0.060482129 143.870845,-0.060482129 144.129155,0.181446387 L144.129155,0.181446387 L148.806268,4.56194967 C149.064577,4.80387819 149.064577,5.19612181 148.806268,5.43805033 L148.806268,5.43805033 L144.129155,9.81855361 C143.870845,10.0604821 143.452042,10.0604821 143.193732,9.81855361 C142.935423,9.5766251 142.935423,9.18438147 143.193732,8.94245296 L143.193732,8.94245296 L146.655,5.7 L0.5,5.7 C0.223857625,5.7 3.03141985e-15,5.47614237 0,5.2 L0,5 C-3.38176876e-17,4.72385763 0.223857625,4.5 0.5,4.5 L146.869,4.5 L143.193732,1.05754704 C142.961254,0.839811379 142.938006,0.500320477 143.123989,0.258233765 Z" id="Arrow-2-Forward---Small-Grey"></path>
                    </g>
                </g>
            </g>
        </g>
    </g>
</svg>