<?xml version="1.0" encoding="UTF-8"?>
<svg width="32px" height="22px" viewBox="0 0 32 22" version="1.1" xmlns="http://www.w3.org/2000/svg" xmlns:xlink="http://www.w3.org/1999/xlink">
    <title>F408808B-1EE9-403C-B3A1-C0779123349DAndroid</title>
    <g id="WEB-DESIGN" stroke="none" stroke-width="1" fill="none" fill-rule="evenodd">
        <g id="Atto-/-Product-/-Team-Activity" transform="translate(-314.000000, -4901.000000)" stroke="#00B9CB" stroke-width="2">
            <g id="Group-14" transform="translate(150.000000, 4672.000000)">
                <g id="Group-39" transform="translate(0.000000, 220.000000)">
                    <g id="Group" transform="translate(160.000000, 0.000000)">
                        <g id="Team---Color" transform="translate(5.000000, 10.000000)">
                            <path d="M21,20 C21,19.1888605 21,17.650399 21,15.3846154 C21,11.98594 18.3137085,9.23076923 15,9.23076923 C11.6862915,9.23076923 9,11.98594 9,15.3846154 C9,17.650399 9,19.1888605 9,20" id="Oval-10" stroke-linecap="round"></path>
                            <ellipse id="Oval-13" cx="25.5" cy="7.69230769" rx="3" ry="3.07692308"></ellipse>
                            <path d="M30,18.0769231 C30,17.981389 30,17.0839531 30,15.3846154 C30,12.8356088 27.9852814,10.7692308 25.5,10.7692308 C23.0147186,10.7692308 21,12.8356088 21,15.3846154 C21,17.0839531 21,17.981389 21,18.0769231" id="Oval-10" stroke-linecap="round"></path>
                            <ellipse id="Oval-13" cx="4.5" cy="7.69230769" rx="3" ry="3.07692308"></ellipse>
                            <path d="M9,18.0769231 C9,17.981389 9,17.0839531 9,15.3846154 C9,12.8356088 6.98528137,10.7692308 4.5,10.7692308 C2.01471863,10.7692308 0,12.8356088 0,15.3846154 C0,17.0839531 0,17.981389 0,18.0769231" id="Oval-10" stroke-linecap="round"></path>
                            <ellipse id="Oval-13" cx="15" cy="3.84615385" rx="3.75" ry="3.84615385"></ellipse>
                        </g>
                    </g>
                </g>
            </g>
        </g>
    </g>
</svg>