<?xml version="1.0" encoding="UTF-8"?>
<svg width="40px" height="42px" viewBox="0 0 40 42" version="1.1" xmlns="http://www.w3.org/2000/svg" xmlns:xlink="http://www.w3.org/1999/xlink">
    <title>A1E7C698-6580-4E23-B87C-D7897C0485CCAndroid</title>
    <g id="WEB-DESIGN" stroke="none" stroke-width="1" fill="none" fill-rule="evenodd">
        <g id="Atto-/-Menu---Product" transform="translate(-236.000000, -412.000000)">
            <g id="Group-97" transform="translate(150.000000, 73.000000)">
                <g id="Group-4" transform="translate(76.000000, 230.000000)">
                    <g id="menu-/-industries" transform="translate(0.000000, 100.000000)">
                        <g id="Team_activity_product" transform="translate(11.002818, 9.997136)">
                            <path d="M19.4,29.2374827 C20.8625634,29.2374827 22.8933443,29.9377073 25.4923427,31.3381564 C29.8303322,29.1199381 32.8,24.6067706 32.8,19.4 C32.8,11.9993844 26.8006156,6 19.4,6 C11.9993844,6 6,11.9993844 6,19.4 C6,24.4668346 8.81218861,28.8768474 12.9608931,31.1543656 C15.697777,29.8764436 17.844146,29.2374827 19.4,29.2374827 Z" id="Oval" fill="#FFFFFF"></path>
                            <path d="M19.0519063,32.4302182 C26.4707045,32.4603277 32.4603277,26.4707045 32.4302182,19.0519063 C32.3998809,11.6331082 26.3612558,5.59448308 18.9424576,5.56414577 C11.5236595,5.53403623 5.53403623,11.5236595 5.56414577,18.9424576" id="Oval-3" stroke="#000000" stroke-width="1.2" stroke-linecap="round" transform="translate(18.997182, 18.997182) rotate(-45.000000) translate(-18.997182, -18.997182) "></path>
                            <path d="M13.6021233,37.7704386 C19.5371618,37.7462599 24.3680619,32.9153598 24.3922406,26.9803213" id="Oval-3" stroke="#000000" stroke-width="1.2" stroke-linecap="round" transform="translate(18.997182, 32.375380) rotate(-135.000000) translate(-18.997182, -32.375380) "></path>
                            <ellipse id="Oval" stroke="#000000" stroke-width="1.2" fill="#FFFFFF" cx="18.997182" cy="18.997182" rx="4.79505866" ry="4.75127919"></ellipse>
                        </g>
                    </g>
                </g>
            </g>
        </g>
    </g>
</svg>