<?xml version="1.0" encoding="UTF-8"?>
<svg width="7px" height="30px" viewBox="0 0 7 30" version="1.1" xmlns="http://www.w3.org/2000/svg" xmlns:xlink="http://www.w3.org/1999/xlink">
    <title>4D43403A-E90C-4756-B8A0-A429C30AE66DAndroid</title>
    <g id="WEB-DESIGN" stroke="none" stroke-width="1" fill="none" fill-rule="evenodd">
        <g id="Atto-/-Product-/-Team-Activity" transform="translate(-717.000000, -4897.000000)" fill="#00B9CB">
            <g id="Group-14" transform="translate(150.000000, 4672.000000)">
                <g id="Group-39" transform="translate(0.000000, 220.000000)">
                    <g id="Single-Feature" transform="translate(390.000000, 0.000000)">
                        <g id="Group" transform="translate(160.000000, 0.000000)">
                            <g id="Timeline" transform="translate(17.891304, 5.625000)">
                                <path d="M-6.94785822,15.352822 C-7.31862066,16.3090861 -8.21696332,16.9836957 -9.26630435,16.9836957 C-10.6470162,16.9836957 -11.7663043,15.8157428 -11.7663043,14.375 C-11.7663043,12.9342572 -10.6470162,11.7663043 -9.26630435,11.7663043 C-8.21696332,11.7663043 -7.31862066,12.4409139 -6.94785822,13.397178 L12.1652495,13.397178 C12.536012,12.4409139 13.4343546,11.7663043 14.4836957,11.7663043 C15.8644075,11.7663043 16.9836957,12.9342572 16.9836957,14.375 C16.9836957,15.8157428 15.8644075,16.9836957 14.4836957,16.9836957 C13.4343546,16.9836957 12.536012,16.3090861 12.1652495,15.352822 Z" id="Filter---Black" transform="translate(2.608696, 14.375000) rotate(-270.000000) translate(-2.608696, -14.375000) "></path>
                            </g>
                        </g>
                    </g>
                </g>
            </g>
        </g>
    </g>
</svg>