<?xml version="1.0" encoding="UTF-8"?>
<svg width="28px" height="30px" viewBox="0 0 28 30" version="1.1" xmlns="http://www.w3.org/2000/svg" xmlns:xlink="http://www.w3.org/1999/xlink">
    <title>9E42AB65-4B3F-463C-9717-51D3A8C1260CAndroid</title>
    <g id="WEB-DESIGN" stroke="none" stroke-width="1" fill="none" fill-rule="evenodd">
        <g id="Atto-/-Menu---Product" transform="translate(-242.000000, -317.000000)">
            <g id="Group-97" transform="translate(150.000000, 73.000000)">
                <g id="Group-4" transform="translate(76.000000, 230.000000)">
                    <g id="Time_tracking_product" transform="translate(16.500000, 14.000000)">
                        <circle id="Oval-9" stroke="#000000" stroke-width="1.2" fill="#FFFFFF" cx="13.5" cy="16" r="12.9"></circle>
                        <path d="M13.5,-3.4 C13.8313708,-3.4 14.1,-3.13137085 14.1,-2.8 L14.1,4 C14.1,4.33137085 13.8313708,4.6 13.5,4.6 C13.1686292,4.6 12.9,4.33137085 12.9,4 L12.9,-2.8 C12.9,-3.13137085 13.1686292,-3.4 13.5,-3.4 Z" id="Rectangle-11" fill="#000000" transform="translate(13.500000, 0.600000) rotate(-270.000000) translate(-13.500000, -0.600000) "></path>
                        <path d="M13.5,8.16923077 C13.8313708,8.16923077 14.1,8.43785992 14.1,8.76923077 L14.1,15.2615385 C14.1,15.5929093 13.8313708,15.8615385 13.5,15.8615385 C13.1686292,15.8615385 12.9,15.5929093 12.9,15.2615385 L12.9,8.76923077 C12.9,8.43785992 13.1686292,8.16923077 13.5,8.16923077 Z" id="Rectangle-4" fill="#000000" transform="translate(13.500000, 12.015385) scale(-1, 1) translate(-13.500000, -12.015385) "></path>
                    </g>
                </g>
            </g>
        </g>
    </g>
</svg>