<?xml version="1.0" encoding="UTF-8"?>
<svg width="35px" height="39px" viewBox="0 0 35 39" version="1.1" xmlns="http://www.w3.org/2000/svg" xmlns:xlink="http://www.w3.org/1999/xlink">
    <title>82B6DAD4-EF20-43D1-802F-ADC611FAC7ADAndroid</title>
    <g id="WEB-DESIGN" stroke="none" stroke-width="1" fill="none" fill-rule="evenodd">
        <g id="Atto-/-Pricing" transform="translate(-151.000000, -3545.000000)">
            <g id="Group-8" transform="translate(150.000000, 3319.000000)">
                <g id="Group-24" transform="translate(-0.000000, 220.000000)">
                    <g id="Time-Tracking" transform="translate(1.000000, 6.000000)">
                        <circle id="Oval-9" stroke="#000000" stroke-width="2.90243902" cx="17.5" cy="21.5" r="16.0487805"></circle>
                        <path d="M18,-4 C18.5522847,-4 19,-3.55228475 19,-3 L19,5 C19,5.55228475 18.5522847,6 18,6 C17.4477153,6 17,5.55228475 17,5 L17,-3 C17,-3.55228475 17.4477153,-4 18,-4 Z" id="Rectangle-11" fill="#000000" transform="translate(18.000000, 1.000000) rotate(-270.000000) translate(-18.000000, -1.000000) "></path>
                        <path d="M18,12 C18.5522847,12 19,12.4477153 19,13 L19,21 C19,21.5522847 18.5522847,22 18,22 C17.4477153,22 17,21.5522847 17,21 L17,13 C17,12.4477153 17.4477153,12 18,12 Z" id="Rectangle-4" fill="#000000" transform="translate(18.000000, 17.000000) scale(-1, 1) translate(-18.000000, -17.000000) "></path>
                    </g>
                </g>
            </g>
        </g>
    </g>
</svg>