<?xml version="1.0" encoding="UTF-8"?>
<svg width="27px" height="28px" viewBox="0 0 27 28" version="1.1" xmlns="http://www.w3.org/2000/svg" xmlns:xlink="http://www.w3.org/1999/xlink">
    <title>D90696F2-007D-425D-9949-2507456951B2Android</title>
    <g id="WEB-DESIGN" stroke="none" stroke-width="1" fill="none" fill-rule="evenodd">
        <g id="Atto-/-Menu---Product" transform="translate(-579.000000, -419.000000)">
            <g id="Group-97" transform="translate(150.000000, 73.000000)">
                <g id="Group-4" transform="translate(76.000000, 230.000000)">
                    <g id="Group-8" transform="translate(336.000000, 0.000000)">
                        <g id="menu-/-industries" transform="translate(0.000000, 100.000000)">
                            <g id="Timesheets_product" transform="translate(17.900000, 16.000000)">
                                <path d="M24.6,0.6 L24.6,21.5857864 L19.0686292,27.2828427 L0.6,27.4 L0.6,0.6 L24.6,0.6 Z" id="Rectangle-10" stroke="#000000" stroke-width="1.2" fill="#FFFFFF"></path>
                                <path d="M18.2,26.8 L18.2,22 C18.2,21.4477153 18.6477153,21 19.2,21 L24,21 L24,21" id="Rectangle-10" stroke="#000000" stroke-width="1.2" fill="#FFFFFF"></path>
                                <rect id="Rectangle-7" fill="#000000" x="4.5" y="16" width="16.2" height="1.2" rx="0.6"></rect>
                                <rect id="Rectangle-7" fill="#000000" x="4.5" y="13" width="16.2" height="1.2" rx="0.6"></rect>
                                <rect id="Rectangle-7" fill="#000000" x="4.5" y="19" width="10" height="1.2" rx="0.6"></rect>
                                <rect id="Rectangle-7" fill="#000000" x="4.7" y="5" width="3" height="1.2" rx="0.6"></rect>
                                <rect id="Rectangle-7" fill="#000000" x="4.7" y="8" width="3" height="1.2" rx="0.6"></rect>
                                <rect id="Rectangle-7" fill="#000000" x="9.03333333" y="5" width="3" height="1.2" rx="0.6"></rect>
                                <rect id="Rectangle-7" fill="#000000" x="9.03333333" y="8" width="3" height="1.2" rx="0.6"></rect>
                                <rect id="Rectangle-7" fill="#000000" x="13.3666667" y="5" width="3" height="1.2" rx="0.6"></rect>
                                <rect id="Rectangle-7" fill="#000000" x="13.3666667" y="8" width="3" height="1.2" rx="0.6"></rect>
                                <rect id="Rectangle-7" fill="#000000" x="17.7" y="5" width="3" height="1.2" rx="0.6"></rect>
                                <rect id="Rectangle-7" fill="#000000" x="17.7" y="8" width="3" height="1.2" rx="0.6"></rect>
                            </g>
                        </g>
                    </g>
                </g>
            </g>
        </g>
    </g>
</svg>