<?xml version="1.0" encoding="UTF-8"?>
<svg width="60px" height="35px" viewBox="0 0 60 35" version="1.1" xmlns="http://www.w3.org/2000/svg" xmlns:xlink="http://www.w3.org/1999/xlink">
    <title>A5D335F2-B84D-4D59-8EC2-BCDC4FC37160SVG</title>
    <g id="WEB-DESIGN" stroke="none" stroke-width="1" fill="none" fill-rule="evenodd">
        <g id="Atto-/-Pricing" transform="translate(-941.000000, -4128.000000)">
            <g id="Group-8" transform="translate(150.000000, 3319.000000)">
                <g id="Group-24" transform="translate(-0.000000, 220.000000)">
                    <g id="Group-12" transform="translate(-0.000000, 580.000000)">
                        <g id="Featureset" transform="translate(790.000000, 0.000000)">
                            <g id="Help-Support" transform="translate(31.000000, 26.500000) scale(-1, 1) translate(-31.000000, -26.500000) translate(1.000000, 9.000000)">
                                <g id="Group-2" transform="translate(30.000000, 17.500000) scale(-1, 1) translate(-30.000000, -17.500000) translate(0.000000, 0.000000)">
                                    <path d="M55.0845791,1.30609756 C56.0812662,1.30609756 56.983597,1.71008484 57.6367561,2.3632439 C58.2899152,3.01640296 58.6939024,3.9187338 58.6939024,4.91542093 L58.6939024,4.91542093 L58.6939024,21.4274142 C58.6939024,21.9716494 58.4733076,22.4643618 58.1166539,22.8210154 C57.7600003,23.1776691 57.2672878,23.398264 56.7230527,23.398264 C56.277058,23.398264 55.84425,23.2469927 55.4953572,22.9691705 L55.4953572,22.9691705 L49.1136661,17.8874508 L36.5500363,17.8874508 C35.5533492,17.8874508 34.6510183,17.4834635 33.9978593,16.8303045 C33.3447002,16.1771454 32.9407129,15.2748146 32.9407129,14.2781275 L32.9407129,14.2781275 L32.9407129,4.91542093 C32.9407129,3.9187338 33.3447002,3.01640296 33.9978593,2.3632439 C34.6510183,1.71008484 35.5533492,1.30609756 36.5500363,1.30609756 L36.5500363,1.30609756 Z" id="Rectangle" stroke="#000000" stroke-width="2.61219512" transform="translate(45.817308, 14.112903) scale(-1, 1) translate(-45.817308, -14.112903) "></path>
                                    <g id="Group" transform="translate(0.000000, 6.774194)">
                                        <path d="M23.4499637,1.30609756 C24.4466508,1.30609756 25.3489817,1.71008484 26.0021407,2.3632439 C26.6552998,3.01640296 27.0592871,3.9187338 27.0592871,4.91542093 L27.0592871,4.91542093 L27.0592871,21.4274142 C27.0592871,21.9716494 26.8386922,22.4643618 26.4820385,22.8210154 C26.1253849,23.1776691 25.6326725,23.398264 25.0884373,23.398264 C24.6424426,23.398264 24.2096346,23.2469927 23.8607419,22.9691705 L23.8607419,22.9691705 L17.4790507,17.8874508 L4.91542093,17.8874508 C3.9187338,17.8874508 3.01640296,17.4834635 2.3632439,16.8303045 C1.71008484,16.1771454 1.30609756,15.2748146 1.30609756,14.2781275 L1.30609756,14.2781275 L1.30609756,4.91542093 C1.30609756,3.9187338 1.71008484,3.01640296 2.3632439,2.3632439 C3.01640296,1.71008484 3.9187338,1.30609756 4.91542093,1.30609756 L4.91542093,1.30609756 Z" id="Rectangle" stroke="#000000" stroke-width="2.61219512" fill="#FFFFFF"></path>
                                        <path d="M9.67448906,9.33364135 C9.67448906,11.2408621 6.80769231,11.2408621 6.80769231,9.33364135 C6.80769231,7.42642062 9.67448906,7.42642062 9.67448906,9.33364135" id="Fill-5" fill="#000000"></path>
                                        <path d="M15.2511479,9.33364135 C15.2511479,11.2408621 12.3863116,11.2408621 12.3863116,9.33364135 C12.3863116,7.42642062 15.2511479,7.42642062 15.2511479,9.33364135" id="Fill-6" fill="#000000"></path>
                                        <path d="M20.8293148,9.33364135 C20.8293148,11.2408621 17.9625181,11.2408621 17.9625181,9.33364135 C17.9625181,7.42642062 20.8293148,7.42642062 20.8293148,9.33364135" id="Fill-7" fill="#000000"></path>
                                    </g>
                                </g>
                            </g>
                        </g>
                    </g>
                </g>
            </g>
        </g>
    </g>
</svg>