<?xml version="1.0" encoding="UTF-8"?>
<svg width="52px" height="62px" viewBox="0 0 52 62" version="1.1" xmlns="http://www.w3.org/2000/svg" xmlns:xlink="http://www.w3.org/1999/xlink">
    <title>45FE5229-8364-4D43-8D7F-BA71910F4638SVG</title>
    <g id="WEB-DESIGN" stroke="none" stroke-width="1" fill="none" fill-rule="evenodd">
        <g id="Atto-/-Product-/-Time-Tracking-Copy" transform="translate(-185.000000, -7988.000000)" fill="#00B9CB">
            <g id="Trusted" transform="translate(150.000000, 7889.000000)">
                <g id="Group-27" transform="translate(35.000000, 0.000000)">
                    <g id="Verified-by-thousands-of-businesses" transform="translate(0.000000, 99.000000)">
                        <polygon id="Fill-1" points="36.6684 24.6638 35.12623 23.12163 22.56963 35.67823 18.21647 31.32507 16.66331 32.87823 22.56956 38.77356"></polygon>
                        <path d="M0.35,35.7217 C0.35,50.1921 14.1638,61.425 26.0533,61.425 C37.9428,61.425 51.7566,50.1921 51.7566,35.7217 L51.7566,4.725 L25.6928,0.175 L0.3507,4.725 L0.35,35.7217 Z M2.5375,6.5625 L25.6921,2.3625 L49.5684,6.5625 L49.5684,35.7217 C49.5684,48.748 36.7059,59.2375 26.0526,59.2375 C15.3993,59.2375 2.5368,48.7487 2.5368,35.7217 L2.5375,6.5625 Z" id="Fill-2"></path>
                        <path d="M43.0066,35.7217 L43.0066,12.075 L25.7145,9.04533 L9.1007,12.04217 L9.1007,35.72177 C9.1007,44.69017 18.5836,52.67507 26.054,52.67507 C33.5237,52.67507 43.0066,44.6908 43.0066,35.7217 Z M11.2875,13.8684 L25.7138,11.26524 L40.8184,13.91208 L40.8184,35.72128 C40.8184,43.37788 32.4947,50.48708 26.0526,50.48708 C19.6105,50.48708 11.2868,43.32328 11.2868,35.72128 L11.2875,13.8684 Z" id="Fill-3"></path>
                    </g>
                </g>
            </g>
        </g>
    </g>
</svg>