<?xml version="1.0" encoding="UTF-8"?>
<svg width="1130px" height="355px" viewBox="0 0 1130 355" version="1.1" xmlns="http://www.w3.org/2000/svg" xmlns:xlink="http://www.w3.org/1999/xlink">
    <title>21E6AD70-F73C-45E5-9094-A023395D2232SVG</title>
    <g id="WEB-DESIGN" stroke="none" stroke-width="1" fill="none" fill-rule="evenodd">
        <g id="Atto-/-Product-/-Time-Tracking-Copy" transform="translate(-155.000000, -518.000000)" fill="#EFEFEF">
            <g id="AD" transform="translate(155.000000, 451.000000)">
                <g id="Group-49" transform="translate(0.000000, 2.000000)">
                    <g id="Video-background-elements" transform="translate(0.000000, 65.000000)">
                        <g id="Group-25" transform="translate(0.000000, 2.000000)">
                            <path d="M76.3924059,37.959582 C76.3924059,39.0604339 75.5106084,39.9582963 74.4122179,39.9582963 C70.4209509,39.9582963 68.4253175,37.3038038 66.8241374,35.1723749 C65.2848581,33.1268907 64.3180115,31.9634391 62.3918826,31.9634391 C60.465833,31.9634391 59.499026,33.1189358 57.9596278,35.1723749 C56.3584676,37.3038038 54.3628143,39.9582963 50.3792701,39.9582963 C46.3957259,39.9582963 44.4000924,37.3038038 42.7989124,35.1723749 C41.259633,33.1268907 40.3005091,31.9634391 38.3743803,31.9634391 C36.4483306,31.9634391 35.4815236,33.1189358 33.9498482,35.1723749 C32.348688,37.3038038 30.3530347,39.9582963 26.3694905,39.9582963 C22.3859462,39.9582963 20.3903128,37.3038038 18.7891327,35.1723749 C17.2498534,33.1268907 16.2907295,31.9634391 14.3646007,31.9634391 C13.2662102,31.9634391 12.3844126,31.0655767 12.3844126,29.9647248 C12.3844126,28.8638729 13.2662102,27.9660105 14.3646007,27.9660105 C18.3481449,27.9660105 20.3437783,30.620503 21.9449584,32.7519319 C23.4842377,34.7974161 24.4510843,35.9608677 26.3694905,35.9608677 C28.2955401,35.9608677 29.2623471,34.805371 30.7940226,32.7519319 C32.3951828,30.620503 34.3908361,27.9660105 38.3743803,27.9660105 C42.3579245,27.9660105 44.353558,30.620503 45.954738,32.7519319 C47.4940173,34.7974161 48.4531412,35.9608677 50.3792701,35.9608677 C52.3053197,35.9608677 53.2721267,34.805371 54.8038022,32.7519319 C56.4049624,30.620503 58.4006157,27.9660105 62.3918826,27.9660105 C66.3831496,27.9660105 68.378783,30.620503 69.9799631,32.7519319 C71.5192424,34.7974161 72.486089,35.9608677 74.4122179,35.9608677 C75.5106084,35.9608677 76.3924059,36.8509152 76.3924059,37.959582 Z M58.4539582,99.5643277 C60.5733534,97.9481873 63.2032411,95.9338631 63.2032411,91.9130495 C63.2032411,90.8121976 62.3214436,89.9143352 61.2230531,89.9143352 C60.1246626,89.9143352 59.2428651,90.8121976 59.2428651,91.9130495 C59.2428651,93.857119 58.0980788,94.8251762 56.0636733,96.3789767 C53.9520008,97.9951171 51.3221131,100.009441 51.3221131,104.030255 C51.3221131,108.051069 53.9520008,110.065373 56.0636733,111.681533 C58.0901977,113.235214 59.2428651,114.211106 59.2428651,116.14746 C59.2428651,118.09153 58.0980788,119.059587 56.071396,120.613388 C53.9520008,122.229528 51.3221131,124.243852 51.3221131,128.264666 C51.3221131,132.293274 53.9520008,134.299784 56.0636733,135.923739 C58.0901977,137.47742 59.2428651,138.453312 59.2428651,140.397461 C59.2428651,142.341611 58.0980788,143.317383 56.0636733,144.871183 C53.9520008,146.487324 51.3221131,148.501648 51.3221131,152.530257 C51.3221131,156.558865 53.9520008,158.57317 56.0636733,160.18933 C58.0901977,161.74301 59.2428651,162.718903 59.2428651,164.663052 C59.2428651,165.763904 60.1246626,166.661766 61.2230531,166.661766 C62.3214436,166.661766 63.2032411,165.763904 63.2032411,164.663052 C63.2032411,160.634444 60.5733534,158.620139 58.4616809,157.003979 C56.4351565,155.450298 55.2824891,154.474406 55.2824891,152.530257 C55.2824891,150.586187 56.4272754,149.610335 58.4616809,148.056534 C60.5733534,146.440394 63.2032411,144.42607 63.2032411,140.397461 C63.2032411,136.368853 60.5733534,134.362343 58.4616809,132.738388 C56.4351565,131.184708 55.2824891,130.208815 55.2824891,128.264666 C55.2824891,126.320596 56.4272754,125.352539 58.4539582,123.798739 C60.5733534,122.182598 63.2032411,120.168274 63.2032411,116.14746 C63.2032411,112.126647 60.5733534,110.112343 58.4616809,108.496182 C56.4351565,106.942502 55.2824891,105.966609 55.2824891,104.030255 C55.2747466,102.086186 56.4272754,101.110333 58.4539582,99.5643277 Z M31.8747183,229.840813 C33.9863908,228.224673 36.6162785,226.210348 36.6162785,222.18174 C36.6162785,218.153131 33.9863908,216.146622 31.8747183,214.522667 C29.8481939,212.968986 28.6955265,211.993094 28.6955265,210.048944 C28.6955265,208.948092 27.8137289,208.05023 26.7153385,208.05023 C25.616948,208.05023 24.7351425,208.948092 24.7351425,210.048944 C24.7351425,214.077553 27.3650381,216.084062 29.4767106,217.708018 C31.503235,219.261698 32.6559025,220.23759 32.6559025,222.18174 C32.6559025,224.125889 31.5111162,225.101661 29.4767106,226.655462 C27.3650381,228.271602 24.7351425,230.285927 24.7351425,234.314535 C24.7351425,238.343144 27.3650381,240.357448 29.4767106,241.973608 C31.503235,243.527289 32.6559025,244.503181 32.6559025,246.447335 C32.6559025,247.548186 33.5377,248.446049 34.6360905,248.446049 C35.734481,248.446049 36.6162785,247.548186 36.6162785,246.447335 C36.6162785,242.418722 33.9863908,240.404418 31.8747183,238.788257 C29.8481939,237.234577 28.6955265,236.258685 28.6955265,234.314535 C28.6955265,232.370466 29.8480553,231.394613 31.8747183,229.840813 Z M140.312875,12.4371996 C144.304142,12.4371996 146.299775,9.78270714 147.900955,7.65127821 C149.440235,5.605794 150.407081,4.4423424 152.33321,4.4423424 C153.431601,4.4423424 154.313398,3.54447997 154.313398,2.4436281 C154.313398,1.34277624 153.431601,0.444913803 152.33321,0.444913803 C148.341943,0.444913803 146.34631,3.09940627 144.74513,5.2308352 C143.20585,7.27631941 142.239004,8.43977101 140.312875,8.43977101 C138.386746,8.43977101 137.420018,7.28427429 135.88062,5.2308352 C134.271717,3.09940627 132.276084,0.444913803 128.29254,0.444913803 C124.301273,0.444913803 122.305639,3.09940627 120.704459,5.2308352 C119.16518,7.27631941 118.198333,8.43977101 116.272204,8.43977101 C115.173814,8.43977101 114.292016,9.33763344 114.292016,10.4384853 C114.292016,11.5393372 115.173814,12.4371996 116.272204,12.4371996 C120.263471,12.4371996 122.259105,9.78270714 123.860285,7.65127821 C125.399564,5.605794 126.366411,4.4423424 128.29254,4.4423424 C130.226312,4.4423424 131.185396,5.5978591 132.724794,7.65127821 C134.325955,9.78270714 136.321608,12.4371996 140.312875,12.4371996 Z M44.8766151,15.1581089 C44.8766151,18.0000808 47.1740292,20.3187893 49.9894605,20.3187893 C52.8048918,20.3187893 55.102306,18.0078758 55.102306,15.1581089 C55.102306,12.3161371 52.8128126,9.9974286 49.9894605,9.9974286 C47.1738312,9.9974286 44.8766151,12.3163369 44.8766151,15.1581089 Z M104.823945,73.9844086 C99.8194162,73.9844086 95.7507239,69.8776503 95.7507239,64.8262996 C95.7507239,59.774949 99.8194162,55.6681907 104.823945,55.6681907 C109.828475,55.6681907 113.897167,59.774949 113.897167,64.8262996 C113.897167,69.8776503 109.828475,73.9844086 104.823945,73.9844086 Z M109.936791,64.8262996 C109.936791,61.9843278 107.647297,59.6656193 104.823945,59.6656193 C102.008316,59.6656193 99.7110999,61.9845276 99.7110999,64.8262996 C99.7110999,67.6680716 102.008514,69.98698 104.823945,69.98698 C107.639377,69.98698 109.936791,67.6760665 109.936791,64.8262996 Z M162.683059,161.841893 C162.683059,166.893244 158.614367,171 153.609837,171 C148.605308,171 144.536616,166.893244 144.536616,161.841893 C144.536616,156.790542 148.605308,152.683784 153.609837,152.683784 C158.606644,152.683784 162.683059,156.790542 162.683059,161.841893 Z M158.722683,161.841893 C158.722683,158.999921 156.433189,156.681213 153.609837,156.681213 C150.794208,156.681213 148.496992,158.992126 148.496992,161.841893 C148.496992,164.683865 150.786485,167.002573 153.609837,167.002573 C156.425467,167.002573 158.722683,164.683665 158.722683,161.841893 Z M88.2794745,126.754464 C88.2794745,121.703113 92.3481668,117.596355 97.352696,117.596355 C102.357225,117.596355 106.425917,121.703113 106.425917,126.754464 C106.425917,131.805814 102.357225,135.912572 97.352696,135.912572 C92.3558896,135.912572 88.2794745,131.798019 88.2794745,126.754464 Z M92.2398505,126.754464 C92.2398505,129.596435 94.5293439,131.915144 97.352696,131.915144 C100.168325,131.915144 102.465541,129.596236 102.465541,126.754464 C102.465541,123.912692 100.168127,121.593764 97.352696,121.593764 C94.5370667,121.585968 92.2398505,123.904697 92.2398505,126.754464 Z M19.9709089,73.6486246 C19.9709089,78.6999752 15.9022166,82.8067335 10.8976875,82.8067335 C5.89315833,82.8067335 1.8244581,78.6999752 1.8244581,73.6486246 C1.8244581,68.5972739 5.89315833,64.4905156 10.8976875,64.4905156 C15.9022166,64.4905156 19.9709089,68.5972739 19.9709089,73.6486246 Z M16.0105329,73.6486246 C16.0105329,70.8066527 13.7210395,68.4879442 10.8976875,68.4879442 C8.08205815,68.4879442 5.78484204,70.7988577 5.78484204,73.6486246 C5.78484204,76.4905964 8.08225617,78.8093049 10.8976875,78.8093049 C13.7210395,78.8093049 16.0105329,76.4903965 16.0105329,73.6486246 Z M168.508772,37.6317929 C168.508772,42.6831435 164.44008,46.7899018 159.43555,46.7899018 C154.431021,46.7899018 150.362329,42.6831435 150.362329,37.6317929 C150.362329,32.5804422 154.431021,28.4736839 159.43555,28.4736839 C164.432357,28.4736839 168.508772,32.5804422 168.508772,37.6317929 Z M164.548396,37.6317929 C164.548396,34.789821 162.258903,32.4711125 159.43555,32.4711125 C156.619921,32.4711125 154.322705,34.7900209 154.322705,37.6317929 C154.322705,40.4735648 156.612198,42.7924732 159.43555,42.7924732 C162.25118,42.7924732 164.548396,40.4815597 164.548396,37.6317929 Z M31.0401599,101.630625 C30.305332,100.888922 28.9593784,100.888922 28.2476988,101.630625 C28.0543136,101.810189 27.9150866,102.028809 27.8145327,102.286463 C27.7139787,102.528487 27.6598206,102.786141 27.6598206,103.043796 C27.6598206,103.309245 27.7139787,103.566899 27.8145327,103.808924 C27.9150866,104.050948 28.0543136,104.269567 28.2476988,104.449132 C28.6035188,104.831706 29.1217736,105.050305 29.6322858,105.050305 C30.1660059,105.050305 30.6842607,104.831686 31.0400807,104.449132 C31.2179808,104.269547 31.3804354,104.050948 31.4732468,103.808924 C31.5738008,103.566899 31.6124739,103.309245 31.6124739,103.051591 C31.6124739,102.793936 31.5738008,102.536302 31.4732468,102.294258 C31.3804156,102.028809 31.2179808,101.810189 31.0400807,101.630625 L31.0401599,101.630625 Z M44.8860305,59.6336399 C45.2418505,59.251066 45.4584237,58.7357774 45.4584237,58.2126739 C45.4584237,57.6739605 45.2418307,57.1742819 44.8860305,56.791708 C44.3291026,56.2295696 43.4627704,56.0500051 42.7280216,56.3544892 C42.4650329,56.4715939 42.2484399,56.6121435 42.0782823,56.791708 C41.9003822,56.9712725 41.7611354,57.1898918 41.6451162,57.4319162 C41.6064431,57.5724458 41.5677701,57.6895704 41.5445623,57.8144901 C41.529097,57.9550197 41.5058892,58.0721443 41.5058892,58.2126739 C41.5058892,58.7357774 41.7224822,59.251066 42.0782823,59.6336399 C42.4495676,59.9927888 42.9678224,60.2113882 43.4860772,60.2113882 C43.9965895,60.2191832 44.5071215,59.9927689 44.8861295,59.6336399 L44.8860305,59.6336399 Z M63.9144492,6.09008247 C63.5586292,6.47265638 63.342056,6.97233495 63.342056,7.51104842 C63.342056,7.76870268 63.3807291,8.02633695 63.4967483,8.26838125 C63.5973221,8.51040557 63.7365293,8.72902494 63.9144492,8.90858943 C64.293477,9.29116334 64.8039892,9.50976272 65.322244,9.50976272 C65.8404989,9.50976272 66.3510111,9.29114335 66.7300389,8.90858943 C66.9079588,8.72902494 67.0471858,8.51040557 67.1477398,8.26838125 C67.2482937,8.02635694 67.3024519,7.76870268 67.3024519,7.51104842 C67.3024519,6.97233495 67.0858589,6.47265638 66.7300587,6.09008247 C65.9720229,5.34837958 64.6492772,5.34837958 63.9144294,6.09008247 L63.9144492,6.09008247 Z M3.7979214,41.84908 C3.69736349,41.7866202 3.58132843,41.7319754 3.45756668,41.6695155 C3.33380493,41.6304607 3.21778571,41.5914258 3.07853889,41.5523909 C2.4287996,41.4352862 1.74810997,41.6304607 1.29945878,42.1145293 C0.928173526,42.4736782 0.703857828,42.9967818 0.703857828,43.5120703 C0.703857828,44.0507838 0.920450793,44.5738873 1.29945878,44.9330362 C1.67848656,45.3156101 2.18899884,45.5107846 2.70725364,45.5107846 C2.83101539,45.5107846 2.97024241,45.5107846 3.08628143,45.4717497 C3.22551241,45.4561397 3.34154746,45.4092899 3.46530922,45.370255 C3.58133635,45.3077952 3.69736745,45.2531503 3.80566393,45.1672656 C3.91395645,45.1048057 4.01451436,45.026736 4.0918605,44.9252412 C4.47088829,44.5660923 4.68746145,44.0429888 4.68746145,43.5042753 C4.68746145,42.9889868 4.47088829,42.4658833 4.0918605,42.1067343 C4.0145104,42.0052396 3.91395447,41.9271698 3.7979214,41.84908 Z M0.572393146,111.922005 C0.216573163,112.281154 0,112.804257 0,113.342971 C0,113.600625 0.0618808753,113.866074 0.154702188,114.100303 C0.255258116,114.342328 0.386760421,114.560947 0.572403047,114.740512 C0.943688299,115.123086 1.4619431,115.341685 1.98019791,115.341685 C2.11943087,115.341685 2.23546395,115.326055 2.37469097,115.30265 C2.49845272,115.263595 2.61447193,115.22456 2.73051095,115.185525 C2.84653809,115.123066 2.96256918,115.060606 3.06312313,114.998146 C3.17915027,114.920076 3.27971609,114.842006 3.38027004,114.740492 C3.55817805,114.560927 3.69741695,114.342308 3.7979709,114.100283 C3.89852683,113.858259 3.95267309,113.600605 3.95267309,113.342951 C3.95267309,112.804237 3.73608012,112.281134 3.38027994,111.921985 C2.64545197,111.188077 1.29949838,111.188077 0.572373344,111.921985 L0.572393146,111.922005 Z M90.4689684,92.51269 C90.5927302,92.4736551 90.7087494,92.4502302 90.8247884,92.3955653 C90.9485501,92.3331055 91.0645694,92.2784607 91.1806084,92.2160008 C91.2811623,92.1379311 91.3817163,92.0598613 91.4745475,91.9583466 C91.8303675,91.5991976 92.0469406,91.0760941 92.0469406,90.5608056 C92.0469406,90.0220921 91.8303477,89.5224135 91.4745475,89.1398396 C91.3817163,89.0383449 91.2811623,88.9602751 91.1806084,88.8978153 C91.0568466,88.8197455 90.9408274,88.7572857 90.8247884,88.6948259 C90.7087692,88.655791 90.5927302,88.6167561 90.4689684,88.5933312 C90.0744754,88.5152614 89.6799823,88.5542963 89.3241821,88.6948259 C89.0844012,88.7963206 88.8678082,88.9524801 88.6744428,89.1320446 C88.4965229,89.3116091 88.3572959,89.5302285 88.256742,89.7722528 C88.156188,90.0299071 88.1020299,90.2953563 88.1020299,90.5529906 C88.1020299,90.8106249 88.1639108,91.0760941 88.256742,91.3103234 C88.3572959,91.5523477 88.4965229,91.7709671 88.6744428,91.9505316 C89.0534706,92.3331055 89.5639829,92.5517049 90.0822377,92.5517049 C90.2059994,92.5595199 90.3297612,92.5360949 90.4689882,92.51267 L90.4689684,92.51269 Z M26.6692909,159.695474 C25.957651,158.953771 24.6116776,158.953771 23.8768298,159.695474 C23.6989099,159.875038 23.5364751,160.093658 23.4436637,160.335682 C23.3431097,160.593336 23.3044168,160.835361 23.3044168,161.11642 C23.3044168,161.374074 23.3431097,161.639523 23.4436637,161.873753 C23.5442176,162.115777 23.6989297,162.334396 23.8768298,162.513961 C24.2326498,162.896535 24.7509046,163.115134 25.2846247,163.115134 C25.7951369,163.115134 26.3133917,162.896515 26.6692117,162.513961 C26.8703196,162.334376 27.0095664,162.115777 27.1023778,161.873753 C27.2029318,161.631728 27.2570701,161.374074 27.2570701,161.11642 C27.2570701,160.835361 27.1951893,160.601131 27.1023778,160.335682 C27.0018239,160.093658 26.8625969,159.875038 26.6692117,159.695474 L26.6692909,159.695474 Z M125.060873,137.943466 C124.31056,137.646777 123.436505,137.826341 122.902864,138.365075 C122.701756,138.568064 122.562509,138.786684 122.469698,139.020893 C122.369144,139.262917 122.314986,139.520572 122.314986,139.778226 C122.314986,140.316939 122.531579,140.840043 122.910587,141.199192 C123.266407,141.581766 123.784661,141.77694 124.295174,141.77694 C124.55044,141.77694 124.805686,141.737905 125.068675,141.636391 C125.308456,141.519286 125.525049,141.378736 125.702949,141.199172 C125.803503,141.097677 125.880869,140.996182 125.958215,140.902483 C126.020096,140.785378 126.081977,140.683863 126.136135,140.558944 C126.174808,140.418414 126.213481,140.301289 126.236689,140.17637 C126.275362,140.03584 126.275362,139.918715 126.275362,139.778186 C126.275362,139.262897 126.074254,138.739794 125.702969,138.35722 C125.517326,138.18547 125.300753,138.044921 125.060952,137.943426 L125.060873,137.943466 Z M154.94191,132.485977 C154.740802,132.688966 154.601555,132.907585 154.508744,133.141815 C154.40819,133.383839 154.354032,133.641493 154.354032,133.899148 C154.354032,134.156802 154.415912,134.422251 154.508744,134.65648 C154.609298,134.914135 154.748525,135.140549 154.94191,135.312299 C155.019256,135.413793 155.11981,135.491863 155.235849,135.554323 C155.336403,135.632393 155.452442,135.694853 155.576204,135.757312 C155.699965,135.796347 155.815985,135.835382 155.955231,135.858807 C156.071251,135.897842 156.210497,135.897842 156.326517,135.897842 C156.844771,135.897842 157.355284,135.694853 157.734312,135.320094 C157.912212,135.140529 158.051458,134.92191 158.167478,134.664275 C158.268032,134.422251 158.306705,134.164597 158.306705,133.906943 C158.306705,133.649288 158.268032,133.391654 158.167478,133.14961 C158.043716,132.907585 157.912212,132.688966 157.734312,132.493792 C157.007206,131.767699 155.676698,131.752089 154.94185,132.485977 L154.94191,132.485977 Z M158.151993,78.9803948 C158.252547,79.0584646 158.368586,79.1209244 158.492347,79.1599593 C158.608367,79.2224191 158.724406,79.261454 158.863633,79.277064 C158.987394,79.3004889 159.118899,79.3160989 159.24266,79.3160989 C159.753173,79.3160989 160.271427,79.0974795 160.650455,78.7383505 C160.828355,78.5353611 160.99081,78.3167417 161.083621,78.0825124 C161.184175,77.8404881 161.222848,77.5828338 161.222848,77.3251796 C161.222848,76.7864661 161.02174,76.2867875 160.650455,75.9042136 C159.915627,75.1625107 158.592842,75.1625107 157.857994,75.9042136 C157.478966,76.2867875 157.262393,76.8020761 157.262393,77.3251796 C157.262393,77.5828338 157.324274,77.8482831 157.417085,78.0825124 C157.517659,78.3245367 157.656866,78.5431561 157.857994,78.7461455 C157.93536,78.8242353 158.028171,78.9023051 158.151933,78.9803748 L158.151993,78.9803948 Z M7.00818239,8.90747015 C7.10873634,8.82938038 7.18610229,8.72788567 7.26344843,8.610781 C7.34081438,8.50928629 7.40269525,8.39216163 7.44136832,8.26724199 C7.5032492,8.15011733 7.54192227,8.02521767 7.55738754,7.88466808 C7.58059534,7.76754343 7.59606061,7.62701382 7.59606061,7.50209418 C7.59606061,6.96338071 7.37948745,6.46370214 7.00045966,6.08112823 C6.28881969,5.33942534 4.94285026,5.33942534 4.20800249,6.08112823 C3.85218251,6.44027721 3.63560934,6.96338071 3.63560934,7.50209418 C3.63560934,8.01738271 3.85220231,8.54048622 4.20800249,8.89963519 C4.57928774,9.2822091 5.07433078,9.50080848 5.61579339,9.50080848 C6.1340482,9.50860347 6.64456047,9.29000408 7.00812299,8.90745017 L7.00818239,8.90747015 Z M117.039329,27.7157715 C117.27911,27.6142768 117.495703,27.4737472 117.689068,27.2941627 C118.044888,26.9115888 118.261462,26.3963002 118.261462,25.8731967 C118.261462,25.3500932 118.044869,24.8348047 117.689068,24.4522308 C117.487961,24.2726463 117.271368,24.1321167 117.039329,24.030622 C116.304501,23.7105079 115.438169,23.8900724 114.88132,24.4522308 C114.5255,24.8348047 114.308927,25.3344833 114.308927,25.8731967 C114.308927,26.3884853 114.5255,26.9115888 114.88132,27.2941627 C115.260348,27.6533116 115.755395,27.871911 116.289115,27.871911 C116.544381,27.879706 116.799627,27.8172462 117.039428,27.7157515 L117.039329,27.7157715 Z M120.288026,103.588965 C120.187452,103.510875 120.071433,103.448415 119.947671,103.409381 C119.823909,103.346921 119.70789,103.307886 119.568643,103.292276 C118.934369,103.175171 118.261402,103.370346 117.789563,103.830989 C117.433743,104.213563 117.21717,104.728852 117.21717,105.251955 C117.21717,105.767244 117.433743,106.290347 117.789563,106.672921 C118.168591,107.03207 118.679103,107.25067 119.197358,107.25067 C119.32112,107.25067 119.460347,107.227245 119.576386,107.211635 C119.715613,107.18821 119.831652,107.149175 119.955413,107.09453 C120.071433,107.055475 120.187472,106.993015 120.295768,106.914946 C120.411787,106.852486 120.512361,106.758806 120.589707,106.672921 C120.968735,106.290347 121.185308,105.775059 121.185308,105.251955 C121.185308,104.728852 120.968715,104.213563 120.589707,103.830989 C120.504619,103.745105 120.404065,103.64361 120.288045,103.588965 L120.288026,103.588965 Z M157.858133,9.76729706 C157.479105,10.126446 157.262532,10.6495495 157.262532,11.188263 C157.262532,11.3053877 157.277997,11.4459173 157.301205,11.5708369 C157.339878,11.6879616 157.363086,11.8284912 157.424967,11.9534108 C157.486847,12.0705355 157.540986,12.1954351 157.602867,12.2969498 C157.680213,12.3984645 157.757579,12.5155692 157.858133,12.593639 C158.213953,12.9762129 158.724465,13.1713873 159.24272,13.1713873 C159.77644,13.1713873 160.294695,12.9683979 160.650515,12.593639 C161.0218,12.23449 161.222908,11.7113865 161.222908,11.196098 C161.222908,10.6573845 161.0218,10.134281 160.650515,9.77513202 C159.915687,9.02561415 158.585179,9.0100042 157.858053,9.76733703 L157.858133,9.76729706 Z" id="Fill-1"></path>
                            <path d="M118.023985,218.959582 C118.023985,220.060434 117.142187,220.958296 116.043797,220.958296 C112.05253,220.958296 110.056896,218.303804 108.455716,216.172375 C106.916437,214.126891 105.94959,212.963439 104.023462,212.963439 C102.097412,212.963439 101.130605,214.118936 99.5912067,216.172375 C97.9900465,218.303804 95.9943932,220.958296 92.010849,220.958296 C88.0273048,220.958296 86.0316713,218.303804 84.4304913,216.172375 C82.891212,214.126891 81.9320881,212.963439 80.0059592,212.963439 C78.0799095,212.963439 77.1131026,214.118936 75.5814271,216.172375 C73.9802669,218.303804 71.9846136,220.958296 68.0010694,220.958296 C64.0175252,220.958296 62.0218917,218.303804 60.4207117,216.172375 C58.8814323,214.126891 57.9223085,212.963439 55.9961796,212.963439 C54.8977891,212.963439 54.0159916,212.065577 54.0159916,210.964725 C54.0159916,209.863873 54.8977891,208.96601 55.9961796,208.96601 C59.9797238,208.96601 61.9753573,211.620503 63.5765373,213.751932 C65.1158167,215.797416 66.0826633,216.960868 68.0010694,216.960868 C69.9271191,216.960868 70.8939261,215.805371 72.4256015,213.751932 C74.0267617,211.620503 76.022415,208.96601 80.0059592,208.96601 C83.9895034,208.96601 85.9851369,211.620503 87.5863169,213.751932 C89.1255963,215.797416 90.0847201,216.960868 92.010849,216.960868 C93.9368987,216.960868 94.9037057,215.805371 96.4353811,213.751932 C98.0365413,211.620503 100.032195,208.96601 104.023462,208.96601 C108.014729,208.96601 110.010362,211.620503 111.611542,213.751932 C113.150821,215.797416 114.117668,216.960868 116.043797,216.960868 C117.142187,216.960868 118.023985,217.850915 118.023985,218.959582 Z M139.73466,239.564328 C141.854055,237.948187 144.483943,235.933863 144.483943,231.91305 C144.483943,230.812198 143.602145,229.914335 142.503755,229.914335 C141.405364,229.914335 140.523567,230.812198 140.523567,231.91305 C140.523567,233.857119 139.378781,234.825176 137.344375,236.378977 C135.232703,237.995117 132.602815,240.009441 132.602815,244.030255 C132.602815,248.051069 135.232703,250.065373 137.344375,251.681533 C139.370899,253.235214 140.523567,254.211106 140.523567,256.14746 C140.523567,258.09153 139.378781,259.059587 137.352098,260.613388 C135.232703,262.229528 132.602815,264.243852 132.602815,268.264666 C132.602815,272.293274 135.232703,274.299784 137.344375,275.923739 C139.370899,277.47742 140.523567,278.453312 140.523567,280.397461 C140.523567,282.341611 139.378781,283.317383 137.344375,284.871183 C135.232703,286.487324 132.602815,288.501648 132.602815,292.530257 C132.602815,296.558865 135.232703,298.57317 137.344375,300.18933 C139.370899,301.74301 140.523567,302.718903 140.523567,304.663052 C140.523567,305.763904 141.405364,306.661766 142.503755,306.661766 C143.602145,306.661766 144.483943,305.763904 144.483943,304.663052 C144.483943,300.634444 141.854055,298.620139 139.742383,297.003979 C137.715858,295.450298 136.563191,294.474406 136.563191,292.530257 C136.563191,290.586187 137.707977,289.610335 139.742383,288.056534 C141.854055,286.440394 144.483943,284.42607 144.483943,280.397461 C144.483943,276.368853 141.854055,274.362343 139.742383,272.738388 C137.715858,271.184708 136.563191,270.208815 136.563191,268.264666 C136.563191,266.320596 137.707977,265.352539 139.73466,263.798739 C141.854055,262.182598 144.483943,260.168274 144.483943,256.14746 C144.483943,252.126647 141.854055,250.112343 139.742383,248.496182 C137.715858,246.942502 136.563191,245.966609 136.563191,244.030255 C136.555448,242.086186 137.707977,241.110333 139.73466,239.564328 Z M62.5528719,258.630263 C64.6722671,257.014123 67.3021548,254.999799 67.3021548,250.978985 C67.3021548,249.878133 66.4203573,248.980271 65.3219668,248.980271 C64.2235763,248.980271 63.3417788,249.878133 63.3417788,250.978985 C63.3417788,252.923055 62.1969925,253.891112 60.1703097,255.444912 C58.0509145,257.061053 55.4210268,259.075377 55.4210268,263.096191 C55.4210268,267.124799 58.0509145,269.131308 60.162587,270.755264 C62.1891114,272.308944 63.3417788,273.284837 63.3417788,275.228986 C63.3417788,277.173055 62.1969925,278.148908 60.162587,279.702708 C58.0509145,281.318849 55.4210268,283.333173 55.4210268,287.361781 C55.4210268,291.39039 58.0509145,293.404694 60.162587,295.020855 C62.1891114,296.574535 63.3417788,297.550427 63.3417788,299.494577 C63.3417788,300.595429 64.2235763,301.493291 65.3219668,301.493291 C66.4203573,301.493291 67.3021548,300.595429 67.3021548,299.494577 C67.3021548,295.465968 64.6722671,293.451664 62.5605946,291.835504 C60.5340702,290.281823 59.3814028,289.305931 59.3814028,287.361781 C59.3814028,285.417632 60.5261891,284.44186 62.5605946,282.888059 C64.6722671,281.271919 67.3021548,279.257595 67.3021548,275.228986 C67.3021548,271.200377 64.6722671,269.193868 62.5605946,267.569913 C60.5340702,266.016232 59.3814028,265.04034 59.3814028,263.096191 C59.3736603,261.159936 60.5261891,260.184064 62.5528719,258.630263 Z M12.0501569,330.840813 C14.1618294,329.224673 16.7917171,327.210348 16.7917171,323.18174 C16.7917171,319.153131 14.1618294,317.146622 12.0501569,315.522667 C10.0236325,313.968986 8.87096506,312.993094 8.87096506,311.048944 C8.87096506,309.948092 7.98916753,309.05023 6.89077705,309.05023 C5.79238656,309.05023 4.91058112,309.948092 4.91058112,311.048944 C4.91058112,315.077553 7.54047673,317.084062 9.65214923,318.708018 C11.6786736,320.261698 12.8313411,321.23759 12.8313411,323.18174 C12.8313411,325.125889 11.6865548,326.101661 9.65214923,327.655462 C7.54047673,329.271602 4.91058112,331.285927 4.91058112,335.314535 C4.91058112,339.343144 7.54047673,341.357448 9.65214923,342.973608 C11.6786736,344.527289 12.8313411,345.503181 12.8313411,347.447335 C12.8313411,348.548186 13.7131386,349.446049 14.8115291,349.446049 C15.9099196,349.446049 16.7917171,348.548186 16.7917171,347.447335 C16.7917171,343.418722 14.1618294,341.404418 12.0501569,339.788257 C10.0236325,338.234577 8.87096506,337.258685 8.87096506,335.314535 C8.87096506,333.370466 10.0234939,332.394613 12.0501569,330.840813 Z M140.312875,193.4372 C144.304142,193.4372 146.299775,190.782707 147.900955,188.651278 C149.440235,186.605794 150.407081,185.442342 152.33321,185.442342 C153.431601,185.442342 154.313398,184.54448 154.313398,183.443628 C154.313398,182.342776 153.431601,181.444914 152.33321,181.444914 C148.341943,181.444914 146.34631,184.099406 144.74513,186.230835 C143.20585,188.276319 142.239004,189.439771 140.312875,189.439771 C138.386746,189.439771 137.420018,188.284274 135.88062,186.230835 C134.271717,184.099406 132.276084,181.444914 128.29254,181.444914 C124.301273,181.444914 122.305639,184.099406 120.704459,186.230835 C119.16518,188.276319 118.198333,189.439771 116.272204,189.439771 C115.173814,189.439771 114.292016,190.337633 114.292016,191.438485 C114.292016,192.539337 115.173814,193.4372 116.272204,193.4372 C120.263471,193.4372 122.259105,190.782707 123.860285,188.651278 C125.399564,186.605794 126.366411,185.442342 128.29254,185.442342 C130.226312,185.442342 131.185396,186.597859 132.724794,188.651278 C134.325955,190.782707 136.321608,193.4372 140.312875,193.4372 Z M56.7758882,189.158109 C56.7758882,184.106758 60.8445805,180 65.8491096,180 C70.8536388,180 74.9223311,184.106758 74.9223311,189.158109 C74.9223311,194.20946 70.8536388,198.316229 65.8491096,198.316229 C60.8523032,198.324033 56.7758882,194.20946 56.7758882,189.158109 Z M60.7362642,189.158109 C60.7362642,192.000081 63.0336783,194.318789 65.8491096,194.318789 C68.664541,194.318789 70.9619551,192.007876 70.9619551,189.158109 C70.9619551,186.316137 68.6724617,183.997429 65.8491096,183.997429 C63.0334803,183.997429 60.7362642,186.316337 60.7362642,189.158109 Z M104.823945,254.984409 C99.8194162,254.984409 95.7507239,250.87765 95.7507239,245.8263 C95.7507239,240.774949 99.8194162,236.668191 104.823945,236.668191 C109.828475,236.668191 113.897167,240.774949 113.897167,245.8263 C113.897167,250.87765 109.828475,254.984409 104.823945,254.984409 Z M109.936791,245.8263 C109.936791,242.984328 107.647297,240.665619 104.823945,240.665619 C102.008316,240.665619 99.7110999,242.984528 99.7110999,245.8263 C99.7110999,248.668072 102.008514,250.98698 104.823945,250.98698 C107.639377,250.98698 109.936791,248.676066 109.936791,245.8263 Z M162.683059,342.841893 C162.683059,347.893244 158.614367,352 153.609837,352 C148.605308,352 144.536616,347.893244 144.536616,342.841893 C144.536616,337.790542 148.605308,333.683784 153.609837,333.683784 C158.606644,333.683784 162.683059,337.790542 162.683059,342.841893 Z M158.722683,342.841893 C158.722683,339.999921 156.433189,337.681213 153.609837,337.681213 C150.794208,337.681213 148.496992,339.992126 148.496992,342.841893 C148.496992,345.683865 150.786485,348.002573 153.609837,348.002573 C156.425467,348.002573 158.722683,345.683665 158.722683,342.841893 Z M88.2794745,307.754464 C88.2794745,302.703113 92.3481668,298.596355 97.352696,298.596355 C102.357225,298.596355 106.425917,302.703113 106.425917,307.754464 C106.425917,312.805814 102.357225,316.912572 97.352696,316.912572 C92.3558896,316.912572 88.2794745,312.798019 88.2794745,307.754464 Z M92.2398505,307.754464 C92.2398505,310.596435 94.5293439,312.915144 97.352696,312.915144 C100.168325,312.915144 102.465541,310.596236 102.465541,307.754464 C102.465541,304.912692 100.168127,302.593764 97.352696,302.593764 C94.5370667,302.585968 92.2398505,304.904697 92.2398505,307.754464 Z M56.9132965,329.608406 C56.9132965,334.659756 52.8446042,338.766515 47.840075,338.766515 C42.8355458,338.766515 38.7668535,334.659756 38.7668535,329.608406 C38.7668535,324.557055 42.8355458,320.450297 47.840075,320.450297 C52.8446042,320.450297 56.9132965,324.557055 56.9132965,329.608406 Z M52.9529204,329.608406 C52.9529204,326.766434 50.6634271,324.447725 47.840075,324.447725 C45.0244457,324.447725 42.7272296,326.766634 42.7272296,329.608406 C42.7272296,332.450178 45.0246437,334.769086 47.840075,334.769086 C50.6634271,334.769086 52.9529204,332.458173 52.9529204,329.608406 Z M16.0105329,254.648625 C16.0105329,251.806653 13.7210395,249.487944 10.8976875,249.487944 C8.08205815,249.487944 5.78484204,251.798858 5.78484204,254.648625 C5.78484204,257.490596 8.08225617,259.809305 10.8976875,259.809305 C13.7210395,259.809305 16.0105329,257.490397 16.0105329,254.648625 Z M168.508772,218.631793 C168.508772,223.683144 164.44008,227.789902 159.43555,227.789902 C154.431021,227.789902 150.362329,223.683144 150.362329,218.631793 C150.362329,213.580442 154.431021,209.473684 159.43555,209.473684 C164.432357,209.473684 168.508772,213.580442 168.508772,218.631793 Z M164.548396,218.631793 C164.548396,215.789821 162.258903,213.471113 159.43555,213.471113 C156.619921,213.471113 154.322705,215.790021 154.322705,218.631793 C154.322705,221.473565 156.612198,223.792473 159.43555,223.792473 C162.25118,223.792473 164.548396,221.48156 164.548396,218.631793 Z M31.0401599,282.630625 C30.305332,281.888922 28.9593784,281.888922 28.2476988,282.630625 C28.0543136,282.810189 27.9150866,283.028809 27.8145327,283.286463 C27.7139787,283.528487 27.6598206,283.786141 27.6598206,284.043796 C27.6598206,284.309245 27.7139787,284.566899 27.8145327,284.808924 C27.9150866,285.050948 28.0543136,285.269567 28.2476988,285.449132 C28.6035188,285.831706 29.1217736,286.050305 29.6322858,286.050305 C30.1660059,286.050305 30.6842607,285.831686 31.0400807,285.449132 C31.2179808,285.269547 31.3804354,285.050948 31.4732468,284.808924 C31.5738008,284.566899 31.6124739,284.309245 31.6124739,284.051591 C31.6124739,283.793936 31.5738008,283.536302 31.4732468,283.294258 C31.3804156,283.028809 31.2179808,282.810189 31.0400807,282.630625 L31.0401599,282.630625 Z M44.8860305,240.63364 C45.2418505,240.251066 45.4584237,239.735777 45.4584237,239.212674 C45.4584237,238.67396 45.2418307,238.174282 44.8860305,237.791708 C44.3291026,237.22957 43.4627704,237.050005 42.7280216,237.354489 C42.4650329,237.471594 42.2484399,237.612143 42.0782823,237.791708 C41.9003822,237.971272 41.7611354,238.189892 41.6451162,238.431916 C41.6064431,238.572446 41.5677701,238.68957 41.5445623,238.81449 C41.529097,238.95502 41.5058892,239.072144 41.5058892,239.212674 C41.5058892,239.735777 41.7224822,240.251066 42.0782823,240.63364 C42.4495676,240.992789 42.9678224,241.211388 43.4860772,241.211388 C43.9965895,241.219183 44.5071215,240.992769 44.8861295,240.63364 L44.8860305,240.63364 Z M3.7979214,222.84908 C3.69736349,222.78662 3.58132843,222.731975 3.45756668,222.669516 C3.33380493,222.630461 3.21778571,222.591426 3.07853889,222.552391 C2.4287996,222.435286 1.74810997,222.630461 1.29945878,223.114529 C0.928173526,223.473678 0.703857828,223.996782 0.703857828,224.51207 C0.703857828,225.050784 0.920450793,225.573887 1.29945878,225.933036 C1.67848656,226.31561 2.18899884,226.510785 2.70725364,226.510785 C2.83101539,226.510785 2.97024241,226.510785 3.08628143,226.47175 C3.22551241,226.45614 3.34154746,226.40929 3.46530922,226.370255 C3.58133635,226.307795 3.69736745,226.25315 3.80566393,226.167266 C3.91395645,226.104806 4.01451436,226.026736 4.0918605,225.925241 C4.47088829,225.566092 4.68746145,225.042989 4.68746145,224.504275 C4.68746145,223.988987 4.47088829,223.465883 4.0918605,223.106734 C4.0145104,223.00524 3.91395447,222.92717 3.7979214,222.84908 Z M0.572393146,292.922005 C0.216573163,293.281154 0,293.804257 0,294.342971 C0,294.600625 0.0618808753,294.866074 0.154702188,295.100303 C0.255258116,295.342328 0.386760421,295.560947 0.572403047,295.740512 C0.943688299,296.123086 1.4619431,296.341685 1.98019791,296.341685 C2.11943087,296.341685 2.23546395,296.326055 2.37469097,296.30265 C2.49845272,296.263595 2.61447193,296.22456 2.73051095,296.185525 C2.84653809,296.123066 2.96256918,296.060606 3.06312313,295.998146 C3.17915027,295.920076 3.27971609,295.842006 3.38027004,295.740492 C3.55817805,295.560927 3.69741695,295.342308 3.7979709,295.100283 C3.89852683,294.858259 3.95267309,294.600605 3.95267309,294.342951 C3.95267309,293.804237 3.73608012,293.281134 3.38027994,292.921985 C2.64545197,292.188077 1.29949838,292.188077 0.572373344,292.921985 L0.572393146,292.922005 Z M90.4689684,273.51269 C90.5927302,273.473655 90.7087494,273.45023 90.8247884,273.395565 C90.9485501,273.333106 91.0645694,273.278461 91.1806084,273.216001 C91.2811623,273.137931 91.3817163,273.059861 91.4745475,272.958347 C91.8303675,272.599198 92.0469406,272.076094 92.0469406,271.560806 C92.0469406,271.022092 91.8303477,270.522414 91.4745475,270.13984 C91.3817163,270.038345 91.2811623,269.960275 91.1806084,269.897815 C91.0568466,269.819746 90.9408274,269.757286 90.8247884,269.694826 C90.7087692,269.655791 90.5927302,269.616756 90.4689684,269.593331 C90.0744754,269.515261 89.6799823,269.554296 89.3241821,269.694826 C89.0844012,269.796321 88.8678082,269.95248 88.6744428,270.132045 C88.4965229,270.311609 88.3572959,270.530229 88.256742,270.772253 C88.156188,271.029907 88.1020299,271.295356 88.1020299,271.552991 C88.1020299,271.810625 88.1639108,272.076094 88.256742,272.310323 C88.3572959,272.552348 88.4965229,272.770967 88.6744428,272.950532 C89.0534706,273.333106 89.5639829,273.551705 90.0822377,273.551705 C90.2059994,273.55952 90.3297612,273.536095 90.4689882,273.51267 L90.4689684,273.51269 Z M26.6692909,340.695474 C25.957651,339.953771 24.6116776,339.953771 23.8768298,340.695474 C23.6989099,340.875038 23.5364751,341.093658 23.4436637,341.335682 C23.3431097,341.593336 23.3044168,341.835361 23.3044168,342.11642 C23.3044168,342.374074 23.3431097,342.639523 23.4436637,342.873753 C23.5442176,343.115777 23.6989297,343.334396 23.8768298,343.513961 C24.2326498,343.896535 24.7509046,344.115134 25.2846247,344.115134 C25.7951369,344.115134 26.3133917,343.896515 26.6692117,343.513961 C26.8703196,343.334376 27.0095664,343.115777 27.1023778,342.873753 C27.2029318,342.631728 27.2570701,342.374074 27.2570701,342.11642 C27.2570701,341.835361 27.1951893,341.601131 27.1023778,341.335682 C27.0018239,341.093658 26.8625969,340.875038 26.6692117,340.695474 L26.6692909,340.695474 Z M125.060873,318.943466 C124.31056,318.646777 123.436505,318.826341 122.902864,319.365075 C122.701756,319.568064 122.562509,319.786684 122.469698,320.020893 C122.369144,320.262917 122.314986,320.520572 122.314986,320.778226 C122.314986,321.316939 122.531579,321.840043 122.910587,322.199192 C123.266407,322.581766 123.784661,322.77694 124.295174,322.77694 C124.55044,322.77694 124.805686,322.737905 125.068675,322.636391 C125.308456,322.519286 125.525049,322.378736 125.702949,322.199172 C125.803503,322.097677 125.880869,321.996182 125.958215,321.902483 C126.020096,321.785378 126.081977,321.683863 126.136135,321.558944 C126.174808,321.418414 126.213481,321.301289 126.236689,321.17637 C126.275362,321.03584 126.275362,320.918715 126.275362,320.778186 C126.275362,320.262897 126.074254,319.739794 125.702969,319.35722 C125.517326,319.18547 125.300753,319.044921 125.060952,318.943426 L125.060873,318.943466 Z M154.94191,313.485977 C154.740802,313.688966 154.601555,313.907585 154.508744,314.141815 C154.40819,314.383839 154.354032,314.641493 154.354032,314.899148 C154.354032,315.156802 154.415912,315.422251 154.508744,315.65648 C154.609298,315.914135 154.748525,316.140549 154.94191,316.312299 C155.019256,316.413793 155.11981,316.491863 155.235849,316.554323 C155.336403,316.632393 155.452442,316.694853 155.576204,316.757312 C155.699965,316.796347 155.815985,316.835382 155.955231,316.858807 C156.071251,316.897842 156.210497,316.897842 156.326517,316.897842 C156.844771,316.897842 157.355284,316.694853 157.734312,316.320094 C157.912212,316.140529 158.051458,315.92191 158.167478,315.664275 C158.268032,315.422251 158.306705,315.164597 158.306705,314.906943 C158.306705,314.649288 158.268032,314.391654 158.167478,314.14961 C158.043716,313.907585 157.912212,313.688966 157.734312,313.493792 C157.007206,312.767699 155.676698,312.752089 154.94185,313.485977 L154.94191,313.485977 Z M158.151993,259.980395 C158.252547,260.058465 158.368586,260.120924 158.492347,260.159959 C158.608367,260.222419 158.724406,260.261454 158.863633,260.277064 C158.987394,260.300489 159.118899,260.316099 159.24266,260.316099 C159.753173,260.316099 160.271427,260.09748 160.650455,259.738351 C160.828355,259.535361 160.99081,259.316742 161.083621,259.082512 C161.184175,258.840488 161.222848,258.582834 161.222848,258.32518 C161.222848,257.786466 161.02174,257.286788 160.650455,256.904214 C159.915627,256.162511 158.592842,256.162511 157.857994,256.904214 C157.478966,257.286788 157.262393,257.802076 157.262393,258.32518 C157.262393,258.582834 157.324274,258.848283 157.417085,259.082512 C157.517659,259.324537 157.656866,259.543156 157.857994,259.746146 C157.93536,259.824235 158.028171,259.902305 158.151933,259.980375 L158.151993,259.980395 Z M7.00818239,189.90747 C7.10873634,189.82938 7.18610229,189.727886 7.26344843,189.610781 C7.34081438,189.509286 7.40269525,189.392162 7.44136832,189.267242 C7.5032492,189.150117 7.54192227,189.025218 7.55738754,188.884668 C7.58059534,188.767543 7.59606061,188.627014 7.59606061,188.502094 C7.59606061,187.963381 7.37948745,187.463702 7.00045966,187.081128 C6.28881969,186.339425 4.94285026,186.339425 4.20800249,187.081128 C3.85218251,187.440277 3.63560934,187.963381 3.63560934,188.502094 C3.63560934,189.017383 3.85220231,189.540486 4.20800249,189.899635 C4.57928774,190.282209 5.07433078,190.500808 5.61579339,190.500808 C6.1340482,190.508603 6.64456047,190.290004 7.00812299,189.90745 L7.00818239,189.90747 Z M117.039329,208.715771 C117.27911,208.614277 117.495703,208.473747 117.689068,208.294163 C118.044888,207.911589 118.261462,207.3963 118.261462,206.873197 C118.261462,206.350093 118.044869,205.834805 117.689068,205.452231 C117.487961,205.272646 117.271368,205.132117 117.039329,205.030622 C116.304501,204.710508 115.438169,204.890072 114.88132,205.452231 C114.5255,205.834805 114.308927,206.334483 114.308927,206.873197 C114.308927,207.388485 114.5255,207.911589 114.88132,208.294163 C115.260348,208.653312 115.755395,208.871911 116.289115,208.871911 C116.544381,208.879706 116.799627,208.817246 117.039428,208.715751 L117.039329,208.715771 Z M120.288026,284.588965 C120.187452,284.510875 120.071433,284.448415 119.947671,284.409381 C119.823909,284.346921 119.70789,284.307886 119.568643,284.292276 C118.934369,284.175171 118.261402,284.370346 117.789563,284.830989 C117.433743,285.213563 117.21717,285.728852 117.21717,286.251955 C117.21717,286.767244 117.433743,287.290347 117.789563,287.672921 C118.168591,288.03207 118.679103,288.25067 119.197358,288.25067 C119.32112,288.25067 119.460347,288.227245 119.576386,288.211635 C119.715613,288.18821 119.831652,288.149175 119.955413,288.09453 C120.071433,288.055475 120.187472,287.993015 120.295768,287.914946 C120.411787,287.852486 120.512361,287.758806 120.589707,287.672921 C120.968735,287.290347 121.185308,286.775059 121.185308,286.251955 C121.185308,285.728852 120.968715,285.213563 120.589707,284.830989 C120.504619,284.745105 120.404065,284.64361 120.288045,284.588965 L120.288026,284.588965 Z M157.858133,190.767297 C157.479105,191.126446 157.262532,191.64955 157.262532,192.188263 C157.262532,192.305388 157.277997,192.445917 157.301205,192.570837 C157.339878,192.687962 157.363086,192.828491 157.424967,192.953411 C157.486847,193.070535 157.540986,193.195435 157.602867,193.29695 C157.680213,193.398465 157.757579,193.515569 157.858133,193.593639 C158.213953,193.976213 158.724465,194.171387 159.24272,194.171387 C159.77644,194.171387 160.294695,193.968398 160.650515,193.593639 C161.0218,193.23449 161.222908,192.711386 161.222908,192.196098 C161.222908,191.657384 161.0218,191.134281 160.650515,190.775132 C159.915687,190.025614 158.585179,190.010004 157.858053,190.767337 L157.858133,190.767297 Z" id="Fill-1"></path>
                        </g>
                        <g id="Group-25" transform="translate(961.491228, 0.000000)">
                            <path d="M136.857318,10.959582 C136.857318,12.0604339 135.975521,12.9582963 134.87713,12.9582963 C130.885863,12.9582963 128.89023,10.3038038 127.28905,8.17237491 C125.74977,6.12689069 124.782924,4.9634391 122.856795,4.9634391 C120.930745,4.9634391 119.963938,6.11893581 118.42454,8.17237491 C116.82338,10.3038038 114.827727,12.9582963 110.844182,12.9582963 C106.860638,12.9582963 104.865005,10.3038038 103.263825,8.17237491 C101.724545,6.12689069 100.765421,4.9634391 98.8392926,4.9634391 C96.9132429,4.9634391 95.9464359,6.11893581 94.4147605,8.17237491 C92.8136002,10.3038038 90.817947,12.9582963 86.8344027,12.9582963 C82.8508585,12.9582963 80.855225,10.3038038 79.254045,8.17237491 C77.7147657,6.12689069 76.7556418,4.9634391 74.8295129,4.9634391 C73.7311224,4.9634391 72.8493249,4.06557666 72.8493249,2.9647248 C72.8493249,1.86387293 73.7311224,0.966010496 74.8295129,0.966010496 C78.8130572,0.966010496 80.8086906,3.62050296 82.4098707,5.75193189 C83.94915,7.7974161 84.9159966,8.9608677 86.8344027,8.9608677 C88.7604524,8.9608677 89.7272594,7.80537099 91.2589348,5.75193189 C92.8600951,3.62050296 94.8557483,0.966010496 98.8392926,0.966010496 C102.822837,0.966010496 104.81847,3.62050296 106.41965,5.75193189 C107.95893,7.7974161 108.918053,8.9608677 110.844182,8.9608677 C112.770232,8.9608677 113.737039,7.80537099 115.268714,5.75193189 C116.869875,3.62050296 118.865528,0.966010496 122.856795,0.966010496 C126.848062,0.966010496 128.843695,3.62050296 130.444875,5.75193189 C131.984155,7.7974161 132.951001,8.9608677 134.87713,8.9608677 C135.975521,8.9608677 136.857318,9.85091516 136.857318,10.959582 Z M120.901327,71.5643277 C123.020722,69.9481873 125.65061,67.9338631 125.65061,63.9130495 C125.65061,62.8121976 124.768812,61.9143352 123.670422,61.9143352 C122.572031,61.9143352 121.690234,62.8121976 121.690234,63.9130495 C121.690234,65.857119 120.545447,66.8251762 118.511042,68.3789767 C116.399369,69.9951171 113.769481,72.0094414 113.769481,76.030255 C113.769481,80.0510685 116.399369,82.0653728 118.511042,83.6815332 C120.537566,85.2352137 121.690234,86.211106 121.690234,88.1474604 C121.690234,90.0915299 120.545447,91.0595871 118.518764,92.6133876 C116.399369,94.229528 113.769481,96.2438523 113.769481,100.264666 C113.769481,104.293274 116.399369,106.299784 118.511042,107.923739 C120.537566,109.47742 121.690234,110.453312 121.690234,112.397461 C121.690234,114.341611 120.545447,115.317383 118.511042,116.871183 C116.399369,118.487324 113.769481,120.501648 113.769481,124.530257 C113.769481,128.558865 116.399369,130.57317 118.511042,132.18933 C120.537566,133.74301 121.690234,134.718903 121.690234,136.663052 C121.690234,137.763904 122.572031,138.661766 123.670422,138.661766 C124.768812,138.661766 125.65061,137.763904 125.65061,136.663052 C125.65061,132.634444 123.020722,130.620139 120.909049,129.003979 C118.882525,127.450298 117.729858,126.474406 117.729858,124.530257 C117.729858,122.586187 118.874644,121.610335 120.909049,120.056534 C123.020722,118.440394 125.65061,116.42607 125.65061,112.397461 C125.65061,108.368853 123.020722,106.362343 120.909049,104.738388 C118.882525,103.184708 117.729858,102.208815 117.729858,100.264666 C117.729858,98.3205964 118.874644,97.3525391 120.901327,95.7987386 C123.020722,94.1825982 125.65061,92.168274 125.65061,88.1474604 C125.65061,84.1266468 123.020722,82.1123426 120.909049,80.4961822 C118.882525,78.9425016 117.729858,77.9666094 117.729858,76.030255 C117.722115,74.0861855 118.874644,73.1103332 120.901327,71.5643277 Z M62.5528719,79.6302633 C64.6722671,78.0141229 67.3021548,75.9997987 67.3021548,71.9789851 C67.3021548,70.8781332 66.4203573,69.9802708 65.3219668,69.9802708 C64.2235763,69.9802708 63.3417788,70.8781332 63.3417788,71.9789851 C63.3417788,73.9230545 62.1969925,74.8911118 60.1703097,76.4449123 C58.0509145,78.0610527 55.4210268,80.075377 55.4210268,84.0961905 C55.4210268,88.1247991 58.0509145,90.1313084 60.162587,91.7552637 C62.1891114,93.3089443 63.3417788,94.2848366 63.3417788,96.228986 C63.3417788,98.1730554 62.1969925,99.1489077 60.162587,100.702708 C58.0509145,102.318849 55.4210268,104.333173 55.4210268,108.361781 C55.4210268,112.39039 58.0509145,114.404694 60.162587,116.020855 C62.1891114,117.574535 63.3417788,118.550427 63.3417788,120.494577 C63.3417788,121.595429 64.2235763,122.493291 65.3219668,122.493291 C66.4203573,122.493291 67.3021548,121.595429 67.3021548,120.494577 C67.3021548,116.465968 64.6722671,114.451664 62.5605946,112.835504 C60.5340702,111.281823 59.3814028,110.305931 59.3814028,108.361781 C59.3814028,106.417632 60.5261891,105.44186 62.5605946,103.888059 C64.6722671,102.271919 67.3021548,100.257595 67.3021548,96.228986 C67.3021548,92.2003774 64.6722671,90.1938681 62.5605946,88.5699128 C60.5340702,87.0162322 59.3814028,86.0403399 59.3814028,84.0961905 C59.3736603,82.1599361 60.5261891,81.1840638 62.5528719,79.6302633 Z M12.0501569,151.840813 C14.1618294,150.224673 16.7917171,148.210348 16.7917171,144.18174 C16.7917171,140.153131 14.1618294,138.146622 12.0501569,136.522667 C10.0236325,134.968986 8.87096506,133.993094 8.87096506,132.048944 C8.87096506,130.948092 7.98916753,130.05023 6.89077705,130.05023 C5.79238656,130.05023 4.91058112,130.948092 4.91058112,132.048944 C4.91058112,136.077553 7.54047673,138.084062 9.65214923,139.708018 C11.6786736,141.261698 12.8313411,142.23759 12.8313411,144.18174 C12.8313411,146.125889 11.6865548,147.101661 9.65214923,148.655462 C7.54047673,150.271602 4.91058112,152.285927 4.91058112,156.314535 C4.91058112,160.343144 7.54047673,162.357448 9.65214923,163.973608 C11.6786736,165.527289 12.8313411,166.503181 12.8313411,168.447335 C12.8313411,169.548186 13.7131386,170.446049 14.8115291,170.446049 C15.9099196,170.446049 16.7917171,169.548186 16.7917171,168.447335 C16.7917171,164.418722 14.1618294,162.404418 12.0501569,160.788257 C10.0236325,159.234577 8.87096506,158.258685 8.87096506,156.314535 C8.87096506,154.370466 10.0234939,153.394613 12.0501569,151.840813 Z M28.0302741,11.1581089 C28.0302741,6.10675827 32.0989664,2 37.1034956,2 C42.1080248,2 46.1767171,6.10675827 46.1767171,11.1581089 C46.1767171,16.2094596 42.1080248,20.316229 37.1034956,20.316229 C32.1066892,20.3240328 28.0302741,16.2094596 28.0302741,11.1581089 Z M31.9906502,11.1581089 C31.9906502,14.0000808 34.2880643,16.3187893 37.1034956,16.3187893 C39.9189269,16.3187893 42.216341,14.0078758 42.216341,11.1581089 C42.216341,8.31613706 39.9268477,5.9974286 37.1034956,5.9974286 C34.2878663,5.9974286 31.9906502,8.31633693 31.9906502,11.1581089 Z M100.859033,339.984409 C95.8545039,339.984409 91.7858116,335.87765 91.7858116,330.8263 C91.7858116,325.774949 95.8545039,321.668191 100.859033,321.668191 C105.863562,321.668191 109.932255,325.774949 109.932255,330.8263 C109.932255,335.87765 105.863562,339.984409 100.859033,339.984409 Z M105.971879,330.8263 C105.971879,327.984328 103.682385,325.665619 100.859033,325.665619 C98.0434037,325.665619 95.7461876,327.984528 95.7461876,330.8263 C95.7461876,333.668072 98.0436018,335.98698 100.859033,335.98698 C103.674464,335.98698 105.971879,333.676066 105.971879,330.8263 Z M92.2398505,128.754464 C92.2398505,131.596435 94.5293439,133.915144 97.352696,133.915144 C100.168325,133.915144 102.465541,131.596236 102.465541,128.754464 C102.465541,125.912692 100.168127,123.593764 97.352696,123.593764 C94.5370667,123.585968 92.2398505,125.904697 92.2398505,128.754464 Z M56.9132965,150.608406 C56.9132965,155.659756 52.8446042,159.766515 47.840075,159.766515 C42.8355458,159.766515 38.7668535,155.659756 38.7668535,150.608406 C38.7668535,145.557055 42.8355458,141.450297 47.840075,141.450297 C52.8446042,141.450297 56.9132965,145.557055 56.9132965,150.608406 Z M52.9529204,150.608406 C52.9529204,147.766434 50.6634271,145.447725 47.840075,145.447725 C45.0244457,145.447725 42.7272296,147.766634 42.7272296,150.608406 C42.7272296,153.450178 45.0246437,155.769086 47.840075,155.769086 C50.6634271,155.769086 52.9529204,153.458173 52.9529204,150.608406 Z M19.9709089,75.6486246 C19.9709089,80.6999752 15.9022166,84.8067335 10.8976875,84.8067335 C5.89315833,84.8067335 1.8244581,80.6999752 1.8244581,75.6486246 C1.8244581,70.5972739 5.89315833,66.4905156 10.8976875,66.4905156 C15.9022166,66.4905156 19.9709089,70.5972739 19.9709089,75.6486246 Z M16.0105329,75.6486246 C16.0105329,72.8066527 13.7210395,70.4879442 10.8976875,70.4879442 C8.08205815,70.4879442 5.78484204,72.7988577 5.78484204,75.6486246 C5.78484204,78.4905964 8.08225617,80.8093049 10.8976875,80.8093049 C13.7210395,80.8093049 16.0105329,78.4903965 16.0105329,75.6486246 Z M168.508772,39.6317929 C168.508772,44.6831435 164.44008,48.7899018 159.43555,48.7899018 C154.431021,48.7899018 150.362329,44.6831435 150.362329,39.6317929 C150.362329,34.5804422 154.431021,30.4736839 159.43555,30.4736839 C164.432357,30.4736839 168.508772,34.5804422 168.508772,39.6317929 Z M164.548396,39.6317929 C164.548396,36.789821 162.258903,34.4711125 159.43555,34.4711125 C156.619921,34.4711125 154.322705,36.7900209 154.322705,39.6317929 C154.322705,42.4735648 156.612198,44.7924732 159.43555,44.7924732 C162.25118,44.7924732 164.548396,42.4815597 164.548396,39.6317929 Z M31.0401599,103.630625 C30.305332,102.888922 28.9593784,102.888922 28.2476988,103.630625 C28.0543136,103.810189 27.9150866,104.028809 27.8145327,104.286463 C27.7139787,104.528487 27.6598206,104.786141 27.6598206,105.043796 C27.6598206,105.309245 27.7139787,105.566899 27.8145327,105.808924 C27.9150866,106.050948 28.0543136,106.269567 28.2476988,106.449132 C28.6035188,106.831706 29.1217736,107.050305 29.6322858,107.050305 C30.1660059,107.050305 30.6842607,106.831686 31.0400807,106.449132 C31.2179808,106.269547 31.3804354,106.050948 31.4732468,105.808924 C31.5738008,105.566899 31.6124739,105.309245 31.6124739,105.051591 C31.6124739,104.793936 31.5738008,104.536302 31.4732468,104.294258 C31.3804156,104.028809 31.2179808,103.810189 31.0400807,103.630625 L31.0401599,103.630625 Z M44.8860305,61.6336399 C45.2418505,61.251066 45.4584237,60.7357774 45.4584237,60.2126739 C45.4584237,59.6739605 45.2418307,59.1742819 44.8860305,58.791708 C44.3291026,58.2295696 43.4627704,58.0500051 42.7280216,58.3544892 C42.4650329,58.4715939 42.2484399,58.6121435 42.0782823,58.791708 C41.9003822,58.9712725 41.7611354,59.1898918 41.6451162,59.4319162 C41.6064431,59.5724458 41.5677701,59.6895704 41.5445623,59.8144901 C41.529097,59.9550197 41.5058892,60.0721443 41.5058892,60.2126739 C41.5058892,60.7357774 41.7224822,61.251066 42.0782823,61.6336399 C42.4495676,61.9927888 42.9678224,62.2113882 43.4860772,62.2113882 C43.9965895,62.2191832 44.5071215,61.9927689 44.8861295,61.6336399 L44.8860305,61.6336399 Z M63.9144492,8.09008247 C63.5586292,8.47265638 63.342056,8.97233495 63.342056,9.51104842 C63.342056,9.76870268 63.3807291,10.026337 63.4967483,10.2683813 C63.5973221,10.5104056 63.7365293,10.7290249 63.9144492,10.9085894 C64.293477,11.2911633 64.8039892,11.5097627 65.322244,11.5097627 C65.8404989,11.5097627 66.3510111,11.2911433 66.7300389,10.9085894 C66.9079588,10.7290249 67.0471858,10.5104056 67.1477398,10.2683813 C67.2482937,10.0263569 67.3024519,9.76870268 67.3024519,9.51104842 C67.3024519,8.97233495 67.0858589,8.47265638 66.7300587,8.09008247 C65.9720229,7.34837958 64.6492772,7.34837958 63.9144294,8.09008247 L63.9144492,8.09008247 Z M3.7979214,43.84908 C3.69736349,43.7866202 3.58132843,43.7319754 3.45756668,43.6695155 C3.33380493,43.6304607 3.21778571,43.5914258 3.07853889,43.5523909 C2.4287996,43.4352862 1.74810997,43.6304607 1.29945878,44.1145293 C0.928173526,44.4736782 0.703857828,44.9967818 0.703857828,45.5120703 C0.703857828,46.0507838 0.920450793,46.5738873 1.29945878,46.9330362 C1.67848656,47.3156101 2.18899884,47.5107846 2.70725364,47.5107846 C2.83101539,47.5107846 2.97024241,47.5107846 3.08628143,47.4717497 C3.22551241,47.4561397 3.34154746,47.4092899 3.46530922,47.370255 C3.58133635,47.3077952 3.69736745,47.2531503 3.80566393,47.1672656 C3.91395645,47.1048057 4.01451436,47.026736 4.0918605,46.9252412 C4.47088829,46.5660923 4.68746145,46.0429888 4.68746145,45.5042753 C4.68746145,44.9889868 4.47088829,44.4658833 4.0918605,44.1067343 C4.0145104,44.0052396 3.91395447,43.9271698 3.7979214,43.84908 Z M0.572393146,113.922005 C0.216573163,114.281154 0,114.804257 0,115.342971 C0,115.600625 0.0618808753,115.866074 0.154702188,116.100303 C0.255258116,116.342328 0.386760421,116.560947 0.572403047,116.740512 C0.943688299,117.123086 1.4619431,117.341685 1.98019791,117.341685 C2.11943087,117.341685 2.23546395,117.326055 2.37469097,117.30265 C2.49845272,117.263595 2.61447193,117.22456 2.73051095,117.185525 C2.84653809,117.123066 2.96256918,117.060606 3.06312313,116.998146 C3.17915027,116.920076 3.27971609,116.842006 3.38027004,116.740492 C3.55817805,116.560927 3.69741695,116.342308 3.7979709,116.100283 C3.89852683,115.858259 3.95267309,115.600605 3.95267309,115.342951 C3.95267309,114.804237 3.73608012,114.281134 3.38027994,113.921985 C2.64545197,113.188077 1.29949838,113.188077 0.572373344,113.921985 L0.572393146,113.922005 Z M90.4689684,94.51269 C90.5927302,94.4736551 90.7087494,94.4502302 90.8247884,94.3955653 C90.9485501,94.3331055 91.0645694,94.2784607 91.1806084,94.2160008 C91.2811623,94.1379311 91.3817163,94.0598613 91.4745475,93.9583466 C91.8303675,93.5991976 92.0469406,93.0760941 92.0469406,92.5608056 C92.0469406,92.0220921 91.8303477,91.5224135 91.4745475,91.1398396 C91.3817163,91.0383449 91.2811623,90.9602751 91.1806084,90.8978153 C91.0568466,90.8197455 90.9408274,90.7572857 90.8247884,90.6948259 C90.7087692,90.655791 90.5927302,90.6167561 90.4689684,90.5933312 C90.0744754,90.5152614 89.6799823,90.5542963 89.3241821,90.6948259 C89.0844012,90.7963206 88.8678082,90.9524801 88.6744428,91.1320446 C88.4965229,91.3116091 88.3572959,91.5302285 88.256742,91.7722528 C88.156188,92.0299071 88.1020299,92.2953563 88.1020299,92.5529906 C88.1020299,92.8106249 88.1639108,93.0760941 88.256742,93.3103234 C88.3572959,93.5523477 88.4965229,93.7709671 88.6744428,93.9505316 C89.0534706,94.3331055 89.5639829,94.5517049 90.0822377,94.5517049 C90.2059994,94.5595199 90.3297612,94.5360949 90.4689882,94.51267 L90.4689684,94.51269 Z M26.6692909,161.695474 C25.957651,160.953771 24.6116776,160.953771 23.8768298,161.695474 C23.6989099,161.875038 23.5364751,162.093658 23.4436637,162.335682 C23.3431097,162.593336 23.3044168,162.835361 23.3044168,163.11642 C23.3044168,163.374074 23.3431097,163.639523 23.4436637,163.873753 C23.5442176,164.115777 23.6989297,164.334396 23.8768298,164.513961 C24.2326498,164.896535 24.7509046,165.115134 25.2846247,165.115134 C25.7951369,165.115134 26.3133917,164.896515 26.6692117,164.513961 C26.8703196,164.334376 27.0095664,164.115777 27.1023778,163.873753 C27.2029318,163.631728 27.2570701,163.374074 27.2570701,163.11642 C27.2570701,162.835361 27.1951893,162.601131 27.1023778,162.335682 C27.0018239,162.093658 26.8625969,161.875038 26.6692117,161.695474 L26.6692909,161.695474 Z M154.94191,134.485977 C154.740802,134.688966 154.601555,134.907585 154.508744,135.141815 C154.40819,135.383839 154.354032,135.641493 154.354032,135.899148 C154.354032,136.156802 154.415912,136.422251 154.508744,136.65648 C154.609298,136.914135 154.748525,137.140549 154.94191,137.312299 C155.019256,137.413793 155.11981,137.491863 155.235849,137.554323 C155.336403,137.632393 155.452442,137.694853 155.576204,137.757312 C155.699965,137.796347 155.815985,137.835382 155.955231,137.858807 C156.071251,137.897842 156.210497,137.897842 156.326517,137.897842 C156.844771,137.897842 157.355284,137.694853 157.734312,137.320094 C157.912212,137.140529 158.051458,136.92191 158.167478,136.664275 C158.268032,136.422251 158.306705,136.164597 158.306705,135.906943 C158.306705,135.649288 158.268032,135.391654 158.167478,135.14961 C158.043716,134.907585 157.912212,134.688966 157.734312,134.493792 C157.007206,133.767699 155.676698,133.752089 154.94185,134.485977 L154.94191,134.485977 Z M158.151993,80.9803948 C158.252547,81.0584646 158.368586,81.1209244 158.492347,81.1599593 C158.608367,81.2224191 158.724406,81.261454 158.863633,81.277064 C158.987394,81.3004889 159.118899,81.3160989 159.24266,81.3160989 C159.753173,81.3160989 160.271427,81.0974795 160.650455,80.7383505 C160.828355,80.5353611 160.99081,80.3167417 161.083621,80.0825124 C161.184175,79.8404881 161.222848,79.5828338 161.222848,79.3251796 C161.222848,78.7864661 161.02174,78.2867875 160.650455,77.9042136 C159.915627,77.1625107 158.592842,77.1625107 157.857994,77.9042136 C157.478966,78.2867875 157.262393,78.8020761 157.262393,79.3251796 C157.262393,79.5828338 157.324274,79.8482831 157.417085,80.0825124 C157.517659,80.3245367 157.656866,80.5431561 157.857994,80.7461455 C157.93536,80.8242353 158.028171,80.9023051 158.151933,80.9803748 L158.151993,80.9803948 Z M7.00818239,10.9074702 C7.10873634,10.8293804 7.18610229,10.7278857 7.26344843,10.610781 C7.34081438,10.5092863 7.40269525,10.3921616 7.44136832,10.267242 C7.5032492,10.1501173 7.54192227,10.0252177 7.55738754,9.88466808 C7.58059534,9.76754343 7.59606061,9.62701382 7.59606061,9.50209418 C7.59606061,8.96338071 7.37948745,8.46370214 7.00045966,8.08112823 C6.28881969,7.33942534 4.94285026,7.33942534 4.20800249,8.08112823 C3.85218251,8.44027721 3.63560934,8.96338071 3.63560934,9.50209418 C3.63560934,10.0173827 3.85220231,10.5404862 4.20800249,10.8996352 C4.57928774,11.2822091 5.07433078,11.5008085 5.61579339,11.5008085 C6.1340482,11.5086035 6.64456047,11.2900041 7.00812299,10.9074502 L7.00818239,10.9074702 Z M117.039329,29.7157715 C117.27911,29.6142768 117.495703,29.4737472 117.689068,29.2941627 C118.044888,28.9115888 118.261462,28.3963002 118.261462,27.8731967 C118.261462,27.3500932 118.044869,26.8348047 117.689068,26.4522308 C117.487961,26.2726463 117.271368,26.1321167 117.039329,26.030622 C116.304501,25.7105079 115.438169,25.8900724 114.88132,26.4522308 C114.5255,26.8348047 114.308927,27.3344833 114.308927,27.8731967 C114.308927,28.3884853 114.5255,28.9115888 114.88132,29.2941627 C115.260348,29.6533116 115.755395,29.871911 116.289115,29.871911 C116.544381,29.879706 116.799627,29.8172462 117.039428,29.7157515 L117.039329,29.7157715 Z M150.024868,105.588965 C149.924294,105.510875 149.808275,105.448415 149.684513,105.409381 C149.560751,105.346921 149.444732,105.307886 149.305485,105.292276 C148.671211,105.175171 147.998244,105.370346 147.526405,105.830989 C147.170585,106.213563 146.954012,106.728852 146.954012,107.251955 C146.954012,107.767244 147.170585,108.290347 147.526405,108.672921 C147.905433,109.03207 148.415945,109.25067 148.9342,109.25067 C149.057962,109.25067 149.197189,109.227245 149.313228,109.211635 C149.452455,109.18821 149.568494,109.149175 149.692256,109.09453 C149.808275,109.055475 149.924314,108.993015 150.03261,108.914946 C150.148629,108.852486 150.249203,108.758806 150.326549,108.672921 C150.705577,108.290347 150.92215,107.775059 150.92215,107.251955 C150.92215,106.728852 150.705557,106.213563 150.326549,105.830989 C150.241461,105.745105 150.140907,105.64361 150.024887,105.588965 L150.024868,105.588965 Z M157.858133,11.7672971 C157.479105,12.126446 157.262532,12.6495495 157.262532,13.188263 C157.262532,13.3053877 157.277997,13.4459173 157.301205,13.5708369 C157.339878,13.6879616 157.363086,13.8284912 157.424967,13.9534108 C157.486847,14.0705355 157.540986,14.1954351 157.602867,14.2969498 C157.680213,14.3984645 157.757579,14.5155692 157.858133,14.593639 C158.213953,14.9762129 158.724465,15.1713873 159.24272,15.1713873 C159.77644,15.1713873 160.294695,14.9683979 160.650515,14.593639 C161.0218,14.23449 161.222908,13.7113865 161.222908,13.196098 C161.222908,12.6573845 161.0218,12.134281 160.650515,11.775132 C159.915687,11.0256142 158.585179,11.0100042 157.858053,11.767337 L157.858133,11.7672971 Z" id="Fill-1"></path>
                            <path d="M76.3924059,180.959582 C76.3924059,182.060434 75.5106084,182.958296 74.4122179,182.958296 C70.4209509,182.958296 68.4253175,180.303804 66.8241374,178.172375 C65.2848581,176.126891 64.3180115,174.963439 62.3918826,174.963439 C60.465833,174.963439 59.499026,176.118936 57.9596278,178.172375 C56.3584676,180.303804 54.3628143,182.958296 50.3792701,182.958296 C46.3957259,182.958296 44.4000924,180.303804 42.7989124,178.172375 C41.259633,176.126891 40.3005091,174.963439 38.3743803,174.963439 C36.4483306,174.963439 35.4815236,176.118936 33.9498482,178.172375 C32.348688,180.303804 30.3530347,182.958296 26.3694905,182.958296 C22.3859462,182.958296 20.3903128,180.303804 18.7891327,178.172375 C17.2498534,176.126891 16.2907295,174.963439 14.3646007,174.963439 C13.2662102,174.963439 12.3844126,174.065577 12.3844126,172.964725 C12.3844126,171.863873 13.2662102,170.96601 14.3646007,170.96601 C18.3481449,170.96601 20.3437783,173.620503 21.9449584,175.751932 C23.4842377,177.797416 24.4510843,178.960868 26.3694905,178.960868 C28.2955401,178.960868 29.2623471,177.805371 30.7940226,175.751932 C32.3951828,173.620503 34.3908361,170.96601 38.3743803,170.96601 C42.3579245,170.96601 44.353558,173.620503 45.954738,175.751932 C47.4940173,177.797416 48.4531412,178.960868 50.3792701,178.960868 C52.3053197,178.960868 53.2721267,177.805371 54.8038022,175.751932 C56.4049624,173.620503 58.4006157,170.96601 62.3918826,170.96601 C66.3831496,170.96601 68.378783,173.620503 69.9799631,175.751932 C71.5192424,177.797416 72.486089,178.960868 74.4122179,178.960868 C75.5106084,178.960868 76.3924059,179.850915 76.3924059,180.959582 Z M102.201995,255.630263 C104.32139,254.014123 106.951278,251.999799 106.951278,247.978985 C106.951278,246.878133 106.06948,245.980271 104.97109,245.980271 C103.872699,245.980271 102.990902,246.878133 102.990902,247.978985 C102.990902,249.923055 101.846115,250.891112 99.8194325,252.444912 C97.7000373,254.061053 95.0701496,256.075377 95.0701496,260.096191 C95.0701496,264.124799 97.7000373,266.131308 99.8117098,267.755264 C101.838234,269.308944 102.990902,270.284837 102.990902,272.228986 C102.990902,274.173055 101.846115,275.148908 99.8117098,276.702708 C97.7000373,278.318849 95.0701496,280.333173 95.0701496,284.361781 C95.0701496,288.39039 97.7000373,290.404694 99.8117098,292.020855 C101.838234,293.574535 102.990902,294.550427 102.990902,296.494577 C102.990902,297.595429 103.872699,298.493291 104.97109,298.493291 C106.06948,298.493291 106.951278,297.595429 106.951278,296.494577 C106.951278,292.465968 104.32139,290.451664 102.209717,288.835504 C100.183193,287.281823 99.0305256,286.305931 99.0305256,284.361781 C99.0305256,282.417632 100.175312,281.44186 102.209717,279.888059 C104.32139,278.271919 106.951278,276.257595 106.951278,272.228986 C106.951278,268.200377 104.32139,266.193868 102.209717,264.569913 C100.183193,263.016232 99.0305256,262.04034 99.0305256,260.096191 C99.0227831,258.159936 100.175312,257.184064 102.201995,255.630263 Z M155.823786,335.790583 C157.935459,334.174443 160.565347,332.160118 160.565347,328.13151 C160.565347,324.102901 157.935459,322.096392 155.823786,320.472437 C153.797262,318.918756 152.644594,317.942864 152.644594,315.998714 C152.644594,314.897862 151.762797,314 150.664406,314 C149.566016,314 148.684211,314.897862 148.684211,315.998714 C148.684211,320.027323 151.314106,322.033832 153.425779,323.657788 C155.452303,325.211468 156.60497,326.18736 156.60497,328.13151 C156.60497,330.075659 155.460184,331.051431 153.425779,332.605232 C151.314106,334.221372 148.684211,336.235697 148.684211,340.264305 C148.684211,344.292914 151.314106,346.307218 153.425779,347.923378 C155.452303,349.477059 156.60497,350.452951 156.60497,352.397105 C156.60497,353.497956 157.486768,354.395819 158.585158,354.395819 C159.683549,354.395819 160.565347,353.497956 160.565347,352.397105 C160.565347,348.368492 157.935459,346.354188 155.823786,344.738027 C153.797262,343.184347 152.644594,342.208455 152.644594,340.264305 C152.644594,338.320236 153.797123,337.344383 155.823786,335.790583 Z M138.20482,169.4372 C134.213553,169.4372 132.21792,166.782707 130.61674,164.651278 C129.07746,162.605794 128.110614,161.442342 126.184485,161.442342 C125.086095,161.442342 124.204297,160.54448 124.204297,159.443628 C124.204297,158.342776 125.086095,157.444914 126.184485,157.444914 C130.175752,157.444914 132.171385,160.099406 133.772565,162.230835 C135.311845,164.276319 136.278691,165.439771 138.20482,165.439771 C140.130949,165.439771 141.097677,164.284274 142.637075,162.230835 C144.245978,160.099406 146.241611,157.444914 150.225156,157.444914 C154.216423,157.444914 156.212056,160.099406 157.813236,162.230835 C159.352515,164.276319 160.319362,165.439771 162.245491,165.439771 C163.343881,165.439771 164.225679,166.337633 164.225679,167.438485 C164.225679,168.539337 163.343881,169.4372 162.245491,169.4372 C158.254224,169.4372 156.25859,166.782707 154.65741,164.651278 C153.118131,162.605794 152.151284,161.442342 150.225156,161.442342 C148.291383,161.442342 147.332299,162.597859 145.792901,164.651278 C144.191741,166.782707 142.196087,169.4372 138.20482,169.4372 Z M28.0302741,152.158109 C28.0302741,147.106758 32.0989664,143 37.1034956,143 C42.1080248,143 46.1767171,147.106758 46.1767171,152.158109 C46.1767171,157.20946 42.1080248,161.316229 37.1034956,161.316229 C32.1066892,161.324033 28.0302741,157.20946 28.0302741,152.158109 Z M31.9906502,152.158109 C31.9906502,155.000081 34.2880643,157.318789 37.1034956,157.318789 C39.9189269,157.318789 42.216341,155.007876 42.216341,152.158109 C42.216341,149.316137 39.9268477,146.997429 37.1034956,146.997429 C34.2878663,146.997429 31.9906502,149.316337 31.9906502,152.158109 Z M110.086492,217.754464 C110.086492,212.703113 114.155184,208.596355 119.159714,208.596355 C124.164243,208.596355 128.232935,212.703113 128.232935,217.754464 C128.232935,222.805814 124.164243,226.912572 119.159714,226.912572 C114.162907,226.912572 110.086492,222.798019 110.086492,217.754464 Z M114.046868,217.754464 C114.046868,220.596435 116.336361,222.915144 119.159714,222.915144 C121.975343,222.915144 124.272559,220.596236 124.272559,217.754464 C124.272559,214.912692 121.975145,212.593764 119.159714,212.593764 C116.344084,212.585968 114.046868,214.904697 114.046868,217.754464 Z M56.9132965,291.608406 C56.9132965,296.659756 52.8446042,300.766515 47.840075,300.766515 C42.8355458,300.766515 38.7668535,296.659756 38.7668535,291.608406 C38.7668535,286.557055 42.8355458,282.450297 47.840075,282.450297 C52.8446042,282.450297 56.9132965,286.557055 56.9132965,291.608406 Z M52.9529204,291.608406 C52.9529204,288.766434 50.6634271,286.447725 47.840075,286.447725 C45.0244457,286.447725 42.7272296,288.766634 42.7272296,291.608406 C42.7272296,294.450178 45.0246437,296.769086 47.840075,296.769086 C50.6634271,296.769086 52.9529204,294.458173 52.9529204,291.608406 Z M19.9709089,216.648625 C19.9709089,221.699975 15.9022166,225.806733 10.8976875,225.806733 C5.89315833,225.806733 1.8244581,221.699975 1.8244581,216.648625 C1.8244581,211.597274 5.89315833,207.490516 10.8976875,207.490516 C15.9022166,207.490516 19.9709089,211.597274 19.9709089,216.648625 Z M16.0105329,216.648625 C16.0105329,213.806653 13.7210395,211.487944 10.8976875,211.487944 C8.08205815,211.487944 5.78484204,213.798858 5.78484204,216.648625 C5.78484204,219.490596 8.08225617,221.809305 10.8976875,221.809305 C13.7210395,221.809305 16.0105329,219.490397 16.0105329,216.648625 Z M144.723835,290.631793 C144.723835,287.789821 142.434341,285.471113 139.610989,285.471113 C136.79536,285.471113 134.498144,287.790021 134.498144,290.631793 C134.498144,293.473565 136.787637,295.792473 139.610989,295.792473 C142.426618,295.792473 144.723835,293.48156 144.723835,290.631793 Z M113.31209,344.630625 C112.577262,343.888922 111.231308,343.888922 110.519629,344.630625 C110.326243,344.810189 110.187016,345.028809 110.086462,345.286463 C109.985909,345.528487 109.93175,345.786141 109.93175,346.043796 C109.93175,346.309245 109.985909,346.566899 110.086462,346.808924 C110.187016,347.050948 110.326243,347.269567 110.519629,347.449132 C110.875449,347.831706 111.393703,348.050305 111.904216,348.050305 C112.437936,348.050305 112.956191,347.831686 113.312011,347.449132 C113.489911,347.269547 113.652365,347.050948 113.745177,346.808924 C113.845731,346.566899 113.884404,346.309245 113.884404,346.051591 C113.884404,345.793936 113.845731,345.536302 113.745177,345.294258 C113.652345,345.028809 113.489911,344.810189 113.312011,344.630625 L113.31209,344.630625 Z M44.8860305,202.63364 C45.2418505,202.251066 45.4584237,201.735777 45.4584237,201.212674 C45.4584237,200.67396 45.2418307,200.174282 44.8860305,199.791708 C44.3291026,199.22957 43.4627704,199.050005 42.7280216,199.354489 C42.4650329,199.471594 42.2484399,199.612143 42.0782823,199.791708 C41.9003822,199.971272 41.7611354,200.189892 41.6451162,200.431916 C41.6064431,200.572446 41.5677701,200.68957 41.5445623,200.81449 C41.529097,200.95502 41.5058892,201.072144 41.5058892,201.212674 C41.5058892,201.735777 41.7224822,202.251066 42.0782823,202.63364 C42.4495676,202.992789 42.9678224,203.211388 43.4860772,203.211388 C43.9965895,203.219183 44.5071215,202.992769 44.8861295,202.63364 L44.8860305,202.63364 Z M63.9144492,149.090082 C63.5586292,149.472656 63.342056,149.972335 63.342056,150.511048 C63.342056,150.768703 63.3807291,151.026337 63.4967483,151.268381 C63.5973221,151.510406 63.7365293,151.729025 63.9144492,151.908589 C64.293477,152.291163 64.8039892,152.509763 65.322244,152.509763 C65.8404989,152.509763 66.3510111,152.291143 66.7300389,151.908589 C66.9079588,151.729025 67.0471858,151.510406 67.1477398,151.268381 C67.2482937,151.026357 67.3024519,150.768703 67.3024519,150.511048 C67.3024519,149.972335 67.0858589,149.472656 66.7300587,149.090082 C65.9720229,148.34838 64.6492772,148.34838 63.9144294,149.090082 L63.9144492,149.090082 Z M3.7979214,184.84908 C3.69736349,184.78662 3.58132843,184.731975 3.45756668,184.669516 C3.33380493,184.630461 3.21778571,184.591426 3.07853889,184.552391 C2.4287996,184.435286 1.74810997,184.630461 1.29945878,185.114529 C0.928173526,185.473678 0.703857828,185.996782 0.703857828,186.51207 C0.703857828,187.050784 0.920450793,187.573887 1.29945878,187.933036 C1.67848656,188.31561 2.18899884,188.510785 2.70725364,188.510785 C2.83101539,188.510785 2.97024241,188.510785 3.08628143,188.47175 C3.22551241,188.45614 3.34154746,188.40929 3.46530922,188.370255 C3.58133635,188.307795 3.69736745,188.25315 3.80566393,188.167266 C3.91395645,188.104806 4.01451436,188.026736 4.0918605,187.925241 C4.47088829,187.566092 4.68746145,187.042989 4.68746145,186.504275 C4.68746145,185.988987 4.47088829,185.465883 4.0918605,185.106734 C4.0145104,185.00524 3.91395447,184.92717 3.7979214,184.84908 Z M0.572393146,254.922005 C0.216573163,255.281154 0,255.804257 0,256.342971 C0,256.600625 0.0618808753,256.866074 0.154702188,257.100303 C0.255258116,257.342328 0.386760421,257.560947 0.572403047,257.740512 C0.943688299,258.123086 1.4619431,258.341685 1.98019791,258.341685 C2.11943087,258.341685 2.23546395,258.326055 2.37469097,258.30265 C2.49845272,258.263595 2.61447193,258.22456 2.73051095,258.185525 C2.84653809,258.123066 2.96256918,258.060606 3.06312313,257.998146 C3.17915027,257.920076 3.27971609,257.842006 3.38027004,257.740492 C3.55817805,257.560927 3.69741695,257.342308 3.7979709,257.100283 C3.89852683,256.858259 3.95267309,256.600605 3.95267309,256.342951 C3.95267309,255.804237 3.73608012,255.281134 3.38027994,254.921985 C2.64545197,254.188077 1.29949838,254.188077 0.572373344,254.921985 L0.572393146,254.922005 Z M90.4689684,235.51269 C90.5927302,235.473655 90.7087494,235.45023 90.8247884,235.395565 C90.9485501,235.333106 91.0645694,235.278461 91.1806084,235.216001 C91.2811623,235.137931 91.3817163,235.059861 91.4745475,234.958347 C91.8303675,234.599198 92.0469406,234.076094 92.0469406,233.560806 C92.0469406,233.022092 91.8303477,232.522414 91.4745475,232.13984 C91.3817163,232.038345 91.2811623,231.960275 91.1806084,231.897815 C91.0568466,231.819746 90.9408274,231.757286 90.8247884,231.694826 C90.7087692,231.655791 90.5927302,231.616756 90.4689684,231.593331 C90.0744754,231.515261 89.6799823,231.554296 89.3241821,231.694826 C89.0844012,231.796321 88.8678082,231.95248 88.6744428,232.132045 C88.4965229,232.311609 88.3572959,232.530229 88.256742,232.772253 C88.156188,233.029907 88.1020299,233.295356 88.1020299,233.552991 C88.1020299,233.810625 88.1639108,234.076094 88.256742,234.310323 C88.3572959,234.552348 88.4965229,234.770967 88.6744428,234.950532 C89.0534706,235.333106 89.5639829,235.551705 90.0822377,235.551705 C90.2059994,235.55952 90.3297612,235.536095 90.4689882,235.51267 L90.4689684,235.51269 Z M26.6692909,302.695474 C25.957651,301.953771 24.6116776,301.953771 23.8768298,302.695474 C23.6989099,302.875038 23.5364751,303.093658 23.4436637,303.335682 C23.3431097,303.593336 23.3044168,303.835361 23.3044168,304.11642 C23.3044168,304.374074 23.3431097,304.639523 23.4436637,304.873753 C23.5442176,305.115777 23.6989297,305.334396 23.8768298,305.513961 C24.2326498,305.896535 24.7509046,306.115134 25.2846247,306.115134 C25.7951369,306.115134 26.3133917,305.896515 26.6692117,305.513961 C26.8703196,305.334376 27.0095664,305.115777 27.1023778,304.873753 C27.2029318,304.631728 27.2570701,304.374074 27.2570701,304.11642 C27.2570701,303.835361 27.1951893,303.601131 27.1023778,303.335682 C27.0018239,303.093658 26.8625969,302.875038 26.6692117,302.695474 L26.6692909,302.695474 Z M125.060873,280.943466 C124.31056,280.646777 123.436505,280.826341 122.902864,281.365075 C122.701756,281.568064 122.562509,281.786684 122.469698,282.020893 C122.369144,282.262917 122.314986,282.520572 122.314986,282.778226 C122.314986,283.316939 122.531579,283.840043 122.910587,284.199192 C123.266407,284.581766 123.784661,284.77694 124.295174,284.77694 C124.55044,284.77694 124.805686,284.737905 125.068675,284.636391 C125.308456,284.519286 125.525049,284.378736 125.702949,284.199172 C125.803503,284.097677 125.880869,283.996182 125.958215,283.902483 C126.020096,283.785378 126.081977,283.683863 126.136135,283.558944 C126.174808,283.418414 126.213481,283.301289 126.236689,283.17637 C126.275362,283.03584 126.275362,282.918715 126.275362,282.778186 C126.275362,282.262897 126.074254,281.739794 125.702969,281.35722 C125.517326,281.18547 125.300753,281.044921 125.060952,280.943426 L125.060873,280.943466 Z M154.94191,275.485977 C154.740802,275.688966 154.601555,275.907585 154.508744,276.141815 C154.40819,276.383839 154.354032,276.641493 154.354032,276.899148 C154.354032,277.156802 154.415912,277.422251 154.508744,277.65648 C154.609298,277.914135 154.748525,278.140549 154.94191,278.312299 C155.019256,278.413793 155.11981,278.491863 155.235849,278.554323 C155.336403,278.632393 155.452442,278.694853 155.576204,278.757312 C155.699965,278.796347 155.815985,278.835382 155.955231,278.858807 C156.071251,278.897842 156.210497,278.897842 156.326517,278.897842 C156.844771,278.897842 157.355284,278.694853 157.734312,278.320094 C157.912212,278.140529 158.051458,277.92191 158.167478,277.664275 C158.268032,277.422251 158.306705,277.164597 158.306705,276.906943 C158.306705,276.649288 158.268032,276.391654 158.167478,276.14961 C158.043716,275.907585 157.912212,275.688966 157.734312,275.493792 C157.007206,274.767699 155.676698,274.752089 154.94185,275.485977 L154.94191,275.485977 Z M148.239712,221.980395 C148.340266,222.058465 148.456305,222.120924 148.580067,222.159959 C148.696086,222.222419 148.812125,222.261454 148.951352,222.277064 C149.075114,222.300489 149.206618,222.316099 149.33038,222.316099 C149.840892,222.316099 150.359147,222.09748 150.738175,221.738351 C150.916075,221.535361 151.078529,221.316742 151.171341,221.082512 C151.271895,220.840488 151.310568,220.582834 151.310568,220.32518 C151.310568,219.786466 151.10946,219.286788 150.738175,218.904214 C150.003347,218.162511 148.680561,218.162511 147.945713,218.904214 C147.566686,219.286788 147.350112,219.802076 147.350112,220.32518 C147.350112,220.582834 147.411993,220.848283 147.504805,221.082512 C147.605378,221.324537 147.744586,221.543156 147.945713,221.746146 C148.023079,221.824235 148.115891,221.902305 148.239652,221.980375 L148.239712,221.980395 Z M7.00818239,151.90747 C7.10873634,151.82938 7.18610229,151.727886 7.26344843,151.610781 C7.34081438,151.509286 7.40269525,151.392162 7.44136832,151.267242 C7.5032492,151.150117 7.54192227,151.025218 7.55738754,150.884668 C7.58059534,150.767543 7.59606061,150.627014 7.59606061,150.502094 C7.59606061,149.963381 7.37948745,149.463702 7.00045966,149.081128 C6.28881969,148.339425 4.94285026,148.339425 4.20800249,149.081128 C3.85218251,149.440277 3.63560934,149.963381 3.63560934,150.502094 C3.63560934,151.017383 3.85220231,151.540486 4.20800249,151.899635 C4.57928774,152.282209 5.07433078,152.500808 5.61579339,152.500808 C6.1340482,152.508603 6.64456047,152.290004 7.00812299,151.90745 L7.00818239,151.90747 Z M117.039329,170.715771 C117.27911,170.614277 117.495703,170.473747 117.689068,170.294163 C118.044888,169.911589 118.261462,169.3963 118.261462,168.873197 C118.261462,168.350093 118.044869,167.834805 117.689068,167.452231 C117.487961,167.272646 117.271368,167.132117 117.039329,167.030622 C116.304501,166.710508 115.438169,166.890072 114.88132,167.452231 C114.5255,167.834805 114.308927,168.334483 114.308927,168.873197 C114.308927,169.388485 114.5255,169.911589 114.88132,170.294163 C115.260348,170.653312 115.755395,170.871911 116.289115,170.871911 C116.544381,170.879706 116.799627,170.817246 117.039428,170.715751 L117.039329,170.715771 Z M120.288026,246.588965 C120.187452,246.510875 120.071433,246.448415 119.947671,246.409381 C119.823909,246.346921 119.70789,246.307886 119.568643,246.292276 C118.934369,246.175171 118.261402,246.370346 117.789563,246.830989 C117.433743,247.213563 117.21717,247.728852 117.21717,248.251955 C117.21717,248.767244 117.433743,249.290347 117.789563,249.672921 C118.168591,250.03207 118.679103,250.25067 119.197358,250.25067 C119.32112,250.25067 119.460347,250.227245 119.576386,250.211635 C119.715613,250.18821 119.831652,250.149175 119.955413,250.09453 C120.071433,250.055475 120.187472,249.993015 120.295768,249.914946 C120.411787,249.852486 120.512361,249.758806 120.589707,249.672921 C120.968735,249.290347 121.185308,248.775059 121.185308,248.251955 C121.185308,247.728852 120.968715,247.213563 120.589707,246.830989 C120.504619,246.745105 120.404065,246.64361 120.288045,246.588965 L120.288026,246.588965 Z M138.033571,152.767297 C137.654544,153.126446 137.43797,153.64955 137.43797,154.188263 C137.43797,154.305388 137.453436,154.445917 137.476643,154.570837 C137.515316,154.687962 137.538524,154.828491 137.600405,154.953411 C137.662286,155.070535 137.716424,155.195435 137.778305,155.29695 C137.855651,155.398465 137.933017,155.515569 138.033571,155.593639 C138.389391,155.976213 138.899904,156.171387 139.418158,156.171387 C139.951878,156.171387 140.470133,155.968398 140.825953,155.593639 C141.197238,155.23449 141.398346,154.711386 141.398346,154.196098 C141.398346,153.657384 141.197238,153.134281 140.825953,152.775132 C140.091125,152.025614 138.760617,152.010004 138.033492,152.767337 L138.033571,152.767297 Z" id="Fill-1"></path>
                        </g>
                    </g>
                </g>
            </g>
        </g>
    </g>
</svg>