<?xml version="1.0" encoding="UTF-8"?>
<svg width="32px" height="32px" viewBox="0 0 32 32" version="1.1" xmlns="http://www.w3.org/2000/svg" xmlns:xlink="http://www.w3.org/1999/xlink">
    <title>76DB86AF-57D9-4171-A0FC-91CCEAEFEEADSVG</title>
    <g id="WEB-DESIGN" stroke="none" stroke-width="1" fill="none" fill-rule="evenodd">
        <g id="Atto-/-Product-/-Timesheets" transform="translate(-1094.000000, -5257.000000)">
            <g id="Group-14" transform="translate(150.000000, 4513.000000)">
                <g id="Group-35" transform="translate(0.000000, 220.000000)">
                    <g id="Group-37" transform="translate(0.000000, 520.000000)">
                        <g id="Single-Feature" transform="translate(780.000000, 0.000000)">
                            <g id="Group" transform="translate(160.000000, 0.000000)">
                                <g id="Wage_estimates" transform="translate(4.000000, 4.500000)">
                                    <g id="S" transform="translate(9.307766, 5.166667)" stroke="#00B9CB" stroke-linecap="round" stroke-width="2">
                                        <path d="M6.06522257,11.2318892 C8.91869377,11.2318892 11.2318892,8.51639659 11.2318892,5.16666667 C11.2318892,1.81693674 8.91869377,-0.898555899 6.06522257,-0.898555899 C3.21175136,-0.898555899 0.898555899,1.81693674 0.898555899,5.16666667" id="Oval-Copy-2" transform="translate(6.065223, 5.166667) rotate(-90.000000) translate(-6.065223, -5.166667) "></path>
                                        <path d="M6.06522257,21.5652226 C8.91869377,21.5652226 11.2318892,18.8497299 11.2318892,15.5 C11.2318892,12.1502701 8.91869377,9.43477743 6.06522257,9.43477743 C3.21175136,9.43477743 0.898555899,12.1502701 0.898555899,15.5" id="Oval-Copy-5" transform="translate(6.065223, 15.500000) rotate(-270.000000) translate(-6.065223, -15.500000) "></path>
                                    </g>
                                    <rect id="Rectangle" fill="#00B9CB" fill-rule="nonzero" x="14.0732982" y="0" width="2" height="31" rx="1"></rect>
                                    <g id="Group" transform="translate(24.882964, 0.835383)" fill="#00B9CB" fill-rule="nonzero">
                                        <ellipse id="Oval" transform="translate(1.336825, 1.328571) rotate(-270.000000) translate(-1.336825, -1.328571) " cx="1.33682457" cy="1.32857143" rx="1.32857143" ry="1.33682457"></ellipse>
                                        <ellipse id="Oval" transform="translate(5.780211, 13.728571) rotate(-270.000000) translate(-5.780211, -13.728571) " cx="5.78021106" cy="13.7285714" rx="1.32857143" ry="1.33682457"></ellipse>
                                        <ellipse id="Oval" transform="translate(1.336825, 27.900000) rotate(-270.000000) translate(-1.336825, -27.900000) " cx="1.33682457" cy="27.9" rx="1.32857143" ry="1.33682457"></ellipse>
                                    </g>
                                    <g id="Group" transform="translate(3.558518, 15.449669) scale(-1, 1) translate(-3.558518, -15.449669) translate(0.000000, 0.835383)" fill="#00B9CB" fill-rule="nonzero">
                                        <ellipse id="Oval" transform="translate(1.336825, 1.328571) rotate(-270.000000) translate(-1.336825, -1.328571) " cx="1.33682457" cy="1.32857143" rx="1.32857143" ry="1.33682457"></ellipse>
                                        <ellipse id="Oval" transform="translate(5.780211, 13.728571) rotate(-270.000000) translate(-5.780211, -13.728571) " cx="5.78021106" cy="13.7285714" rx="1.32857143" ry="1.33682457"></ellipse>
                                        <ellipse id="Oval" transform="translate(1.336825, 27.900000) rotate(-270.000000) translate(-1.336825, -27.900000) " cx="1.33682457" cy="27.9" rx="1.32857143" ry="1.33682457"></ellipse>
                                    </g>
                                </g>
                            </g>
                        </g>
                    </g>
                </g>
            </g>
        </g>
    </g>
</svg>