<?xml version="1.0" encoding="UTF-8"?>
<svg width="33px" height="28px" viewBox="0 0 33 28" version="1.1" xmlns="http://www.w3.org/2000/svg" xmlns:xlink="http://www.w3.org/1999/xlink">
    <title>3B34B980-FECE-4F5F-8972-2649D5A59EF1SVG</title>
    <g id="WEB-DESIGN" stroke="none" stroke-width="1" fill="none" fill-rule="evenodd">
        <g id="Atto-/-Product-/-Timesheets" transform="translate(-316.000000, -4999.000000)">
            <g id="Group-14" transform="translate(150.000000, 4513.000000)">
                <g id="Group-35" transform="translate(0.000000, 220.000000)">
                    <g id="Group-38" transform="translate(0.000000, 260.000000)">
                        <g id="Group" transform="translate(160.000000, 0.000000)">
                            <g id="Wages" transform="translate(7.000000, 7.000000)">
                                <g id="Team---Color" stroke="#00B9CB" stroke-width="2">
                                    <path d="M16,26 C16,24.9455187 16,22.9455187 16,20 C16,15.581722 12.418278,12 8,12 C3.581722,12 0,15.581722 0,20 C0,22.9455187 0,24.9455187 0,26" id="Oval-10" stroke-linecap="round"></path>
                                    <circle id="Oval-13" cx="8" cy="5" r="5"></circle>
                                </g>
                                <path d="M26.3187186,12.6177032 C26.3178555,13.6576224 25.5718512,14.5462629 24.5483664,14.7286781 L24.5483664,15.2378384 C24.5483664,15.5429849 24.3011367,15.791081 23.9951313,15.791081 C23.689989,15.791081 23.4418963,15.5429849 23.4418963,15.2378384 L23.4418963,14.7226367 C22.728732,14.5436981 22.14352,14.0371247 21.8643133,13.3568133 C21.8020743,13.220231 21.7986155,13.0654978 21.853076,12.9254611 C21.9075342,12.7862851 22.0164529,12.6756388 22.1539031,12.6177254 C22.2922118,12.5598075 22.4478037,12.5606728 22.5852494,12.6194559 C22.7226929,12.6782368 22.830753,12.7897506 22.8843504,12.9297808 C23.0727955,13.3810276 23.5153924,13.6740692 24.0046514,13.6732061 C24.5890004,13.6732061 25.2174533,13.3386714 25.2174533,12.6090771 C25.2174533,12.4163074 25.2174533,11.8345373 23.8896891,11.5293908 L23.8698081,11.5293908 C21.9775671,11.0867967 21.6949083,9.99327937 21.6949083,9.37605973 L21.694043,9.37605973 C21.6949083,8.33614056 22.4409104,7.44661488 23.4643952,7.26422184 L23.4643952,6.76198815 C23.4643952,6.45684162 23.7116249,6.20874548 24.0176303,6.20874548 C24.3227726,6.20874548 24.5708653,6.45684162 24.5708653,6.76198815 L24.5708653,7.2780529 C25.2848926,7.45180651 25.8735569,7.95404905 26.1571009,8.63177131 C26.2763916,8.91357099 26.1441353,9.23861212 25.8623372,9.35702818 C25.5805414,9.47545752 25.2555048,9.34319712 25.1370903,9.06139743 C24.9486452,8.61015059 24.5069114,8.31710901 24.0176524,8.31797207 C23.4333034,8.31797207 22.8048505,8.65250684 22.8048505,9.38210114 C22.8048505,9.5748708 22.8048505,10.1566409 24.1326146,10.4617874 L24.1524957,10.4617874 C26.036084,10.9052446 26.318765,12.0022141 26.318765,12.6177077 L26.3187186,12.6177032 Z M31.9997787,11.0003315 C31.9997787,13.121663 31.1569583,15.1565117 29.656275,16.6564632 C28.156499,18.1571237 26.1215456,19 23.9995572,19 C21.8782548,19 19.8434341,18.157168 18.3435033,16.6564632 C16.8428647,15.1566666 16,13.1216852 16,11.0003315 C16,8.87813691 16.8428204,6.84326613 18.3435033,5.34353592 C19.8432792,3.84287626 21.8782327,3 23.9995572,3 C26.1208596,3.0025936 28.1539099,3.84628424 29.6538408,5.34619149 C31.1536168,6.84598809 31.9973445,8.87919913 32,11.0005528 L31.9997787,11.0003315 Z" id="Fill-1" fill="#00B9CB"></path>
                            </g>
                        </g>
                    </g>
                </g>
            </g>
        </g>
    </g>
</svg>