<?xml version="1.0" encoding="UTF-8"?>
<svg width="42px" height="36px" viewBox="0 0 42 36" version="1.1" xmlns="http://www.w3.org/2000/svg" xmlns:xlink="http://www.w3.org/1999/xlink">
    <title>E8121AFC-DDDF-4A96-93BF-AABD7514D074SVG</title>
    <g id="WEB-DESIGN" stroke="none" stroke-width="1" fill="none" fill-rule="evenodd">
        <g id="Atto-/-Product-/-Time-Tracking" transform="translate(-170.000000, -4562.000000)" fill="#000000">
            <g id="Group-15" transform="translate(150.000000, 3829.000000)">
                <g id="Group-3" transform="translate(20.000000, 726.000000)">
                    <g id="Web-time-tracking" transform="translate(1.000000, 8.000000)">
                        <path d="M39.5495814,23.6910222 L39.5495814,3.05902222 C39.5477628,1.36977778 38.116093,0.00173333333 36.3482791,0 L3.20130233,0 C1.43348837,0.00173777778 0.00181395349,1.36977778 0,3.05902222 L0,23.6910222 C0.00181674419,25.3802667 1.43348837,26.7483111 3.20130233,26.7500444 L14.147814,26.7500444 L14.147814,32.9860444 L11.6096744,32.9860444 C11.3080744,32.9860444 11.0646047,33.2186844 11.0646047,33.5068889 C11.0646047,33.7950933 11.3080651,34.0277333 11.6096744,34.0277333 L28.4194419,34.0277333 C28.7192233,34.0277333 28.9645116,33.7950933 28.9645116,33.5068889 C28.9645116,33.2186844 28.7192372,32.9860444 28.4194419,32.9860444 L25.4034419,32.9860444 L25.4034419,26.7500444 L36.348093,26.7500444 C38.115907,26.7483111 39.5475814,25.3802667 39.5495814,23.6910222 L39.5495814,23.6910222 Z M1.09004419,3.05902222 C1.09004419,1.94617778 2.0347907,1.04337778 3.20125581,1.04164444 L36.3482279,1.04164444 C37.5146465,1.04338222 38.4594372,1.94617778 38.4594372,3.05902222 L38.4594372,20.8523556 L1.09004419,20.8523556 L1.09004419,3.05902222 Z M24.3114372,32.9861333 L15.2360884,32.9861333 L15.2360884,26.7501333 L24.3114372,26.7501333 L24.3114372,32.9861333 Z M3.20120465,25.7083556 C2.03478605,25.7083556 1.08999674,24.8056 1.08999674,23.6909778 L1.08999674,21.8940889 L38.4592977,21.8940889 L38.4592977,23.6909778 C38.4592977,24.8055556 37.5145535,25.7083556 36.3480884,25.7083556 L3.20120465,25.7083556 Z" id="Fill-1" stroke="#000000" stroke-width="0.967479675"></path>
                        <path d="M13.9067252,14.9009374 L11.3247422,12.4032048 C11.1311322,12.5904973 10.8724693,12.7777898 10.6788593,12.9650822 C10.4202079,13.2152938 10.1630822,13.4640294 9.90441928,13.7142522 C9.83937793,13.7771712 9.83937793,13.7771712 9.77585062,13.7771712 C9.64728197,13.8400903 9.51719928,13.7771712 9.45367197,13.5898787 L7.83973902,7.72088134 C7.77469767,7.6579623 7.77469767,7.59650789 7.77469767,7.53358885 C7.83973902,7.4092154 7.96830767,7.34629636 8.09687633,7.4092154 L14.2273433,8.97048558 C14.2923847,8.97048558 14.355912,8.97048558 14.355912,9.03340462 C14.4844806,9.15777807 14.4844806,9.28361614 14.355912,9.40798959 L13.000642,10.719037 L15.646129,13.2782016 C15.7111704,13.402575 15.7746977,13.5284131 15.7746977,13.5898675 C15.7746977,13.714241 15.7096563,13.840079 15.646129,13.9644525 L14.6130261,14.9009149 C14.4844574,15.0252884 14.3543747,15.0882074 14.2908474,15.0882074 C14.1622788,15.0882074 14.0321961,15.0252884 13.9036274,14.9009149 L13.9067252,14.9009374 Z" id="Fill-1"></path>
                        <path d="M36.0746977,4.15719807 C36.0746977,4.99066417 34.7746977,4.99066417 34.7746977,4.15719807 C34.7746977,3.32446978 36.0746977,3.32446978 36.0746977,4.15719807" id="Fill-2"></path>
                        <path d="M34.0746977,4.15719807 C34.0746977,4.99066417 32.7746977,4.99066417 32.7746977,4.15719807 C32.7746977,3.32446978 34.0746977,3.32446978 34.0746977,4.15719807" id="Fill-2"></path>
                        <path d="M32.0746977,4.15719807 C32.0746977,4.99066417 30.7746977,4.99066417 30.7746977,4.15719807 C30.7746977,3.32446978 32.0746977,3.32446978 32.0746977,4.15719807" id="Fill-2"></path>
                    </g>
                </g>
            </g>
        </g>
    </g>
</svg>